<svg width="20" height="20" viewBox="0 0 20 20" fill="none" xmlns="http://www.w3.org/2000/svg">
<path d="M0.999998 -2.34208e-06C0.447713 -2.0892e-06 -2.0892e-06 0.447713 -2.34208e-06 0.999998L-1.54129e-06 10C-1.87847e-06 10.5523 0.447714 11 0.999998 11C1.55228 11 2 10.5523 2 10L2 2L10 2C10.5523 2 11 1.55228 11 0.999998C11 0.447714 10.5523 -1.87847e-06 10 -1.54129e-06L0.999998 -2.34208e-06ZM19.7071 18.2929L1.70711 0.292891L0.292891 1.70711L18.2929 19.7071L19.7071 18.2929Z" fill="#C22033"/>
</svg>
