<svg width="41" height="41" viewBox="0 0 41 41" fill="none" xmlns="http://www.w3.org/2000/svg">
<path d="M20.5 38L22.8161 35.0744C23.1955 34.5952 23.7731 34.3158 24.3842 34.3158H36C37.1046 34.3158 38 33.4204 38 32.3158V5C38 3.89543 37.1046 3 36 3H24.3842C23.7731 3 23.1955 3.27943 22.8161 3.75859L20.5 6.68421M20.5 38L18.1839 35.0744C17.8045 34.5952 17.2269 34.3158 16.6158 34.3158H5C3.89543 34.3158 3 33.4204 3 32.3158V5C3 3.89543 3.89543 3 5 3H16.6158C17.2269 3 17.8045 3.27943 18.1839 3.75859L20.5 6.68421M20.5 38V22.3421V6.68421" stroke="#F0CC0E" stroke-width="5" stroke-linejoin="round"/>
</svg>
