<svg width="116" height="116" viewBox="0 0 116 116" fill="none" xmlns="http://www.w3.org/2000/svg">
<circle cx="58" cy="58" r="53" stroke="#C22033" stroke-width="10"/>
<path d="M49.64 65.408C49.64 63.2 50.264 61.256 51.512 59.576C52.76 57.848 54.8 56.336 57.632 55.04L63.248 52.52C64.448 51.944 65.36 51.296 65.984 50.576C66.608 49.808 66.92 48.968 66.92 48.056C66.92 46.232 66.128 44.816 64.544 43.808C62.96 42.752 60.68 42.224 57.704 42.224C54.632 42.224 52.184 42.896 50.36 44.24C48.584 45.536 47.528 47.336 47.192 49.64H33.152C33.536 43.736 35.888 39.128 40.208 35.816C44.576 32.504 50.408 30.848 57.704 30.848C65.048 30.848 70.76 32.312 74.84 35.24C78.968 38.12 81.032 42.2 81.032 47.48C81.032 50.072 80.312 52.4 78.872 54.464C77.432 56.528 75.248 58.232 72.32 59.576L66.2 62.456C65.096 62.984 64.256 63.584 63.68 64.256C63.104 64.928 62.816 65.768 62.816 66.776V67.928H50C49.856 67.448 49.76 67.016 49.712 66.632C49.664 66.2 49.64 65.792 49.64 65.408ZM56.264 86.72C53.816 86.72 51.824 86.024 50.288 84.632C48.8 83.24 48.056 81.416 48.056 79.16C48.056 76.856 48.8 75.008 50.288 73.616C51.824 72.224 53.816 71.528 56.264 71.528C58.712 71.528 60.68 72.224 62.168 73.616C63.656 75.008 64.4 76.856 64.4 79.16C64.4 81.416 63.656 83.24 62.168 84.632C60.68 86.024 58.712 86.72 56.264 86.72Z" fill="#C22033"/>
</svg>
