<svg width="116" height="116" viewBox="0 0 116 116" fill="none" xmlns="http://www.w3.org/2000/svg">
<rect width="116" height="116" rx="25" transform="matrix(-1 0 0 1 116 0)" fill="#221E1F"/>
<path d="M58.0001 30.2666C52.8118 30.2666 34.5334 32.3999 34.5334 53.7333V62.2666V64.3999C34.5334 67.6355 35.9504 69.9392 37.3959 71.2041C38.2773 71.9753 38.6463 71.9874 39.2376 72.2208C40.0077 74.2108 44.9117 85.5722 57.7543 85.7208C57.8359 85.7297 57.918 85.7338 58.0001 85.7333C58.085 85.7342 58.1699 85.73 58.2543 85.7208C71.0905 85.5672 75.9927 74.2103 76.7626 72.2208C77.3539 71.9874 77.7229 71.9753 78.6043 71.2041C80.0498 69.9392 81.4668 67.6355 81.4668 64.3999V60.1333V53.7333C81.4668 45.1999 77.2001 34.5333 68.6668 34.5333C68.6668 34.5333 66.5334 30.2666 58.0001 30.2666ZM68.6668 43.0666C68.6668 43.0666 75.0668 48.9546 75.0668 62.2666H77.2001V64.3999C77.2001 66.4977 76.4837 67.394 75.7959 67.9958C75.1082 68.5976 74.5501 68.7291 74.5501 68.7291L73.4126 69.0124L73.0418 70.1249C73.0418 70.1249 69.3779 81.4666 58.0001 81.4666C46.6223 81.4666 42.9584 70.1249 42.9584 70.1249L42.5876 69.0124L41.4501 68.7291C41.4501 68.7291 40.8921 68.5976 40.2043 67.9958C39.5165 67.394 38.8001 66.4977 38.8001 64.3999V62.2666H40.9334C40.9334 47.3333 62.2668 57.9999 68.6668 43.0666ZM48.4001 60.1333C47.5514 60.1333 46.7375 60.4704 46.1374 61.0705C45.5373 61.6706 45.2001 62.4846 45.2001 63.3333C45.2001 64.182 45.5373 64.9959 46.1374 65.596C46.7375 66.1961 47.5514 66.5333 48.4001 66.5333C49.2488 66.5333 50.0627 66.1961 50.6629 65.596C51.263 64.9959 51.6001 64.182 51.6001 63.3333C51.6001 62.4846 51.263 61.6706 50.6629 61.0705C50.0627 60.4704 49.2488 60.1333 48.4001 60.1333ZM67.6001 60.1333C66.7514 60.1333 65.9375 60.4704 65.3374 61.0705C64.7373 61.6706 64.4001 62.4846 64.4001 63.3333C64.4001 64.182 64.7373 64.9959 65.3374 65.596C65.9375 66.1961 66.7514 66.5333 67.6001 66.5333C68.4488 66.5333 69.2627 66.1961 69.8629 65.596C70.463 64.9959 70.8001 64.182 70.8001 63.3333C70.8001 62.4846 70.463 61.6706 69.8629 61.0705C69.2627 60.4704 68.4488 60.1333 67.6001 60.1333Z" fill="#EEE2E3"/>
</svg>
