<svg width="116" height="116" viewBox="0 0 116 116" fill="none" xmlns="http://www.w3.org/2000/svg">
<rect width="116" height="116" rx="25" transform="matrix(-1 0 0 1 116 0)" fill="#221E1F"/>
<path fill-rule="evenodd" clip-rule="evenodd" d="M38 81.949V51.9989C38.3373 48.8462 39.7352 40.6879 43.0589 37.7288C47.1904 34.0508 49.6356 33.083 57.224 33.083C63.3321 33.083 67.8478 33.6084 73.4126 40.9646C75.0989 43.0664 78.3704 49.792 77.9656 59.8805V82.9999L71.8949 79.3218L64.8124 82.9999L57.224 79.3218L51.1533 82.9999L43.5648 79.3218L38 81.949ZM55.7063 54.1006H45.5884C45.5884 60.4059 49.3826 60.4059 49.3826 60.4059H51.9121C53.8092 60.4059 55.7063 57.6036 55.7063 54.1006ZM60.7652 54.1006H70.8831C70.8831 60.4059 67.0889 60.4059 67.0889 60.4059H64.5595C62.6623 60.4059 60.7652 57.6036 60.7652 54.1006Z" fill="#EEE2E3"/>
</svg>
