<svg width="116" height="116" viewBox="0 0 116 116" fill="none" xmlns="http://www.w3.org/2000/svg">
<rect width="116" height="116" rx="25" transform="matrix(-1 0 0 1 116 0)" fill="#221E1F"/>
<path fill-rule="evenodd" clip-rule="evenodd" d="M44.1414 63.8976L44.9457 70.7337C45.0363 71.5038 45.5639 72.1521 46.2995 72.3974L49.7197 73.5374C50.5364 73.8097 51.0873 74.5739 51.0873 75.4348V77.764C51.0873 78.2319 51.2513 78.685 51.5508 79.0444L52.9847 80.765C53.3647 81.221 53.9276 81.4847 54.5211 81.4847H61.85C62.3179 81.4847 62.7709 81.3206 63.1304 81.0211L64.851 79.5872C65.307 79.2072 65.5706 78.6444 65.5706 78.0508V75.9933C65.5706 74.8887 66.4661 73.9933 67.5706 73.9933H69.2371C69.7675 73.9933 70.2762 73.7826 70.6513 73.4075L72.5907 71.4681C72.8966 71.1621 73.0951 70.7651 73.1563 70.3367L74.0397 64.1531C74.0538 64.0543 74.0753 63.9568 74.104 63.8612L75.4748 59.2916C75.5308 59.1052 75.5592 58.9116 75.5592 58.7169V51.0144C75.5592 50.6898 75.483 50.3717 75.3249 50.0883C73.5086 46.8325 69.1299 40.9177 64.223 40.057C64.1228 40.0394 64.0212 40.0322 63.9194 40.0322H53.8927C53.6884 40.0322 53.4854 40.0624 53.292 40.1282C50.0767 41.222 43.7651 44.5837 41.7054 50.2133C41.6316 50.4152 41.5981 50.6298 41.5981 50.8448V58.4922C41.5981 58.8321 41.6848 59.1664 41.8498 59.4635L43.9034 63.16C44.0301 63.388 44.111 63.6386 44.1414 63.8976ZM51.5866 63.5053C53.7932 63.5053 56.0814 60.2183 56.0814 58.0116C56.0814 55.805 53.7932 55.5145 51.5866 55.5145C49.0895 56.5134 47.5912 57.3033 47.5912 59.5099C47.5912 62.5065 49.38 63.5053 51.5866 63.5053ZM69.566 59.5099C69.566 61.7165 68.5672 63.5053 65.5706 63.5053C63.364 63.5053 62.0746 61.5076 61.5752 59.5099C61.5752 57.3033 61.8657 55.5145 64.0723 55.5145C66.2789 55.5145 69.566 57.3033 69.566 59.5099ZM58.5786 73.4939C60.2336 73.4939 61.5752 72.1523 61.5752 70.4973C61.5752 68.8424 60.2336 66.5019 58.5786 66.5019C56.9236 66.5019 55.582 68.8424 55.582 70.4973C55.582 71.9956 56.9236 73.4939 58.5786 73.4939Z" fill="#EEE2E3"/>
<path d="M44.9457 70.7337L44.4491 70.7921L44.9457 70.7337ZM44.1414 63.8976L44.638 63.8392L44.1414 63.8976ZM46.2995 72.3974L46.4576 71.923H46.4576L46.2995 72.3974ZM49.7197 73.5374L49.8778 73.0631H49.8778L49.7197 73.5374ZM51.5508 79.0444L51.9349 78.7243L51.9349 78.7243L51.5508 79.0444ZM52.9847 80.765L52.6006 81.0851L52.6006 81.0851L52.9847 80.765ZM63.1304 81.0211L62.8103 80.637L63.1304 81.0211ZM64.851 79.5872L64.5309 79.2031L64.5309 79.2031L64.851 79.5872ZM73.1563 70.3367L73.6513 70.4075L73.1563 70.3367ZM74.0397 64.1531L73.5447 64.0823L73.5447 64.0824L74.0397 64.1531ZM74.104 63.8612L74.5829 64.0049L74.104 63.8612ZM75.4748 59.2916L75.9538 59.4353V59.4353L75.4748 59.2916ZM75.3249 50.0883L74.8882 50.3319L75.3249 50.0883ZM64.223 40.057L64.1367 40.5495L64.223 40.057ZM53.292 40.1282L53.131 39.6549V39.6549L53.292 40.1282ZM41.7054 50.2133L42.175 50.3851L41.7054 50.2133ZM41.8498 59.4635L42.2869 59.2207L42.2869 59.2207L41.8498 59.4635ZM43.9034 63.16L44.3405 62.9172H44.3405L43.9034 63.16ZM51.5866 55.5145V55.0145H51.4903L51.4009 55.0503L51.5866 55.5145ZM61.5752 59.5099H61.0752V59.5715L61.0901 59.6312L61.5752 59.5099ZM45.4423 70.6753L44.638 63.8392L43.6449 63.956L44.4491 70.7921L45.4423 70.6753ZM46.4576 71.923C45.9059 71.7391 45.5102 71.2528 45.4423 70.6753L44.4491 70.7921C44.5624 71.7548 45.2219 72.5652 46.1414 72.8717L46.4576 71.923ZM49.8778 73.0631L46.4576 71.923L46.1414 72.8717L49.5616 74.0118L49.8778 73.0631ZM51.5873 75.4348C51.5873 74.3587 50.8987 73.4034 49.8778 73.0631L49.5616 74.0118C50.1741 74.2159 50.5873 74.7891 50.5873 75.4348H51.5873ZM51.5873 77.764V75.4348H50.5873V77.764H51.5873ZM51.9349 78.7243C51.7103 78.4547 51.5873 78.1149 51.5873 77.764H50.5873C50.5873 78.3489 50.7923 78.9152 51.1667 79.3645L51.9349 78.7243ZM53.3688 80.445L51.9349 78.7243L51.1667 79.3645L52.6006 81.0851L53.3688 80.445ZM54.5211 80.9847C54.076 80.9847 53.6538 80.7869 53.3688 80.445L52.6006 81.0851C53.0756 81.6551 53.7792 81.9847 54.5211 81.9847V80.9847ZM61.85 80.9847H54.5211V81.9847H61.85V80.9847ZM62.8103 80.637C62.5407 80.8617 62.2009 80.9847 61.85 80.9847V81.9847C62.4348 81.9847 63.0012 81.7796 63.4504 81.4052L62.8103 80.637ZM64.5309 79.2031L62.8103 80.637L63.4504 81.4052L65.1711 79.9713L64.5309 79.2031ZM65.0706 78.0508C65.0706 78.496 64.8729 78.9181 64.5309 79.2031L65.1711 79.9713C65.7411 79.4964 66.0706 78.7927 66.0706 78.0508H65.0706ZM65.0706 75.9933V78.0508H66.0706V75.9933H65.0706ZM67.5706 73.4933C66.1899 73.4933 65.0706 74.6126 65.0706 75.9933H66.0706C66.0706 75.1648 66.7422 74.4933 67.5706 74.4933V73.4933ZM69.2371 73.4933H67.5706V74.4933H69.2371V73.4933ZM70.2977 73.0539C70.0164 73.3352 69.6349 73.4933 69.2371 73.4933V74.4933C69.9001 74.4933 70.536 74.2299 71.0048 73.761L70.2977 73.0539ZM72.2371 71.1146L70.2977 73.0539L71.0048 73.761L72.9442 71.8217L72.2371 71.1146ZM72.6614 70.266C72.6155 70.5873 72.4666 70.8851 72.2371 71.1146L72.9442 71.8217C73.3267 71.4392 73.5748 70.9429 73.6513 70.4075L72.6614 70.266ZM73.5447 64.0824L72.6614 70.266L73.6513 70.4075L74.5347 64.2238L73.5447 64.0824ZM73.6251 63.7175C73.5892 63.837 73.5624 63.9589 73.5447 64.0823L74.5347 64.2238C74.5453 64.1497 74.5614 64.0765 74.5829 64.0049L73.6251 63.7175ZM74.9959 59.1479L73.6251 63.7175L74.5829 64.0049L75.9538 59.4353L74.9959 59.1479ZM75.0592 58.7169C75.0592 58.8629 75.0379 59.0081 74.9959 59.1479L75.9538 59.4353C76.0237 59.2022 76.0592 58.9602 76.0592 58.7169H75.0592ZM75.0592 51.0144V58.7169H76.0592V51.0144H75.0592ZM74.8882 50.3319C75.0016 50.535 75.0592 50.7682 75.0592 51.0144H76.0592C76.0592 50.6114 75.9644 50.2084 75.7615 49.8447L74.8882 50.3319ZM64.1367 40.5495C66.4355 40.9528 68.6656 42.5569 70.5741 44.5228C72.4729 46.4787 73.9968 48.7341 74.8882 50.3319L75.7615 49.8447C74.8366 48.1868 73.263 45.8569 71.2917 43.8262C69.33 41.8056 66.9174 40.022 64.3094 39.5646L64.1367 40.5495ZM63.9194 40.5322C63.9978 40.5322 64.0699 40.5378 64.1367 40.5495L64.3094 39.5646C64.1756 39.5411 64.0446 39.5322 63.9194 39.5322V40.5322ZM53.8927 40.5322H63.9194V39.5322H53.8927V40.5322ZM53.453 40.6016C53.5895 40.5552 53.7374 40.5322 53.8927 40.5322V39.5322C53.6393 39.5322 53.3814 39.5697 53.131 39.6549L53.453 40.6016ZM42.175 50.3851C43.16 47.6928 45.1732 45.5167 47.3657 43.8696C49.5562 42.2238 51.8898 41.1333 53.453 40.6016L53.131 39.6549C51.4789 40.2169 49.049 41.3541 46.765 43.0701C44.4829 44.7846 42.3105 47.1042 41.2359 50.0415L42.175 50.3851ZM42.0981 50.8448C42.0981 50.681 42.1236 50.5254 42.175 50.3851L41.2359 50.0415C41.1395 50.3049 41.0981 50.5786 41.0981 50.8448H42.0981ZM42.0981 58.4922V50.8448H41.0981V58.4922H42.0981ZM42.2869 59.2207C42.1631 58.9978 42.0981 58.7471 42.0981 58.4922H41.0981C41.0981 58.9171 41.2064 59.3349 41.4128 59.7063L42.2869 59.2207ZM44.3405 62.9172L42.2869 59.2207L41.4128 59.7063L43.4664 63.4028L44.3405 62.9172ZM44.638 63.8392C44.5999 63.5154 44.4989 63.2022 44.3405 62.9172L43.4664 63.4028C43.5614 63.5738 43.622 63.7618 43.6449 63.956L44.638 63.8392ZM55.5814 58.0116C55.5814 58.9694 55.0711 60.2379 54.2658 61.2803C53.4506 62.3357 52.456 63.0053 51.5866 63.0053V64.0053C52.9239 64.0053 54.1767 63.0315 55.0572 61.8916C55.9477 60.7389 56.5814 59.2605 56.5814 58.0116H55.5814ZM51.5866 56.0145C52.688 56.0145 53.7231 56.0905 54.4714 56.3981C54.8363 56.548 55.1067 56.7429 55.2871 56.9874C55.464 57.2272 55.5814 57.5512 55.5814 58.0116H56.5814C56.5814 57.3688 56.4129 56.829 56.0918 56.3937C55.7742 55.9632 55.3346 55.6716 54.8516 55.4731C53.9041 55.0838 52.6918 55.0145 51.5866 55.0145V56.0145ZM48.0912 59.5099C48.0912 58.5473 48.4061 57.937 48.9809 57.4363C49.5942 56.9021 50.5141 56.482 51.7723 55.9787L51.4009 55.0503C50.162 55.5458 49.0842 56.0202 48.3241 56.6823C47.5254 57.378 47.0912 58.266 47.0912 59.5099H48.0912ZM51.5866 63.0053C50.5486 63.0053 49.6862 62.7692 49.0882 62.2529C48.5039 61.7484 48.0912 60.9058 48.0912 59.5099H47.0912C47.0912 61.1106 47.5728 62.2657 48.4347 63.0098C49.2827 63.7421 50.418 64.0053 51.5866 64.0053V63.0053ZM65.5706 64.0053C67.1713 64.0053 68.3264 63.5237 69.0705 62.6619C69.8027 61.8138 70.066 60.6785 70.066 59.5099H69.066C69.066 60.5479 68.8299 61.4104 68.3136 62.0083C67.8091 62.5926 66.9665 63.0053 65.5706 63.0053V64.0053ZM61.0901 59.6312C61.353 60.6828 61.8295 61.7617 62.5577 62.5875C63.2942 63.4227 64.2973 64.0053 65.5706 64.0053V63.0053C64.6373 63.0053 63.8924 62.5892 63.3077 61.9261C62.7147 61.2536 62.2968 60.3347 62.0603 59.3887L61.0901 59.6312ZM64.0723 55.0145C63.4533 55.0145 62.9271 55.1403 62.4943 55.3995C62.0588 55.6604 61.7547 56.0343 61.5459 56.4677C61.1423 57.3051 61.0752 58.4109 61.0752 59.5099H62.0752C62.0752 58.4023 62.1534 57.5105 62.4467 56.9018C62.5863 56.6121 62.7686 56.4009 63.0082 56.2574C63.2504 56.1123 63.5881 56.0145 64.0723 56.0145V55.0145ZM70.066 59.5099C70.066 58.1534 69.0696 57.0233 67.9217 56.2672C66.7574 55.5002 65.2899 55.0145 64.0723 55.0145V56.0145C65.0614 56.0145 66.3407 56.4232 67.3716 57.1023C68.4189 57.7922 69.066 58.6598 69.066 59.5099H70.066ZM61.0752 70.4973C61.0752 71.8761 59.9574 72.9939 58.5786 72.9939V73.9939C60.5097 73.9939 62.0752 72.4284 62.0752 70.4973H61.0752ZM58.5786 67.0019C59.1642 67.0019 59.7818 67.4266 60.2849 68.1615C60.7798 68.8843 61.0752 69.7864 61.0752 70.4973H62.0752C62.0752 69.5533 61.6997 68.4577 61.11 67.5965C60.5287 66.7474 59.648 66.0019 58.5786 66.0019V67.0019ZM56.082 70.4973C56.082 69.7864 56.3774 68.8843 56.8723 68.1615C57.3754 67.4266 57.993 67.0019 58.5786 67.0019V66.0019C57.5092 66.0019 56.6285 66.7474 56.0471 67.5965C55.4575 68.4577 55.082 69.5533 55.082 70.4973H56.082ZM58.5786 72.9939C57.2164 72.9939 56.082 71.7363 56.082 70.4973H55.082C55.082 72.2549 56.6309 73.9939 58.5786 73.9939V72.9939Z" fill="#EEE2E3"/>
<path d="M44.053 74.7015C42.9197 74.0855 41.9992 73.1749 41.3931 72.2085C40.9229 71.4589 39.6112 71.1093 39.0234 71.7707L37.0062 74.04C36.7589 74.3182 36.3827 74.4225 36.0393 74.2787C34.8364 73.7754 32.3481 72.6684 31.1102 73.4938C29.1125 74.8257 28.7795 77.3227 29.1125 78.9875C29.5345 80.6757 32.0965 81.5317 34.0859 81.5555C34.6472 81.5622 35.171 81.9421 35.2503 82.4979L35.5922 84.8913C35.6007 84.9507 35.6145 85.0093 35.6335 85.0662L36.1045 86.4789C37.0844 88.9289 41.4296 88.0137 43.0084 86.5632C43.0686 86.5079 43.1195 86.4408 43.1609 86.3703C45.4465 82.4807 43.8563 80.7419 42.7692 79.6942C42.3779 79.3171 42.4532 78.7386 42.8984 78.4269L44.4929 77.3107C45.2939 76.75 44.912 75.1683 44.053 74.7015Z" fill="#EEE2E3" stroke="#EEE2E3"/>
<path d="M45.052 42.343C43.9188 42.9589 42.9983 43.8695 42.3921 44.8359C41.9219 45.5855 40.6103 45.9351 40.0224 45.2738L38.0053 43.0045C37.7579 42.7262 37.3817 42.622 37.0383 42.7657C35.8355 43.2691 33.3471 44.376 32.1092 43.5506C30.1115 42.2188 29.7786 39.7217 30.1115 38.0569C30.5335 36.3687 33.0955 35.5128 35.0849 35.489C35.6463 35.4823 36.17 35.1023 36.2494 34.5465L36.5912 32.1531C36.5997 32.0937 36.6135 32.0352 36.6325 31.9783L37.1035 30.5655C38.0834 28.1156 42.4286 29.0308 44.0074 30.4812C44.0676 30.5365 44.1185 30.6037 44.16 30.6742C46.4455 34.5637 44.8553 36.3026 43.7682 37.3503C43.377 37.7274 43.4522 38.3059 43.8974 38.6175L45.492 39.7337C46.2929 40.2944 45.9111 41.8761 45.052 42.343Z" fill="#EEE2E3" stroke="#EEE2E3"/>
<path d="M74.7017 71.9927C74.0858 73.1259 73.1751 74.0464 72.2088 74.6526C71.4592 75.1227 71.1096 76.4344 71.7709 77.0223L74.0402 79.0394C74.3185 79.2868 74.4227 79.663 74.279 80.0064C73.7756 81.2092 72.6687 83.6975 73.494 84.9355C74.8259 86.9331 77.323 87.2661 78.9877 86.9332C80.6759 86.5112 81.5319 83.9491 81.5557 81.9598C81.5624 81.3984 81.9424 80.8747 82.4981 80.7953L84.8916 80.4534C84.951 80.445 85.0095 80.4311 85.0664 80.4122L86.4791 79.9412C88.9291 78.9613 88.0139 74.6161 86.5635 73.0373C86.5081 72.977 86.441 72.9261 86.3705 72.8847C82.4809 70.5992 80.7421 72.1893 79.6944 73.2764C79.3173 73.6677 78.7388 73.5924 78.4272 73.1473L77.311 71.5527C76.7503 70.7518 75.1686 71.1336 74.7017 71.9927Z" fill="#EEE2E3" stroke="#EEE2E3"/>
<path d="M74.7017 44.053C74.0858 42.9197 73.1751 41.9992 72.2088 41.3931C71.4592 40.9229 71.1096 39.6112 71.7709 39.0234L74.0402 37.0062C74.3185 36.7589 74.4227 36.3827 74.279 36.0393C73.7756 34.8364 72.6687 32.3481 73.494 31.1102C74.8259 29.1125 77.323 28.7795 78.9877 29.1125C80.6759 29.5345 81.5319 32.0965 81.5557 34.0859C81.5624 34.6472 81.9424 35.171 82.4981 35.2503L84.8916 35.5922C84.951 35.6007 85.0095 35.6145 85.0664 35.6335L86.4791 36.1045C88.9291 37.0844 88.0139 41.4296 86.5635 43.0084C86.5081 43.0686 86.441 43.1195 86.3705 43.1609C82.4809 45.4465 80.7421 43.8563 79.6944 42.7692C79.3173 42.3779 78.7388 42.4532 78.4272 42.8984L77.311 44.4929C76.7503 45.2939 75.1686 44.912 74.7017 44.053Z" fill="#EEE2E3" stroke="#EEE2E3"/>
</svg>
