<svg width="118" height="117" viewBox="0 0 118 117" fill="none" xmlns="http://www.w3.org/2000/svg">
<rect width="117.072" height="117" rx="25" transform="matrix(-1 0 0 1 117.072 0)" fill="#C22033"/>
<path d="M58.6179 82.37C61.9433 79.5352 65.0256 76.4275 67.8326 73.0794C72.0451 68.0512 77.0474 60.563 77.0474 53.4273C77.0492 49.783 75.9692 46.2202 73.9441 43.1896C71.919 40.1589 69.0399 37.7968 65.671 36.4022C62.3021 35.0075 58.5949 34.643 55.0186 35.3547C51.4423 36.0664 48.1577 37.8224 45.5804 40.4005C43.8645 42.1077 42.5044 44.1381 41.5789 46.3742C40.6534 48.6102 40.1808 51.0075 40.1885 53.4273C40.1885 60.563 45.1908 68.0512 49.4032 73.0794C52.2103 76.4275 55.2926 79.5352 58.6179 82.37ZM58.6179 45.5338C60.7127 45.5338 62.7217 46.3655 64.2029 47.8458C65.6841 49.3261 66.5163 51.3338 66.5163 53.4273C66.5163 55.5208 65.6841 57.5285 64.2029 59.0088C62.7217 60.4891 60.7127 61.3207 58.6179 61.3207C56.5232 61.3207 54.5142 60.4891 53.033 59.0088C51.5517 57.5285 50.7196 55.5208 50.7196 53.4273C50.7196 51.3338 51.5517 49.3261 53.033 47.8458C54.5142 46.3655 56.5232 45.5338 58.6179 45.5338Z" fill="white"/>
</svg>
