<svg width="55" height="55" viewBox="0 0 55 55" fill="none" xmlns="http://www.w3.org/2000/svg">
<g clip-path="url(#clip0_30_109)">
<path d="M51.8055 31.4524H10.6249L23.2291 48.6794C23.8185 49.4863 24.102 50.5266 24.0174 51.5714C23.9327 52.6161 23.4868 53.5799 22.7777 54.2505C22.0686 54.9212 21.1545 55.2439 20.2363 55.1475C19.3182 55.0512 18.4713 54.5438 17.8819 53.7369L0.520779 30.03C0.403976 29.8414 0.299527 29.6433 0.208279 29.4373C0.208279 29.2398 0.20828 29.1212 -0.0347759 28.9237C-0.19216 28.4706 -0.274564 27.9884 -0.277832 27.5013C-0.274564 27.0141 -0.19216 26.5319 -0.0347759 26.0788C-0.0347759 25.8813 -0.034777 25.7627 0.208279 25.5652C0.299527 25.3592 0.403976 25.1611 0.520779 24.9725L17.8819 1.26562C18.2084 0.819607 18.6172 0.460918 19.0793 0.215073C19.5414 -0.0307732 20.0454 -0.157738 20.5555 -0.156796C21.3668 -0.1586 22.153 0.162926 22.7777 0.751968C23.1293 1.08366 23.4199 1.49104 23.633 1.95074C23.846 2.41045 23.9772 2.91345 24.0192 3.43096C24.0611 3.94847 24.0129 4.47031 23.8773 4.96658C23.7418 5.46286 23.5215 5.92383 23.2291 6.32309L10.6249 23.5501H51.8055C52.7264 23.5501 53.6096 23.9664 54.2607 24.7074C54.9119 25.4484 55.2777 26.4533 55.2777 27.5013C55.2777 28.5492 54.9119 29.5542 54.2607 30.2951C53.6096 31.0361 52.7264 31.4524 51.8055 31.4524Z" fill="#EEE2E3"/>
</g>
<defs>
<clipPath id="clip0_30_109">
<rect width="55" height="55" fill="white" transform="matrix(1 0 0 -1 0 55)"/>
</clipPath>
</defs>
</svg>
