<svg width="55" height="55" viewBox="0 0 55 55" fill="none" xmlns="http://www.w3.org/2000/svg">
<g clip-path="url(#clip0_30_105)">
<path d="M3.1945 31.4524H44.3751L31.7709 48.6794C31.1815 49.4863 30.898 50.5266 30.9826 51.5714C31.0673 52.6161 31.5132 53.5799 32.2223 54.2505C32.9314 54.9212 33.8455 55.2439 34.7637 55.1475C35.6818 55.0512 36.5287 54.5438 37.1181 53.7369L54.4792 30.03C54.596 29.8414 54.7005 29.6433 54.7917 29.4373C54.7917 29.2398 54.7917 29.1212 55.0348 28.9237C55.1922 28.4706 55.2746 27.9884 55.2778 27.5013C55.2746 27.0141 55.1922 26.5319 55.0348 26.0788C55.0348 25.8813 55.0348 25.7627 54.7917 25.5652C54.7005 25.3592 54.596 25.1611 54.4792 24.9725L37.1181 1.26562C36.7916 0.819607 36.3828 0.460918 35.9207 0.215073C35.4586 -0.0307732 34.9546 -0.157738 34.4445 -0.156796C33.6332 -0.1586 32.847 0.162926 32.2223 0.751968C31.8707 1.08366 31.5801 1.49104 31.367 1.95074C31.154 2.41045 31.0228 2.91345 30.9808 3.43096C30.9389 3.94847 30.9871 4.47031 31.1227 4.96658C31.2582 5.46286 31.4785 5.92383 31.7709 6.32309L44.3751 23.5501H3.1945C2.27361 23.5501 1.39043 23.9664 0.739265 24.7074C0.0880966 25.4484 -0.277721 26.4533 -0.277721 27.5013C-0.277721 28.5492 0.0880966 29.5542 0.739265 30.2951C1.39043 31.0361 2.27361 31.4524 3.1945 31.4524Z" fill="#EEE2E3"/>
</g>
<defs>
<clipPath id="clip0_30_105">
<rect width="55" height="55" fill="white" transform="matrix(-1 0 0 -1 55 55)"/>
</clipPath>
</defs>
</svg>
