<svg width="70" height="70" viewBox="0 0 70 70" fill="none" xmlns="http://www.w3.org/2000/svg">
<path d="M35 0C15.67 0 0 15.67 0 35C0 54.33 15.67 70 35 70C54.33 70 70 54.33 70 35C70 15.67 54.33 0 35 0ZM53.6434 46.8809H49.2021C48.721 46.8814 48.2461 46.7735 47.8125 46.5652C47.3789 46.3569 46.9979 46.0536 46.6977 45.6777C45.3657 44.0055 42.7418 41.0405 39.9868 39.767C39.8272 39.6923 39.6514 39.659 39.4756 39.6703C39.2998 39.6815 39.1296 39.7369 38.9809 39.8313C38.8321 39.9257 38.7095 40.0561 38.6245 40.2104C38.5395 40.3647 38.4947 40.538 38.4944 40.7142V45.1067C38.4944 45.3396 38.4486 45.5703 38.3595 45.7856C38.2704 46.0008 38.1397 46.1964 37.975 46.3612C37.8103 46.5259 37.6147 46.6566 37.3995 46.7458C37.1843 46.835 36.9536 46.8809 36.7206 46.8809H34.667C31.9963 46.8809 26.2451 45.2551 21.6624 38.5794C17.7577 32.8919 16.0171 28.4841 15.0021 24.9103C14.9431 24.7008 14.9335 24.4805 14.9739 24.2667C15.0144 24.0529 15.1038 23.8514 15.2352 23.6779C15.3667 23.5045 15.5365 23.3639 15.7314 23.2671C15.9264 23.1703 16.1411 23.1201 16.3587 23.1202H20.8515C21.2998 23.1199 21.7362 23.2642 22.0958 23.5317C22.4554 23.7992 22.7191 24.1757 22.8476 24.6051C23.6831 27.3995 25.8471 33.4276 29.6722 36.4294C29.7888 36.5213 29.929 36.5786 30.0766 36.5946C30.2243 36.6107 30.3734 36.5848 30.5071 36.5201C30.6407 36.4553 30.7535 36.3543 30.8324 36.2285C30.9113 36.1027 30.9533 35.9572 30.9534 35.8087V28.7723C30.9534 27.3818 30.3507 25.9905 29.4101 24.9032C29.2746 24.7472 29.1867 24.5556 29.1571 24.3511C29.1275 24.1466 29.1573 23.9379 29.243 23.7499C29.3287 23.5619 29.4666 23.4025 29.6404 23.2908C29.8142 23.179 30.0164 23.1196 30.223 23.1196H37.15C37.5067 23.1196 37.8488 23.2612 38.1011 23.5135C38.3533 23.7657 38.495 24.1077 38.4951 24.4645V33.9425C38.4951 34.0797 38.5329 34.2142 38.6043 34.3314C38.6757 34.4486 38.7779 34.5438 38.8999 34.6067C39.0218 34.6696 39.1587 34.6978 39.2955 34.6881C39.4324 34.6784 39.564 34.6312 39.6758 34.5517C40.9473 33.6466 42.0362 32.3095 43.0378 30.8066C44.2984 28.916 45.8366 25.7909 46.6082 24.169C46.7576 23.8548 46.993 23.5894 47.2871 23.4036C47.5812 23.2178 47.922 23.1191 48.2699 23.1191H53.1699C53.3745 23.1191 53.5758 23.1712 53.7546 23.2707C53.9334 23.3702 54.0838 23.5137 54.1916 23.6876C54.2994 23.8615 54.361 24.06 54.3706 24.2644C54.3802 24.4688 54.3374 24.6723 54.2463 24.8555C53.0098 27.3355 50.6015 31.8853 48.3353 34.5546C48.0109 34.9384 47.852 35.4353 47.8936 35.9362C47.9352 36.4371 48.1739 36.901 48.5572 37.2261C50.0344 38.4882 52.3406 40.8218 54.827 44.7085C54.9641 44.9213 55.0414 45.167 55.0508 45.42C55.0601 45.673 55.0011 45.9238 54.88 46.146C54.7589 46.3683 54.5802 46.5539 54.3625 46.6832C54.1449 46.8125 53.8965 46.8808 53.6434 46.8809Z" fill="#C22033"/>
</svg>
