<svg width="70" height="70" viewBox="0 0 70 70" fill="none" xmlns="http://www.w3.org/2000/svg">
<path fill-rule="evenodd" clip-rule="evenodd" d="M45.8162 26.341V26.334C46.4018 26.334 46.9887 26.3457 47.5755 26.3317C48.3292 26.313 48.9428 25.6667 48.9428 24.9118C48.9428 23.7883 48.9428 22.6637 48.9428 21.5402C48.9428 20.734 48.3047 20.0935 47.5008 20.0923C46.3797 20.0923 45.2585 20.0912 44.1373 20.0923C43.3347 20.0935 42.6953 20.7363 42.6953 21.5425C42.6942 22.6567 42.6907 23.7708 42.6988 24.885C42.7 25.0518 42.7315 25.2245 42.784 25.382C42.9858 25.9747 43.5295 26.3387 44.1945 26.3422C44.7347 26.3422 45.276 26.341 45.8162 26.341ZM35 27.7865C31.052 27.7842 27.8425 30.961 27.7877 34.8903C27.7305 38.927 30.961 42.1248 34.8343 42.2077C38.864 42.294 42.1237 39.074 42.2088 35.1575C42.2963 31.1208 39.039 27.7842 35 27.7865ZM21.0537 31.6353V31.731C21.0537 36.9985 21.0525 42.266 21.0537 47.5335C21.0537 48.2907 21.7093 48.9428 22.4677 48.9428C30.821 48.944 39.1732 48.944 47.5265 48.9428C48.2918 48.9428 48.944 48.293 48.944 47.5288C48.9452 42.2683 48.944 37.0055 48.944 31.7462V31.6365H45.5467C46.0262 33.1695 46.1732 34.7293 45.9853 36.3195C45.7975 37.9097 45.2842 39.389 44.45 40.7563C43.6158 42.1237 42.532 43.2588 41.2078 44.1607C37.7732 46.501 33.25 46.7063 29.6042 44.66C27.762 43.6275 26.3153 42.1867 25.305 40.3282C23.8012 37.5597 23.5608 34.6523 24.4428 31.6353C23.3135 31.6353 22.1912 31.6353 21.0537 31.6353ZM49.2392 52.7975C49.4247 52.7672 49.6102 52.7403 49.7933 52.7007C51.247 52.3915 52.4347 51.1793 52.7193 49.7175C52.7485 49.5577 52.7718 49.399 52.7975 49.2403V20.7597C52.773 20.6045 52.7508 20.447 52.7217 20.2918C52.409 18.697 51.093 17.4592 49.4783 17.2375C49.4107 17.2293 49.3465 17.2142 49.28 17.2025H20.7212C20.5497 17.234 20.3758 17.2573 20.2067 17.2958C18.6293 17.6552 17.4627 18.9245 17.2375 20.5228C17.2282 20.5893 17.2142 20.6558 17.2037 20.7223V49.28C17.2363 49.4597 17.262 49.6428 17.3028 49.8225C17.6517 51.3648 18.9677 52.5607 20.5345 52.7625C20.6092 52.7718 20.6862 52.787 20.762 52.7975H49.2392ZM35 70C15.6707 70 0 54.3293 0 35C0 15.6695 15.6707 0 35 0C54.3293 0 70 15.6695 70 35C70 54.3293 54.3293 70 35 70Z" fill="#C22033"/>
</svg>
