<svg width="70" height="70" viewBox="0 0 70 70" fill="none" xmlns="http://www.w3.org/2000/svg">
<path d="M35 0C15.67 0 0 15.67 0 35C0 54.33 15.67 70 35 70C54.33 70 70 54.33 70 35C70 15.67 54.33 0 35 0ZM53.1917 22.1397L46.9753 51.8164C46.9001 52.1753 46.7359 52.5096 46.4978 52.7886C46.2597 53.0675 45.9553 53.2821 45.6126 53.4127C45.2699 53.5432 44.8999 53.5856 44.5365 53.5358C44.1732 53.4861 43.8282 53.3458 43.5332 53.1279L34.4911 46.4477L29.0131 51.6157C28.9414 51.6834 28.8569 51.736 28.7646 51.7707C28.6723 51.8053 28.5741 51.8213 28.4756 51.8175C28.377 51.8138 28.2803 51.7905 28.1909 51.7489C28.1015 51.7073 28.0212 51.6484 27.9549 51.5755L27.8372 51.4462L28.789 42.2347L45.945 26.5598C46.0299 26.4824 46.0826 26.376 46.0929 26.2617C46.1032 26.1473 46.0702 26.0332 46.0005 25.942C45.9308 25.8507 45.8294 25.7889 45.7164 25.7687C45.6033 25.7485 45.4868 25.7714 45.3898 25.8329L23.4493 39.7194L14 36.5459C13.7487 36.4615 13.5298 36.3014 13.3731 36.0876C13.2164 35.8738 13.1298 35.6168 13.125 35.3518C13.1202 35.0867 13.1975 34.8268 13.3463 34.6074C13.4952 34.3881 13.7082 34.2202 13.9563 34.1268L50.9277 20.1994C51.2129 20.0921 51.5217 20.0633 51.8218 20.1162C52.1219 20.169 52.4023 20.3015 52.6337 20.4998C52.8651 20.6981 53.0389 20.9549 53.1371 21.2434C53.2352 21.5319 53.2541 21.8414 53.1917 22.1397Z" fill="#C22033"/>
</svg>
