<svg width="655" height="655" viewBox="0 0 655 655" fill="none" xmlns="http://www.w3.org/2000/svg">
<g clip-path="url(#clip0_72_900)">
<path d="M5.99628 440.939C12.1913 434.908 21.5388 433.544 29.1924 437.563C143.284 497.445 287.609 479.448 383.526 383.532C479.446 287.611 497.438 143.28 437.556 29.1921C433.533 21.5479 434.914 12.1856 440.957 6.01213C446.977 -0.168037 456.311 -1.77055 464.047 2.0771C496.537 18.2058 527.024 39.7604 554.096 66.8311C688.63 201.379 688.63 419.535 554.096 554.083C419.517 688.641 201.381 688.641 66.826 554.083C39.7567 527.013 18.2101 496.546 2.08008 464.055C-1.76355 456.314 -0.175781 446.982 5.99628 440.939Z" fill="#C22033"/>
<path d="M244.217 366.008C244.689 367.176 244.342 368.533 243.332 369.319C242.341 370.103 240.942 370.145 239.915 369.416L195.514 337.879L145.095 358.536C143.906 359.008 142.575 358.654 141.777 357.666C140.985 356.677 140.961 355.28 141.691 354.245L173.23 309.823L152.576 259.423C152.096 258.252 152.442 256.899 153.45 256.111C154.441 255.327 155.842 255.285 156.878 256.014L201.272 287.549L251.7 266.9C252.88 266.424 254.207 266.776 255.008 267.767C255.808 268.755 255.824 270.157 255.093 271.188L223.552 315.61L244.217 366.008Z" fill="#C22033"/>
<path d="M360.884 127.099L324.242 129.811L306.937 162.201C306.358 163.319 305.086 163.914 303.837 163.645C302.593 163.384 301.694 162.33 301.582 161.064L298.871 124.446L266.472 107.125C265.354 106.523 264.769 105.265 265.026 104.018C265.285 102.782 266.336 101.858 267.608 101.772L304.248 99.0616L321.556 66.6698C322.139 65.5499 323.409 64.9584 324.653 65.2286C325.901 65.4867 326.799 66.5394 326.909 67.8085L329.624 104.427L362.021 121.745C363.141 122.348 363.72 123.606 363.469 124.854C363.207 126.091 362.153 127.014 360.884 127.099Z" fill="#C22033"/>
<path d="M128.925 90.4722L130.042 110.825C130.102 112.081 129.327 113.242 128.125 113.662C126.944 114.082 125.607 113.662 124.883 112.629L113.057 96.042L92.6703 97.1484C91.3999 97.2237 90.237 96.448 89.8337 95.2461C89.4048 94.0523 89.8337 92.7187 90.8622 91.9887L107.461 80.1499L106.366 59.7784C106.307 58.52 107.081 57.3585 108.261 56.9403C109.464 56.5222 110.797 56.9403 111.528 57.9728L123.376 74.5828L143.717 73.475C144.986 73.4011 146.148 74.1862 146.55 75.3787C146.988 76.5725 146.55 77.9048 145.525 78.6375L128.925 90.4722Z" fill="#C22033"/>
</g>
<defs>
<clipPath id="clip0_72_900">
<rect width="655" height="655" fill="white" transform="matrix(-1 0 0 1 655 0)"/>
</clipPath>
</defs>
</svg>
