<svg width="116" height="116" viewBox="0 0 116 116" fill="none" xmlns="http://www.w3.org/2000/svg">
<rect width="116" height="116" rx="25" transform="matrix(-1 0 0 1 116 0)" fill="#221E1F"/>
<path d="M55.9999 81.6849C59.3232 78.8502 62.4036 75.7425 65.2089 72.3943C69.4188 67.3662 74.418 59.8779 74.418 52.7422C74.4198 49.098 73.3405 45.5351 71.3166 42.5045C69.2928 39.4739 66.4154 37.1118 63.0486 35.7171C59.6818 34.3224 55.9769 33.9579 52.4028 34.6696C48.8287 35.3814 45.5461 37.1374 42.9704 39.7154C41.2556 41.4226 39.8963 43.4531 38.9714 45.6891C38.0464 47.9251 37.5741 50.3224 37.5818 52.7422C37.5818 59.8779 42.581 67.3662 46.7909 72.3943C49.5962 75.7425 52.6766 78.8502 55.9999 81.6849ZM55.9999 44.8488C58.0934 44.8488 60.1011 45.6804 61.5814 47.1607C63.0617 48.641 63.8934 50.6488 63.8934 52.7422C63.8934 54.8357 63.0617 56.8434 61.5814 58.3237C60.1011 59.8041 58.0934 60.6357 55.9999 60.6357C53.9064 60.6357 51.8987 59.8041 50.4184 58.3237C48.9381 56.8434 48.1065 54.8357 48.1065 52.7422C48.1065 50.6488 48.9381 48.641 50.4184 47.1607C51.8987 45.6804 53.9064 44.8488 55.9999 44.8488Z" fill="white"/>
</svg>
