<svg width="60" height="60" viewBox="0 0 60 60" fill="none" xmlns="http://www.w3.org/2000/svg">
<path d="M30 0C23.3673 0 0 2.30769 0 25.3846V34.6153V36.923C0 40.423 1.81145 42.915 3.65945 44.2833C4.78624 45.1175 5.25788 45.1306 6.01385 45.383C6.99828 47.5357 13.2677 59.8256 29.6857 59.9864C29.7901 59.996 29.895 60.0005 30 59.9999C30.1085 60.0008 30.217 59.9963 30.3249 59.9864C46.7348 59.8203 53.0019 47.5352 53.9861 45.383C54.7421 45.1306 55.2138 45.1175 56.3405 44.2833C58.1885 42.915 60 40.423 60 36.923V32.3076V25.3846C60 16.1538 54.5455 4.61538 43.6364 4.61538C43.6364 4.61538 40.9091 0 30 0ZM43.6364 13.8461C43.6364 13.8461 51.8182 20.2153 51.8182 34.6153H54.5455V36.923C54.5455 39.1922 53.6296 40.1617 52.7504 40.8127C51.8711 41.4637 51.1577 41.606 51.1577 41.606L49.7035 41.9125L49.2294 43.1159C49.2294 43.1159 44.5455 55.3845 30 55.3845C15.4545 55.3845 10.7706 43.1159 10.7706 43.1159L10.2965 41.9125L8.84233 41.606C8.84233 41.606 8.12892 41.4637 7.24964 40.8127C6.37037 40.1617 5.45455 39.1922 5.45455 36.923V34.6153H8.18182C8.18182 18.4615 35.4545 29.9999 43.6364 13.8461ZM17.7273 32.3076C16.6423 32.3076 15.6018 32.6723 14.8346 33.3215C14.0674 33.9706 13.6364 34.8511 13.6364 35.7692C13.6364 36.6872 14.0674 37.5677 14.8346 38.2168C15.6018 38.866 16.6423 39.2307 17.7273 39.2307C18.8122 39.2307 19.8528 38.866 20.62 38.2168C21.3872 37.5677 21.8182 36.6872 21.8182 35.7692C21.8182 34.8511 21.3872 33.9706 20.62 33.3215C19.8528 32.6723 18.8122 32.3076 17.7273 32.3076ZM42.2727 32.3076C41.1877 32.3076 40.1472 32.6723 39.38 33.3215C38.6128 33.9706 38.1818 34.8511 38.1818 35.7692C38.1818 36.6872 38.6128 37.5677 39.38 38.2168C40.1472 38.866 41.1877 39.2307 42.2727 39.2307C43.3577 39.2307 44.3982 38.866 45.1654 38.2168C45.9326 37.5677 46.3636 36.6872 46.3636 35.7692C46.3636 34.8511 45.9326 33.9706 45.1654 33.3215C44.3982 32.6723 43.3577 32.3076 42.2727 32.3076Z" fill="#EEE2E3"/>
</svg>
