<svg width="969" height="970" viewBox="0 0 969 970" fill="none" xmlns="http://www.w3.org/2000/svg">
<path d="M405.178 622.884L470.659 736.301V831.093C470.659 838.938 477.017 845.298 484.864 845.298C492.711 845.298 499.069 838.938 499.069 831.093V736.301L564.55 622.884H695.512L777.606 670.28C779.845 671.572 782.286 672.185 784.695 672.185C789.604 672.185 794.379 669.636 797.01 665.081C800.932 658.287 798.605 649.599 791.811 645.677L709.717 598.281L644.236 484.863L709.719 371.441C709.732 371.433 791.809 324.049 791.809 324.049C798.603 320.127 800.93 311.439 797.008 304.645C793.084 297.85 784.394 295.522 777.604 299.446C777.604 299.446 695.528 346.836 695.516 346.842H564.548L499.067 233.425V138.635C499.067 130.79 492.709 124.43 484.862 124.43C477.015 124.43 470.657 130.79 470.657 138.635V233.427L405.176 346.844H274.213L192.12 299.448C185.322 295.524 176.637 297.854 172.716 304.647C168.794 311.441 171.121 320.129 177.915 324.051L260.008 371.447L325.492 484.863L260.01 598.281L177.917 645.677C171.123 649.599 168.795 658.287 172.718 665.081C175.349 669.638 180.123 672.185 185.033 672.185C187.442 672.185 189.887 671.572 192.122 670.28L274.215 622.884H405.178ZM484.864 704.084L437.984 622.883H531.746L484.864 704.084ZM484.864 531.454C459.176 531.454 438.273 510.553 438.273 484.863C438.273 459.173 459.174 438.273 484.864 438.273C510.554 438.273 531.452 459.173 531.452 484.863C531.452 510.553 510.552 531.454 484.864 531.454ZM418.655 520.05C396.681 512.034 377.008 500.091 361.347 484.854C377.012 469.622 396.685 457.684 418.657 449.673C413.053 460.175 409.863 472.152 409.863 484.863C409.863 497.574 413.051 509.549 418.655 520.05ZM551.069 449.673C573.043 457.684 592.716 469.622 608.379 484.854C592.718 500.091 573.045 512.036 551.07 520.05C556.673 509.549 559.862 497.574 559.862 484.863C559.862 472.151 556.673 460.173 551.069 449.673ZM484.864 409.726C450.764 409.726 417.786 417.416 389.172 431.386L421.58 375.254H548.148L580.556 431.386C551.942 417.414 518.963 409.726 484.864 409.726ZM484.864 560C518.967 560 551.947 552.308 580.56 538.333L548.148 594.473H421.58L389.168 538.333C417.78 552.308 450.76 560 484.864 560ZM674.714 594.474H580.952L627.832 513.273L674.714 594.474ZM674.714 375.252L627.832 456.453L580.95 375.252H674.714ZM484.864 265.642L531.744 346.844H437.982L484.864 265.642ZM388.774 375.252L341.894 456.453L295.011 375.252H388.774ZM341.894 513.273L388.776 594.474H295.013L341.894 513.273Z" fill="#C22033"/>
<path d="M955.567 496.699C947.688 496.271 941.037 502.277 940.61 510.11C927.434 751.908 727.244 941.317 484.863 941.317C233.174 941.317 28.41 736.553 28.41 484.863C28.41 233.174 233.174 28.41 484.863 28.41C725.668 28.41 925.773 216.507 940.421 456.631C940.898 464.461 947.643 470.444 955.465 469.944C963.295 469.467 969.255 462.732 968.778 454.902C953.217 199.817 740.653 0 484.863 0C355.352 0 233.592 50.4353 142.012 142.012C50.4353 233.592 0 355.352 0 484.863C0 614.375 50.4353 736.134 142.012 827.715C233.592 919.293 355.352 969.727 484.863 969.727C742.332 969.727 954.982 768.518 968.979 511.656C969.405 503.822 963.401 497.125 955.567 496.699Z" fill="#C22033"/>
<path d="M211.772 796.918C287.344 863.104 384.328 899.554 484.864 899.554C595.63 899.554 699.77 856.418 778.094 778.094C856.419 699.77 899.554 595.632 899.554 484.863C899.554 378.782 859.521 277.849 786.831 200.658C714.464 123.809 616.764 77.7845 511.73 71.0608C503.866 70.557 497.148 76.5004 496.646 84.3302C496.144 92.1599 502.086 98.912 509.914 99.4139C712.473 112.376 871.144 281.688 871.144 484.863C871.144 697.858 697.859 871.144 484.864 871.144C391.221 871.144 300.881 837.192 230.49 775.545C224.591 770.376 215.615 770.969 210.446 776.872C205.276 782.774 205.87 791.75 211.772 796.918Z" fill="#C22033"/>
<path d="M469.874 84.419C469.311 76.5949 462.525 70.7121 454.686 71.2709C350.374 78.7768 253.469 125.129 181.825 201.786C109.823 278.826 70.1699 379.358 70.1699 484.863C70.1699 584.698 106.158 681.165 171.506 756.489C174.315 759.726 178.266 761.385 182.242 761.385C185.541 761.385 188.855 760.241 191.545 757.909C197.471 752.769 198.108 743.797 192.965 737.871C132.102 667.713 98.5799 577.86 98.5799 484.863C98.5799 283.285 255.895 114.06 456.724 99.607C464.549 99.0444 470.436 92.245 469.874 84.419Z" fill="#C22033"/>
<path d="M391.574 136.711C383.996 138.741 379.5 146.531 381.531 154.109L389.099 182.353C390.798 188.699 396.539 192.885 402.81 192.885C404.027 192.885 405.264 192.728 406.495 192.398C414.073 190.368 418.57 182.578 416.539 175L408.971 146.757C406.942 139.175 399.154 134.679 391.574 136.711Z" fill="#C22033"/>
<path d="M563.229 777.331C555.651 779.361 551.154 787.151 553.185 794.729L560.753 822.972C562.452 829.319 568.193 833.505 574.464 833.505C575.682 833.505 576.919 833.348 578.15 833.016C585.727 830.986 590.224 823.196 588.193 815.618L580.625 787.375C578.595 779.797 570.812 775.306 563.229 777.331Z" fill="#C22033"/>
<path d="M304.646 172.717C297.853 176.64 295.525 185.328 299.447 192.121L314.067 217.442C316.7 221.999 321.473 224.547 326.382 224.547C328.791 224.547 331.236 223.933 333.471 222.641C340.265 218.719 342.593 210.031 338.67 203.237L324.05 177.916C320.128 171.123 311.436 168.795 304.646 172.717Z" fill="#C22033"/>
<path d="M636.254 747.084C629.461 751.006 627.133 759.694 631.055 766.488L645.675 791.809C648.308 796.366 653.081 798.913 657.99 798.913C660.399 798.913 662.844 798.299 665.079 797.008C671.873 793.085 674.201 784.397 670.278 777.604L655.658 752.283C651.736 745.489 643.044 743.161 636.254 747.084Z" fill="#C22033"/>
<path d="M229.996 229.998C224.449 235.545 224.449 244.54 229.996 250.085L250.671 270.76C253.446 273.533 257.082 274.921 260.717 274.921C264.351 274.921 267.988 273.535 270.762 270.76C276.31 265.213 276.31 256.218 270.762 250.672L250.088 229.998C244.538 224.45 235.546 224.45 229.996 229.998Z" fill="#C22033"/>
<path d="M698.965 698.965C693.417 704.512 693.417 713.507 698.965 719.053L719.64 739.728C722.414 742.5 726.051 743.889 729.685 743.889C733.32 743.889 736.957 742.502 739.731 739.728C745.279 734.18 745.279 725.185 739.731 719.64L719.056 698.965C713.505 693.419 704.512 693.419 698.965 698.965Z" fill="#C22033"/>
<path d="M182.351 389.099L154.109 381.531C146.532 379.506 138.742 383.997 136.711 391.574C134.681 399.152 139.177 406.942 146.755 408.973L174.996 416.541C176.228 416.871 177.466 417.028 178.682 417.028C184.955 417.028 190.694 412.842 192.393 406.495C194.425 398.919 189.929 391.129 182.351 389.099Z" fill="#C22033"/>
<path d="M822.971 560.752L794.729 553.183C787.151 551.157 779.361 555.651 777.331 563.227C775.3 570.805 779.797 578.595 787.375 580.626L815.616 588.194C816.847 588.524 818.086 588.681 819.302 588.681C825.575 588.681 831.314 584.495 833.012 578.148C835.045 570.572 830.548 562.784 822.971 560.752Z" fill="#C22033"/>
<path d="M566.915 192.883C573.188 192.883 578.927 188.697 580.626 182.35L588.194 154.107C590.225 146.529 585.728 138.739 578.151 136.709C570.571 134.677 562.783 139.175 560.752 146.753L553.184 174.996C551.153 182.574 555.65 190.364 563.228 192.394C564.461 192.724 565.697 192.883 566.915 192.883Z" fill="#C22033"/>
<path d="M389.099 787.376L381.531 815.619C379.5 823.197 383.996 830.987 391.574 833.017C392.805 833.347 394.044 833.506 395.26 833.506C401.533 833.506 407.272 829.32 408.971 822.973L416.539 794.73C418.57 787.152 414.073 779.362 406.495 777.332C398.916 775.305 391.127 779.798 389.099 787.376Z" fill="#C22033"/>
<path d="M643.344 224.549C648.253 224.549 653.028 222.002 655.658 217.445L670.278 192.124C674.201 185.33 671.873 176.642 665.079 172.72C658.28 168.796 649.596 171.123 645.675 177.919L631.055 203.24C627.133 210.034 629.461 218.721 636.254 222.644C638.493 223.936 640.934 224.549 643.344 224.549Z" fill="#C22033"/>
<path d="M314.067 752.283L299.447 777.604C295.525 784.398 297.853 793.085 304.646 797.008C306.885 798.3 309.327 798.913 311.736 798.913C316.645 798.913 321.42 796.366 324.05 791.809L338.67 766.488C342.593 759.694 340.265 751.006 333.471 747.084C326.672 743.16 317.988 745.487 314.067 752.283Z" fill="#C22033"/>
<path d="M709.009 274.921C712.643 274.921 716.28 273.535 719.054 270.76L739.729 250.085C745.277 244.538 745.277 235.543 739.729 229.998C734.18 224.45 725.187 224.45 719.64 229.998L698.965 250.672C693.417 256.22 693.417 265.215 698.965 270.76C701.738 273.535 705.374 274.921 709.009 274.921Z" fill="#C22033"/>
<path d="M250.671 698.965L229.996 719.64C224.449 725.187 224.449 734.182 229.996 739.728C232.771 742.5 236.407 743.889 240.042 743.889C243.676 743.889 247.313 742.502 250.088 739.728L270.762 719.053C276.31 713.505 276.31 704.511 270.762 698.965C265.213 693.419 256.22 693.419 250.671 698.965Z" fill="#C22033"/>
<path d="M815.616 381.53L787.375 389.099C779.797 391.129 775.3 398.919 777.331 406.497C779.03 412.844 784.77 417.029 791.041 417.029C792.259 417.029 793.496 416.872 794.727 416.543L822.969 408.974C830.546 406.944 835.043 399.154 833.012 391.576C830.986 383.998 823.196 379.507 815.616 381.53Z" fill="#C22033"/>
<path d="M150.424 588.683C151.642 588.683 152.878 588.526 154.109 588.196L182.351 580.628C189.929 578.597 194.425 570.807 192.395 563.229C190.366 555.653 182.576 551.157 174.996 553.186L146.755 560.754C139.177 562.784 134.681 570.574 136.711 578.152C138.412 584.497 144.151 588.683 150.424 588.683Z" fill="#C22033"/>
<path d="M845.297 484.864C845.297 477.019 838.939 470.659 831.092 470.659H801.852C794.006 470.659 787.647 477.019 787.647 484.864C787.647 492.709 794.006 499.069 801.852 499.069H831.092C838.939 499.069 845.297 492.709 845.297 484.864Z" fill="#C22033"/>
<path d="M182.075 484.864C182.075 477.019 175.717 470.659 167.87 470.659H138.633C130.786 470.659 124.428 477.019 124.428 484.864C124.428 492.709 130.786 499.069 138.633 499.069H167.872C175.717 499.069 182.075 492.709 182.075 484.864Z" fill="#C22033"/>
</svg>
