<svg width="166" height="166" viewBox="0 0 166 166" fill="none" xmlns="http://www.w3.org/2000/svg">
<g filter="url(#filter0_d_71_830)">
<circle cx="80" cy="79" r="53" stroke="#C22033" stroke-width="10"/>
<path d="M71.64 86.408C71.64 84.2 72.264 82.256 73.512 80.576C74.76 78.848 76.8 77.336 79.632 76.04L85.248 73.52C86.448 72.944 87.36 72.296 87.984 71.576C88.608 70.808 88.92 69.968 88.92 69.056C88.92 67.232 88.128 65.816 86.544 64.808C84.96 63.752 82.68 63.224 79.704 63.224C76.632 63.224 74.184 63.896 72.36 65.24C70.584 66.536 69.528 68.336 69.192 70.64H55.152C55.536 64.736 57.888 60.128 62.208 56.816C66.576 53.504 72.408 51.848 79.704 51.848C87.048 51.848 92.76 53.312 96.84 56.24C100.968 59.12 103.032 63.2 103.032 68.48C103.032 71.072 102.312 73.4 100.872 75.464C99.432 77.528 97.248 79.232 94.32 80.576L88.2 83.456C87.096 83.984 86.256 84.584 85.68 85.256C85.104 85.928 84.816 86.768 84.816 87.776V88.928H72C71.856 88.448 71.76 88.016 71.712 87.632C71.664 87.2 71.64 86.792 71.64 86.408ZM78.264 107.72C75.816 107.72 73.824 107.024 72.288 105.632C70.8 104.24 70.056 102.416 70.056 100.16C70.056 97.856 70.8 96.008 72.288 94.616C73.824 93.224 75.816 92.528 78.264 92.528C80.712 92.528 82.68 93.224 84.168 94.616C85.656 96.008 86.4 97.856 86.4 100.16C86.4 102.416 85.656 104.24 84.168 105.632C82.68 107.024 80.712 107.72 78.264 107.72Z" fill="#C22033"/>
</g>
<defs>
<filter id="filter0_d_71_830" x="0" y="0" width="166" height="166" filterUnits="userSpaceOnUse" color-interpolation-filters="sRGB">
<feFlood flood-opacity="0" result="BackgroundImageFix"/>
<feColorMatrix in="SourceAlpha" type="matrix" values="0 0 0 0 0 0 0 0 0 0 0 0 0 0 0 0 0 0 127 0" result="hardAlpha"/>
<feOffset dx="3" dy="4"/>
<feGaussianBlur stdDeviation="12.5"/>
<feComposite in2="hardAlpha" operator="out"/>
<feColorMatrix type="matrix" values="0 0 0 0 0.760784 0 0 0 0 0.12549 0 0 0 0 0.2 0 0 0 1 0"/>
<feBlend mode="normal" in2="BackgroundImageFix" result="effect1_dropShadow_71_830"/>
<feBlend mode="normal" in="SourceGraphic" in2="effect1_dropShadow_71_830" result="shape"/>
</filter>
</defs>
</svg>
