<svg width="1481" height="1629" viewBox="0 0 1481 1629" fill="none" xmlns="http://www.w3.org/2000/svg">
<path d="M1486.07 1.70349C1482.97 2.6593 1480.1 3.85413 1479.62 4.33203C1479.14 4.92944 1474.84 5.28784 1470.18 5.28784C1463.97 5.28784 1461.1 5.76575 1460.03 7.08008C1459.19 8.03589 1457.04 8.87219 1455.13 8.87219C1452.86 8.87219 1451.66 9.4696 1451.66 10.6644C1451.66 11.6202 1450.71 12.4565 1449.51 12.4565C1448.32 12.4565 1446.41 13.1735 1445.09 14.1293C1443.78 14.9657 1440.67 16.3994 1438.28 17.1162C1435.77 17.9526 1433.74 19.1473 1433.74 19.7448C1433.74 20.3422 1430.99 20.8201 1427.65 20.8201C1423.94 20.8201 1420.96 21.537 1419.88 22.6123C1418.81 23.5681 1416.66 24.4044 1414.98 24.4044C1413.31 24.4044 1410.68 25.4797 1409.01 26.7939C1407.34 28.1083 1405.31 29.1836 1404.59 29.1836C1403.87 29.1836 1401.48 30.7368 1399.33 32.7679C1397.18 34.6796 1394.31 36.3523 1393 36.3523C1391.8 36.3523 1390.73 37.1886 1390.73 38.1444C1390.73 39.1003 1390.25 39.9366 1389.53 39.9366C1388.94 39.9366 1387.5 40.8925 1386.31 42.0873C1385.11 43.4015 1382.25 45.3131 1379.98 46.6274C1377.71 47.8223 1375.32 49.6144 1374.84 50.3313C1374.36 51.1676 1372.57 51.8845 1370.9 51.8845C1369.1 51.8845 1366.12 52.6013 1364.09 53.5571C1361.93 54.5131 1358.35 55.5883 1355.84 55.9468C1353.45 56.4247 1351.18 57.5 1350.82 58.4558C1350.46 59.4116 1349.15 60.2479 1347.96 60.2479C1346.64 60.2479 1344.97 61.0844 1344.13 62.0402C1343.3 62.996 1340.91 63.8323 1338.88 63.8323C1336.84 63.8323 1333.02 64.6687 1330.39 65.6245C1327.76 66.5803 1323.82 67.2972 1321.79 67.4166C1319.64 67.4166 1317.85 67.8945 1317.85 68.4919C1317.85 69.0894 1315.34 70.4037 1312.35 71.479C1307.45 73.1516 1301.12 78.4087 1301.12 80.7982C1301.12 81.3956 1300.28 81.7542 1299.33 81.7542C1298.37 81.7542 1297.54 82.4709 1297.54 83.4268C1297.54 84.3826 1295.98 85.4579 1294.07 85.9358C1292.16 86.2943 1289.89 87.489 1289.05 88.4448C1288.34 89.4008 1285.71 90.1176 1283.32 90.1176C1280.81 90.1176 1277.82 90.954 1276.51 91.9098C1275.31 92.8656 1272.68 93.7019 1270.89 93.7019C1269.1 93.7019 1267.31 94.5383 1266.95 95.4941C1266.47 96.45 1265.28 97.2863 1264.2 97.2863C1263.13 97.2863 1260.26 98.3616 1257.75 99.6759C1255.36 100.99 1252.37 102.065 1251.18 102.065C1249.98 102.065 1247.95 102.902 1246.64 103.858C1245.44 104.813 1243.17 105.65 1241.86 105.65C1240.43 105.65 1238.99 106.486 1238.51 107.442C1238.16 108.398 1236.84 109.234 1235.65 109.234C1234.33 109.234 1232.66 109.951 1231.94 110.907C1231.11 111.863 1229.19 112.938 1227.64 113.296C1225.97 113.774 1224.65 114.85 1224.65 115.805C1224.65 116.761 1223.94 117.598 1222.98 117.598C1222.15 117.598 1220.71 118.434 1219.88 119.39C1219.04 120.346 1217.37 121.182 1216.05 121.182C1214.86 121.182 1213.54 122.018 1213.18 122.974C1212.71 123.93 1211.75 124.766 1210.79 124.766C1209.84 124.766 1209.12 125.364 1209.12 126.081C1209.12 126.678 1207.21 128.112 1204.94 129.068C1202.67 130.023 1200.76 131.338 1200.76 131.935C1200.76 132.652 1199.92 133.13 1198.97 133.13C1198.01 133.13 1197.17 133.966 1197.17 134.922C1197.17 135.997 1196.1 136.714 1194.31 136.714C1192.75 136.714 1190.84 137.551 1190.01 138.506C1189.17 139.462 1187.85 140.299 1187.14 140.299C1186.42 140.299 1183.79 141.374 1181.28 142.688C1178.89 144.002 1175.91 145.078 1174.71 145.078C1173.64 145.078 1169.93 147.587 1166.71 150.574C1159.9 156.906 1153.21 160.61 1148.79 160.61C1147.11 160.61 1145.8 161.088 1145.8 161.685C1145.8 162.283 1144.48 163.119 1142.81 163.477C1141.14 163.955 1139.82 164.792 1139.82 165.389C1139.82 166.106 1138.99 166.584 1138.03 166.584C1137.08 166.584 1136.24 167.42 1136.24 168.376C1136.24 169.332 1135.76 170.168 1135.16 170.168C1134.57 170.168 1132.89 172.08 1131.34 174.35C1129.79 176.62 1127.52 178.532 1126.44 178.532C1125.25 178.532 1124.29 179.368 1124.29 180.324C1124.29 181.28 1123.46 182.116 1122.5 182.116C1121.42 182.116 1120.35 182.833 1119.99 183.789C1119.63 184.745 1117.72 185.939 1115.81 186.298C1113.9 186.776 1112.34 187.851 1112.34 188.807C1112.34 189.763 1111.51 190.479 1110.55 190.479C1109.6 190.479 1108.76 191.316 1108.76 192.272C1108.76 193.227 1108.04 194.064 1107.09 194.064C1105.41 194.064 1102.19 196.453 1095.5 202.666C1093.59 204.578 1091.44 206.012 1090.96 206.012C1090.36 206.012 1089.64 206.848 1089.17 207.804C1088.81 208.76 1087.01 209.596 1085.1 209.596C1083.31 209.596 1080.68 210.432 1079.37 211.388C1078.17 212.344 1075.9 213.18 1074.47 213.18C1073.04 213.18 1071.36 214.017 1070.77 215.092C1069.81 216.884 1066.58 219.035 1061.57 221.424C1060.13 222.022 1057.26 224.531 1054.88 227.04C1048.54 234.089 1041.25 239.466 1038.03 239.466C1036.36 239.466 1034.09 240.541 1032.89 241.855C1031.7 243.169 1030.02 244.245 1029.07 244.245C1028.23 244.245 1027.51 245.081 1027.51 246.037C1027.51 246.993 1026.44 247.829 1025.24 247.829C1023.93 247.829 1022.14 248.666 1021.06 249.621C1020.11 250.577 1018.79 251.413 1018.2 251.413C1017.48 251.413 1016.76 252.25 1016.28 253.206C1015.93 254.161 1016.16 254.998 1016.88 254.998C1019.51 254.998 1023.93 260.374 1023.93 263.6C1023.93 266.587 1023.45 266.946 1019.87 266.946C1017.36 266.946 1015.57 267.663 1015.09 268.738C1014.73 269.813 1012.94 270.53 1011.03 270.53C1009.11 270.53 1006.13 271.605 1004.46 272.92C1002.42 274.473 999.676 275.309 996.092 275.309C992.388 275.309 990.476 275.907 989.998 277.101C989.521 278.416 987.489 278.894 982.83 278.894C978.17 278.894 976.258 279.371 975.661 280.686C975.303 281.641 973.869 282.478 972.555 282.478C971.24 282.478 970.165 282.956 970.165 283.673C970.165 284.867 961.085 294.426 960.009 294.426C959.651 294.426 957.142 296.815 954.274 299.802C949.495 304.581 948.42 305.179 943.641 305.179C940.654 305.179 936.472 305.537 934.441 305.896C931.096 306.613 930.737 307.09 930.737 311.153C930.737 314.02 930.14 315.932 928.945 316.41C927.989 316.768 927.153 318.56 927.153 320.472C927.153 322.264 926.316 324.893 925.361 326.207C924.285 327.641 923.688 331.225 923.568 335.765C923.568 344.846 920.701 348.191 913.054 348.191C909.589 348.191 907.678 348.788 907.319 349.983C906.841 351.178 904.93 351.775 902.062 351.775C899.553 351.775 896.925 352.612 896.088 353.568C895.252 354.523 893.101 355.36 891.19 355.36C889.398 355.36 887.128 356.077 886.291 356.913C885.455 357.749 883.304 359.064 881.512 359.78C879.6 360.617 878.167 361.812 878.167 362.528C878.167 363.126 877.45 363.723 876.494 363.723C875.538 363.723 874.582 364.56 874.104 365.515C873.746 366.471 872.671 367.308 871.595 367.308C870.639 367.308 869.803 367.905 869.803 368.502C869.803 370.414 863.471 375.552 861.081 375.671C859.886 375.671 858.692 376.507 858.333 377.463C857.855 378.419 856.899 379.255 855.944 379.255C854.988 379.255 854.271 379.733 854.271 380.331C854.271 380.928 851.642 383.079 848.297 385.229C845.071 387.38 842.323 389.531 842.323 390.128C842.323 390.725 841.487 391.203 840.531 391.203C839.575 391.203 838.739 391.681 838.739 392.279C838.739 393.593 824.043 409.125 822.729 409.125C821.175 409.125 816.038 415.457 815.321 418.325C814.843 419.878 814.246 421.073 813.768 421.073C813.409 421.073 812.334 422.507 811.498 424.299C809.586 428.48 802.537 433.021 797.997 433.021C795.965 433.021 794.173 433.738 793.815 434.813C793.337 435.769 792.023 436.605 790.828 436.605C789.155 436.605 788.558 437.441 788.558 439.592C788.558 441.265 787.721 442.937 786.766 443.296C785.81 443.774 784.973 445.088 784.973 446.283C784.973 447.478 784.137 448.553 783.181 448.553C782.225 448.553 781.389 449.27 781.389 449.987C781.389 450.823 779.477 452.854 777.207 454.527C774.937 456.2 773.026 458.231 773.026 458.948C773.026 459.784 772.189 460.501 771.233 460.501C770.278 460.501 769.441 461.337 769.441 462.293C769.441 463.249 768.724 464.085 767.888 464.085C766.932 464.085 765.618 465.399 764.901 467.072C764.184 468.745 762.989 470.059 762.273 470.059C761.675 470.059 761.078 470.895 761.078 471.851C761.078 473.763 757.016 478.422 755.223 478.422C754.626 478.422 753.909 479.259 753.431 480.215C753.073 481.171 752.117 482.007 751.281 482.007C750.444 482.007 745.665 485.83 740.766 490.49C735.868 495.15 729.057 500.885 725.593 503.155C722.128 505.425 719.26 507.814 719.26 508.412C719.26 509.009 718.424 509.487 717.468 509.487C716.512 509.487 715.676 510.323 715.676 511.279C715.676 512.235 714.84 513.071 713.884 513.071C712.928 513.071 712.092 514.147 712.092 515.461C712.092 516.775 711.494 517.85 710.897 517.85C710.18 517.85 708.029 519.523 706.118 521.435C704.206 523.346 702.055 525.019 701.339 525.019C700.741 525.019 700.144 525.616 700.144 526.214C700.144 526.931 698.471 529.081 696.559 530.993C694.648 532.905 692.975 535.294 692.975 536.37C692.975 537.325 691.9 539.237 690.585 540.551C689.271 541.866 688.196 544.255 688.196 545.928C688.196 547.601 687.599 548.915 687.001 548.915C686.284 548.915 684.492 549.99 683.058 551.424C681.625 552.738 678.638 554.65 676.607 555.725C674.456 556.681 672.664 558.354 672.664 559.19C672.664 560.146 671.827 560.863 670.872 560.863C669.796 560.863 669.079 561.938 669.079 563.85C669.079 565.522 668.601 566.837 668.124 566.837C667.526 566.837 666.451 568.151 665.615 569.704C663.942 572.691 655.578 578.784 653.069 578.784C649.843 578.784 627.262 602.919 627.262 606.384C627.262 607.698 626.426 609.012 625.47 609.371C624.514 609.849 623.678 611.402 623.678 612.955C623.678 614.508 622.602 616.779 621.288 617.854C619.974 619.049 618.898 620.96 618.898 622.155C618.898 623.23 618.062 624.545 617.106 624.903C616.15 625.381 615.314 626.456 615.314 627.293C615.314 628.248 614.478 629.324 613.522 629.682C612.566 630.16 611.73 631.713 611.73 633.267C611.73 634.82 611.132 636.134 610.535 636.134C609.818 636.134 607.548 637.926 605.517 639.957C603.366 642.108 599.543 645.334 596.795 647.007C592.135 649.994 576.603 664.689 569.673 672.933C567.881 674.965 566.089 677.952 565.611 679.624C565.253 681.297 564.058 682.97 562.982 683.328C561.788 683.567 559.876 685.479 558.562 687.51C557.247 689.421 555.814 691.094 555.336 691.094C554.738 691.094 554.38 691.93 554.38 692.886C554.38 693.842 553.902 694.678 553.305 694.678C552.707 694.678 551.871 695.754 551.393 696.949C550.796 699.099 547.211 703.042 539.087 710.689C536.458 713.078 535.144 715.707 534.547 719.291C534.188 722.159 533.113 725.146 532.157 725.862C531.201 726.579 530.484 728.491 530.484 730.044C530.484 731.836 529.767 732.912 528.692 732.912C527.736 732.912 526.9 733.748 526.9 734.704C526.9 735.66 526.183 736.496 525.347 736.496C524.51 736.496 523.196 738.049 522.479 740.08C521.643 742.231 519.97 743.904 518.059 744.382C516.386 744.74 514.952 745.815 514.952 746.771C514.952 747.727 513.757 748.444 512.085 748.444C510.531 748.444 508.62 749.28 507.783 750.236C506.947 751.192 505.513 752.028 504.677 752.028C503.602 752.028 503.004 753.462 503.004 756.09C503.004 758.599 502.287 760.392 501.212 760.87C500.256 761.228 499.42 762.662 499.42 764.095C499.42 766.604 492.012 774.849 488.547 776.163C486.038 777.119 481.498 786.438 480.662 792.412C480.064 796.594 479.348 797.908 476.839 798.983C472.896 800.775 468.595 804.36 458.439 814.515C451.629 821.326 450.075 823.596 449.478 827.539C449.239 830.167 448.164 832.557 447.327 832.915C446.372 833.273 445.655 835.066 445.655 836.858C445.655 838.65 444.938 840.442 443.982 840.801C443.026 841.159 441.951 843.071 441.473 845.102C440.995 847.133 440.159 848.806 439.561 848.806C438.964 848.806 438.486 849.642 438.486 850.598C438.486 851.554 437.411 852.39 436.096 852.39C434.782 852.39 433.707 853.107 433.707 854.063C433.707 855.019 432.034 856.094 430.122 856.572C428.091 857.05 426.538 858.125 426.538 859.081C426.538 860.037 425.821 860.754 424.865 860.754C422.237 860.754 421.759 863.502 421.759 877.481C421.759 891.818 421.759 891.818 412.559 891.818C410.409 891.818 408.616 892.296 408.616 892.774C408.616 893.371 407.302 894.566 405.629 895.402C403.957 896.239 402.642 897.433 402.642 897.911C402.642 899.465 396.191 906.155 394.637 906.155C393.801 906.155 393.084 906.753 393.084 907.35C393.084 908.067 390.456 909.979 387.11 911.89C383.884 913.682 381.136 915.714 381.136 916.43C381.136 917.028 380.061 918.82 378.747 920.254C377.432 921.688 376.357 923.36 376.357 923.958C376.357 924.674 375.64 925.63 374.804 926.108C373.848 926.586 372.773 929.215 372.414 931.843C371.936 934.472 371.1 936.742 370.383 936.981C369.786 937.22 369.188 939.729 369.188 942.596C369.188 945.703 368.591 948.212 367.635 948.809C365.963 949.765 362.856 954.903 361.303 958.965C360.944 960.16 359.75 961.115 358.913 961.115C357.838 961.115 357.241 962.43 357.241 964.7C357.241 966.85 356.524 968.643 355.448 969.001C354.493 969.479 353.656 970.674 353.656 971.749C353.537 973.422 348.519 980.232 347.324 980.232C345.89 980.232 336.929 990.029 336.929 991.582C336.929 992.658 336.093 993.733 335.137 994.091C333.942 994.569 333.345 996.601 333.345 1000.42C333.345 1003.53 332.509 1007.11 331.553 1008.43C330.597 1009.62 329.761 1013.21 329.761 1016.31V1022.05H325.579C322.711 1022.05 321.397 1021.45 321.397 1020.26C321.397 1019.18 320.322 1018.47 318.41 1018.47C316.14 1018.47 315.304 1019.18 314.706 1021.69C314.348 1023.6 313.512 1026.11 313.034 1027.43C312.436 1028.74 311.122 1031.73 310.286 1034C309.33 1036.27 307.418 1039.25 306.104 1040.69C304.79 1042 303.356 1044.15 302.997 1045.47C302.52 1046.66 299.055 1050.13 295.112 1053.11C290.452 1056.7 288.063 1059.33 287.943 1061C287.943 1062.43 287.107 1063.87 286.151 1064.34C285.076 1064.7 284.359 1066.5 284.359 1068.88C284.359 1071.16 283.642 1073.9 282.686 1075.22C281.85 1076.53 280.894 1080.35 280.535 1083.82C280.177 1087.28 279.102 1090.87 278.026 1091.94C276.832 1093.02 275.995 1094.93 275.995 1096.25C275.995 1097.44 275.159 1098.52 274.203 1098.52C273.247 1098.52 272.411 1099.59 272.411 1100.91C272.411 1102.22 271.575 1103.29 270.619 1103.29C269.663 1103.29 268.827 1104.13 268.827 1105.09C268.827 1106.04 268.229 1106.88 267.512 1106.88C265.84 1106.88 260.463 1112.49 260.463 1114.17C260.463 1114.76 259.627 1115.24 258.671 1115.24C257.715 1115.24 256.879 1116.08 256.879 1117.15C256.879 1118.23 254.967 1120.74 252.578 1122.77C244.214 1130.06 242.9 1131.37 241.227 1134.6C233.819 1149.06 232.266 1151.92 230.952 1153.24C230.116 1154.07 229.399 1155.63 229.399 1156.58C229.399 1157.54 228.921 1158.25 228.204 1158.25C227.607 1158.25 227.009 1159.57 227.009 1161.24C227.009 1162.91 226.531 1164.23 225.934 1164.23C225.456 1164.23 224.022 1166.74 222.827 1169.84C221.633 1173.07 220.318 1175.82 219.96 1176.18C219.601 1176.54 218.048 1179.28 216.495 1182.39C215.061 1185.5 213.269 1188.12 212.672 1188.36C211.955 1188.6 210.282 1193.62 208.848 1199.47C207.176 1206.52 205.145 1211.66 202.874 1214.53C201.082 1216.92 199.529 1219.55 199.529 1220.26C199.529 1220.98 198.932 1221.58 198.334 1221.58C197.617 1221.58 196.423 1223.01 195.586 1224.92C194.869 1226.72 193.555 1228.87 192.719 1229.7C191.882 1230.54 191.166 1232.57 191.166 1234.24C191.166 1236.04 190.449 1237.11 189.373 1237.11C188.418 1237.11 187.581 1238.07 187.581 1239.26C187.581 1240.46 186.148 1242.73 184.355 1244.4C177.306 1250.73 175.633 1254.32 175.633 1263.28C175.633 1268.65 175.155 1272 174.08 1272.6C173.244 1273.07 171.571 1275.7 170.257 1278.33C168.943 1280.96 165.836 1285.14 163.447 1287.65C158.906 1292.31 152.216 1301.75 147.078 1310.35C145.525 1312.98 143.016 1316.56 141.463 1318.24C139.909 1319.91 138.595 1321.94 138.595 1322.66C138.595 1323.25 137.639 1324.93 136.325 1326.24C135.13 1327.56 133.816 1330.66 133.338 1333.05C132.86 1335.44 132.024 1337.47 131.426 1337.47C130.709 1337.47 130.232 1340.94 130.232 1345.12C130.232 1350.38 129.634 1353.12 128.439 1354.2C127.484 1355.04 126.647 1356.95 126.647 1358.62C126.647 1361.37 122.943 1365.67 117.447 1369.37C114.938 1371.05 114.699 1372.24 114.699 1380.37V1389.68L106.933 1396.61C101.915 1401.27 99.1672 1404.62 99.1672 1406.29C99.1672 1407.73 98.4503 1409.16 97.4945 1409.52C96.6581 1409.88 95.5828 1412.5 95.2244 1415.25C94.866 1418.12 93.6712 1420.99 92.7153 1421.82C91.64 1422.54 90.8037 1423.5 90.8037 1423.86C90.8037 1424.33 88.892 1426.48 86.6219 1428.87C81.9623 1433.53 80.0506 1437.48 80.0506 1442.73C80.0506 1444.64 79.5727 1446.2 79.0948 1446.2C78.6169 1446.2 77.4221 1448.11 76.5858 1450.38C75.7494 1452.65 74.6741 1454.56 74.1962 1454.56C73.7183 1454.56 72.404 1456.83 71.3287 1459.7C70.1339 1462.45 68.4612 1466.27 67.5054 1468.06C66.5496 1469.97 65.7132 1472.96 65.7132 1474.87C65.7132 1480.13 63.8016 1484.07 58.5445 1489.45C55.5576 1492.56 53.7654 1495.66 53.7654 1497.57C53.6459 1499.25 52.929 1501.87 51.9732 1503.55C51.0174 1505.22 50.3005 1507.97 50.181 1509.64C50.181 1511.31 48.8668 1514.3 47.1941 1516.21C42.0565 1522.07 41.8175 1522.43 41.8175 1525.05C41.8175 1526.37 40.9812 1527.44 40.0254 1527.44C38.7111 1527.44 38.2332 1528.76 38.2332 1532.46C38.2332 1535.21 37.3968 1538.32 36.441 1539.39C35.1267 1540.82 34.4099 1544.65 34.1709 1552.06C33.8125 1559.94 33.2151 1562.93 31.7813 1564C30.706 1564.72 29.8697 1565.68 29.8697 1566.03C29.8697 1566.39 28.3165 1568.42 26.4048 1570.57C24.4932 1572.61 22.701 1575.71 22.3426 1577.5C22.1036 1579.18 20.7893 1583.12 19.5945 1586.23C18.0413 1590.17 17.8024 1592.32 18.6387 1593.16C20.3114 1594.83 35.8436 1580.13 35.8436 1576.91C35.8436 1575.59 36.68 1573.44 37.6358 1572.13C38.7111 1570.81 39.3085 1567.11 39.428 1562.93C39.428 1558.03 40.3838 1554.09 42.5344 1549.43C44.2071 1545.84 45.9993 1542.98 46.3577 1542.98C46.8356 1542.98 50.181 1540.35 53.7654 1537C57.3497 1533.78 60.9341 1531.03 61.7704 1531.03C62.6068 1531.03 63.3237 1530.31 63.3237 1529.47C63.3237 1528.64 64.8769 1526.61 66.908 1525.05C70.1339 1522.31 70.3729 1521.47 70.4924 1513.94C70.4924 1505.94 70.6118 1505.7 75.7494 1500.56C78.6169 1497.57 81.4844 1495.18 82.0818 1495.18C85.4272 1495.18 87.2193 1490.64 87.2193 1482.52V1474.16L91.7595 1471.65C98.5698 1467.7 106.336 1460.06 106.336 1457.19C106.336 1455.76 106.814 1454.56 107.411 1454.56C108.009 1454.56 109.203 1452.65 110.04 1450.38C110.876 1448.11 112.31 1446.2 113.146 1446.2C113.983 1446.2 114.699 1445.48 114.699 1444.64C114.699 1443.81 116.014 1441.78 117.567 1440.1C119.12 1438.43 120.793 1435.8 121.271 1434.13C121.749 1432.58 122.585 1431.02 123.063 1430.67C125.333 1428.99 132.621 1415.97 132.621 1413.46C132.621 1411.91 133.457 1410 134.413 1409.16C135.369 1408.32 136.206 1407.13 136.206 1406.41C136.206 1404.62 143.494 1398.41 145.525 1398.41C146.361 1398.41 147.317 1397.57 147.675 1396.61C148.153 1395.66 148.99 1394.82 149.587 1394.82C151.021 1394.82 163.686 1382.87 163.686 1381.44C163.686 1380.84 164.522 1379.53 165.478 1378.57C166.434 1377.5 167.27 1375.35 167.27 1373.67C167.27 1372 168.345 1369.37 169.659 1367.7C170.974 1366.03 172.049 1363.88 172.049 1363.04C172.049 1362.09 172.885 1361.37 173.841 1361.37C174.797 1361.37 175.633 1360.29 175.633 1359.1C175.633 1357.9 176.47 1356.59 177.426 1356.11C178.381 1355.75 179.218 1354.32 179.218 1352.89C179.218 1351.45 180.174 1350.14 181.607 1349.78C183.28 1349.3 183.997 1348.11 183.997 1345.72C183.997 1343.69 184.714 1341.89 185.789 1341.53C186.864 1341.06 187.581 1339.26 187.581 1337.35C187.581 1335.2 188.179 1333.89 189.254 1333.89C190.21 1333.89 191.166 1333.05 191.644 1332.1C192.002 1331.14 192.958 1330.3 193.794 1330.3C196.423 1330.3 202.755 1323.97 206.817 1317.16C208.968 1313.58 211.835 1309.63 213.269 1308.44C221.394 1301.27 228.323 1293.62 228.921 1291.23C229.399 1289.68 230.355 1288.49 231.191 1288.49C232.027 1288.49 233.103 1287.53 233.461 1286.34C235.014 1282.27 237.882 1277.73 241.347 1274.27C243.497 1272.24 244.931 1269.49 244.931 1267.7C244.931 1265.79 245.648 1264.59 246.723 1264.59C247.918 1264.59 248.515 1263.4 248.515 1261.13C248.515 1259.21 249.232 1257.06 250.188 1256.35C251.144 1255.51 252.219 1253.6 252.578 1252.05C253.055 1250.37 253.892 1249.06 254.489 1249.06C255.206 1249.06 256.281 1247.74 256.879 1246.07C257.476 1244.4 258.551 1243.08 259.268 1243.08C259.866 1243.08 260.463 1241.77 260.463 1240.1C260.463 1238.42 261.06 1237.11 261.658 1237.11C262.375 1237.11 264.525 1235.56 266.437 1233.53C268.349 1231.61 270.499 1229.94 271.216 1229.94C271.814 1229.94 272.411 1229.23 272.411 1228.39C272.411 1227.43 273.486 1226.24 274.681 1225.64C275.995 1225.04 279.46 1222.53 282.447 1219.91C287.943 1215.37 287.943 1215.37 287.943 1207.72C287.943 1203.54 288.421 1200.07 289.018 1200.07C289.616 1200.07 290.572 1199 290.93 1197.68C291.408 1196.25 292.722 1195.29 294.514 1195.29C295.948 1195.29 297.501 1194.46 297.979 1193.5C298.338 1192.43 300.13 1191.71 302.281 1191.71C304.67 1191.71 305.865 1191.11 305.865 1189.92C305.865 1188.96 306.701 1188.12 307.657 1188.12C308.613 1188.12 309.449 1187.53 309.449 1186.81C309.449 1186.09 311.361 1183.82 313.631 1181.67C316.26 1179.16 317.813 1176.54 317.813 1174.74C317.813 1173.07 318.649 1171.04 319.605 1170.2C320.561 1169.37 321.397 1166.98 321.397 1164.95C321.397 1161.12 326.415 1152.28 328.566 1152.28C329.283 1152.28 329.761 1151.44 329.761 1150.49C329.761 1149.53 330.597 1148.7 331.553 1148.7C332.509 1148.7 333.345 1148.1 333.345 1147.5C333.345 1145.35 339.797 1140.45 342.664 1140.33C344.217 1140.33 345.293 1139.62 345.293 1138.54C345.293 1137.59 346.01 1136.75 346.846 1136.75C347.682 1136.75 349.713 1135.43 351.506 1133.76C353.298 1132.09 355.09 1130.77 355.448 1130.77C355.807 1130.77 358.077 1128.74 360.228 1126.23C363.453 1122.77 364.409 1120.74 364.409 1117.27C364.409 1114.76 365.007 1111.66 365.724 1110.34C367.396 1107.24 371.22 1103.29 372.653 1103.29C377.552 1103.29 387.11 1092.06 387.11 1086.45C387.11 1085.13 387.947 1083.82 388.902 1083.46C389.858 1082.98 390.695 1082.03 390.695 1081.07C390.695 1080.12 391.531 1079.4 392.487 1079.4C393.443 1079.4 394.279 1078.68 394.279 1077.85C394.279 1077.13 395.593 1075.7 397.266 1074.86C398.939 1074.14 401.567 1072.71 403.24 1071.87C404.913 1071.16 406.227 1069.72 406.227 1068.88C406.227 1068.17 406.824 1067.45 407.422 1067.45C408.138 1067.45 410.767 1065.3 413.395 1062.67C417.099 1058.97 418.175 1056.94 418.175 1053.83C418.175 1051.68 419.011 1049.17 419.967 1048.33C420.923 1047.5 421.759 1045.95 421.759 1044.87C421.759 1042.24 427.016 1037.58 430.003 1037.58C431.198 1037.58 432.87 1036.75 433.707 1035.79C434.543 1034.83 435.857 1034 436.813 1034C439.442 1034 442.07 1028.98 442.07 1023.72C442.07 1020.38 442.668 1018.47 443.862 1017.99C444.818 1017.63 445.655 1016.67 445.655 1015.84C445.655 1014.16 453.062 1006.52 454.616 1006.52C455.093 1006.52 457.125 1004.61 459.156 1002.34C461.187 1000.07 463.576 998.154 464.413 998.154C465.369 998.154 466.324 997.317 466.683 996.362C467.161 995.406 468.236 994.569 469.072 994.569C470.028 994.569 471.462 993.255 472.179 991.582C472.896 989.91 473.971 988.595 474.449 988.595C474.927 988.595 475.644 987.281 476.002 985.609C476.48 983.936 477.316 982.622 477.914 982.622C478.631 982.622 479.109 981.785 479.109 980.829C479.109 979.874 479.587 979.037 480.184 979.037C480.781 979.037 481.857 977.365 482.573 975.453C483.171 973.422 484.605 971.51 485.68 971.152C486.636 970.793 487.472 969.359 487.472 968.165C487.472 965.417 491.056 961.713 494.641 960.518C495.955 960.04 498.703 958.128 500.734 956.217C502.646 954.305 504.796 952.752 505.394 952.752C506.111 952.752 506.589 951.079 506.589 949.168C506.589 946.778 507.186 945.583 508.381 945.583C509.337 945.583 510.412 943.911 510.89 941.401C511.487 937.937 512.204 937.22 514.474 937.22C516.147 937.22 517.7 936.383 518.059 935.428C518.536 934.472 519.612 933.635 520.448 933.635C521.404 933.635 522.479 932.799 522.838 931.843C523.316 930.887 524.271 930.051 525.108 930.051C527.378 930.051 533.232 924.316 536.458 918.701C538.131 916.072 540.043 913.205 540.879 912.368C541.715 911.532 542.432 909.979 542.432 909.023C542.432 908.067 543.03 906.633 543.627 905.797C544.344 904.961 545.897 902.929 547.331 901.137C548.645 899.226 550.796 897.792 551.99 897.792C553.185 897.792 554.977 896.956 556.053 896C557.009 895.044 559.04 894.208 560.593 894.208C562.385 894.088 564.775 892.176 567.881 888.353C570.271 885.127 572.302 882.14 572.302 881.901C572.302 880.706 585.444 867.922 586.639 867.922C587.237 867.922 587.834 866.13 587.834 863.86C587.834 861.709 588.67 859.2 589.626 858.364C590.582 857.528 591.418 855.019 591.418 852.868C591.418 849.403 591.896 848.806 594.166 848.806C595.6 848.806 597.631 847.73 598.587 846.416C599.543 845.102 600.977 844.027 601.693 844.027C603.605 844.027 611.73 834.588 611.73 832.318C611.73 828.016 616.15 821.326 621.049 818.219C627.74 813.918 645.184 796.833 645.184 794.443C645.184 791.814 655.459 781.898 658.207 781.898C659.641 781.898 660.716 781.3 660.716 780.703C660.716 779.986 662.03 779.508 663.703 779.508C665.375 779.508 666.69 778.911 666.69 778.313C666.69 777.597 668.004 776.402 669.677 775.685C671.349 774.968 672.664 773.654 672.664 772.698C672.664 771.862 673.5 771.145 674.456 771.145C675.412 771.145 676.248 770.308 676.248 769.353C676.248 768.397 677.084 767.56 678.04 767.56C678.996 767.56 679.832 766.724 679.832 765.768C679.832 764.812 680.908 763.976 682.222 763.976C683.536 763.976 684.612 763.14 684.612 762.184C684.612 761.228 685.209 760.392 685.926 760.392C687.36 760.392 690.824 756.927 694.767 751.431C696.081 749.519 697.874 747.368 698.591 746.532C699.427 745.696 700.144 744.382 700.144 743.665C700.144 742.948 701.458 740.558 703.131 738.408C704.803 736.257 706.118 733.987 706.118 733.27C706.118 731.836 712.211 725.146 714.481 724.19C722.008 720.725 733.598 711.883 733.598 709.494C733.598 708.657 734.315 707.463 735.151 706.985C737.302 705.551 741.961 696.351 741.961 693.603C741.961 692.169 742.798 691.094 743.753 691.094C744.709 691.094 745.546 690.258 745.546 689.302C745.546 687.271 749.727 682.731 751.519 682.731C752.236 682.731 752.714 681.894 752.714 680.938C752.714 679.983 753.79 679.146 755.104 679.146C756.418 679.146 757.493 678.31 757.493 677.354C757.493 676.398 758.808 675.323 760.48 674.845C762.034 674.487 763.945 673.411 764.782 672.456C765.498 671.5 767.53 670.783 769.322 670.783C771.711 670.783 772.906 669.708 774.579 666.482C775.654 664.211 776.61 661.464 776.61 660.508C776.61 657.999 781.509 651.666 783.42 651.666C784.257 651.666 784.973 651.188 784.973 650.591C784.973 649.994 787.602 648.56 790.828 647.484C795.846 645.812 796.921 644.856 799.789 639.36C801.461 635.895 802.895 632.43 802.895 631.713C802.895 629.563 808.869 624.067 816.755 619.049C819.264 617.376 823.804 613.911 826.552 611.163C829.419 608.415 832.645 606.264 833.721 606.264C834.915 606.264 836.469 605.189 837.305 603.875C838.141 602.561 839.456 601.485 840.411 601.485C841.367 601.485 842.323 600.649 842.801 599.693C843.159 598.737 844.235 597.901 845.191 597.901C846.146 597.901 848.655 595.631 850.806 592.763C853.076 590.015 855.466 587.267 856.302 586.789C857.138 586.312 857.855 584.997 857.855 584.161C857.855 583.205 858.692 582.369 859.647 582.369C860.603 582.369 861.44 581.532 861.44 580.577C861.44 579.621 862.037 578.784 862.754 578.784C865.502 578.784 872.193 568.151 872.193 563.611C872.193 557.876 885.335 541.866 891.787 539.834C893.101 539.357 894.655 538.52 895.372 537.923C898 535.653 908.753 528.723 913.771 526.094C916.519 524.661 918.789 522.988 918.789 522.391C918.789 521.913 919.267 521.435 919.865 521.435C920.462 521.435 923.091 519.404 925.6 516.895C928.109 514.505 933.007 510.323 936.353 507.695C940.773 504.23 943.641 500.765 946.508 495.15C950.81 486.547 954.274 482.007 956.544 482.007C957.261 482.007 958.217 481.171 958.695 480.215C959.054 479.259 960.009 478.422 960.846 478.422C961.682 478.422 964.43 476.511 966.939 474.241C969.448 471.971 971.718 470.059 972.077 470.059C974.825 470.059 996.45 449.628 996.45 447C996.45 446.163 998.003 443.774 999.915 441.743C1001.71 439.712 1004.57 436.008 1006.13 433.499C1009.35 428.122 1012.7 424.657 1014.37 424.657C1015.09 424.657 1015.57 423.821 1015.57 422.865C1015.57 421.909 1016.28 421.073 1017.12 421.073C1017.96 421.073 1019.51 419.998 1020.7 418.683C1021.78 417.369 1023.81 416.294 1025.13 416.294C1026.44 416.294 1027.51 415.457 1027.51 414.502C1027.51 413.426 1028.59 412.709 1030.5 412.709C1032.17 412.709 1033.85 411.873 1034.21 410.917C1034.68 409.961 1036.48 409.125 1038.27 409.125C1040.66 409.125 1041.97 408.408 1042.45 406.735C1042.81 405.421 1043.76 404.346 1044.36 404.346C1044.96 404.346 1045.44 403.271 1045.44 402.076C1045.44 400.761 1046.15 398.969 1047.11 398.133C1047.95 397.177 1049.02 395.385 1049.5 394.19C1050.34 391.681 1055.59 385.229 1056.79 385.229C1057.86 385.229 1064.55 378.897 1064.55 377.822C1064.55 377.344 1067.3 373.998 1070.53 370.533C1076.14 364.798 1085.82 358.227 1093.59 355.24C1095.38 354.523 1096.81 353.448 1096.81 352.851C1096.81 352.253 1098.48 351.775 1100.4 351.775C1102.43 351.775 1103.98 351.297 1103.98 350.581C1103.98 349.983 1105.3 348.072 1106.97 346.399C1108.64 344.726 1110.55 343.412 1111.15 343.412C1111.87 343.412 1112.34 342.576 1112.34 341.62C1112.34 340.664 1113.18 339.828 1114.14 339.828C1115.09 339.828 1115.93 338.991 1115.93 338.035C1115.93 337.079 1116.41 336.243 1116.88 336.243C1117.36 336.243 1119.39 333.495 1121.31 330.269C1123.22 326.924 1125.13 324.295 1125.61 324.295C1126.08 324.295 1126.8 323.339 1127.16 322.145C1127.64 320.95 1130.15 318.799 1133.01 317.366C1140.54 313.423 1142.81 311.153 1145.8 304.223C1147.47 300.4 1150.46 297.652 1155.95 295.023C1161.69 292.156 1169.69 284.151 1169.69 281.283C1169.69 280.088 1170.53 278.535 1171.49 277.699C1172.44 276.862 1173.28 275.668 1173.28 275.07C1173.28 273.397 1176.03 271.008 1179.01 270.052C1180.45 269.574 1181.64 268.618 1181.64 268.021C1181.64 267.424 1182.84 266.946 1184.39 266.946C1186.18 266.946 1188.57 265.392 1190.72 262.764C1192.63 260.494 1194.9 258.582 1195.62 258.582C1196.46 258.582 1197.17 257.746 1197.17 256.79C1197.17 255.834 1198.01 254.998 1198.97 254.998C1199.92 254.998 1200.76 254.161 1200.76 253.206C1200.76 252.13 1201.83 251.413 1203.63 251.413C1205.3 251.413 1207.33 250.697 1208.17 249.86C1209 249.143 1211.75 247.471 1214.26 246.395C1217.25 244.962 1218.68 243.528 1218.68 241.855C1218.68 240.541 1219.16 239.466 1219.76 239.466C1220.35 239.466 1221.31 238.271 1221.67 236.957C1222.62 233.97 1228.6 227.518 1230.27 227.518C1230.99 227.518 1232.18 226.681 1233.02 225.726C1233.85 224.77 1235.53 223.933 1236.72 223.933C1238.04 223.933 1240.9 221.424 1243.41 217.959C1245.8 214.614 1248.31 211.986 1248.79 211.986C1249.27 211.986 1249.74 211.269 1249.74 210.552C1249.74 209.715 1253.69 205.414 1258.47 200.994C1264.68 195.139 1268.02 192.869 1270.41 192.869C1272.21 192.869 1273.64 192.391 1273.64 191.794C1273.64 191.196 1274.84 190.479 1276.39 190.002C1279.14 189.404 1285.59 184.505 1285.59 183.072C1285.59 182.713 1287.5 179.607 1289.77 176.142C1292.04 172.677 1293.95 169.212 1293.95 168.256C1293.95 167.301 1294.43 166.584 1295.15 166.584C1295.74 166.584 1296.7 164.792 1297.3 162.641C1298.13 159.535 1298.97 158.698 1301.96 158.459C1303.99 158.22 1306.38 157.264 1307.09 156.309C1307.93 155.353 1310.68 154.636 1313.19 154.636C1317.37 154.636 1318.68 153.8 1325.85 146.392C1333.38 138.865 1339.35 131.696 1339.35 130.262C1339.35 129.307 1349.87 118.076 1357.63 110.548C1363.85 104.574 1374.96 97.2863 1377.83 97.2863C1379.62 97.2863 1384.64 91.0734 1386.91 86.1748C1387.98 83.7853 1389.41 81.7542 1389.89 81.7542C1390.85 81.7542 1393.24 79.9619 1399.93 74.5853C1400.77 73.8685 1401.96 73.3906 1402.68 73.3906C1403.27 73.3906 1403.87 72.5542 1403.87 71.5984C1403.87 70.6426 1404.71 69.8063 1405.66 69.8063C1406.62 69.8063 1407.46 69.3284 1407.46 68.6115C1407.46 68.014 1409.37 66.6998 1411.64 65.6245C1416.42 63.235 1421.32 58.5753 1423.71 54.035C1424.66 52.1234 1425.98 50.6897 1426.57 50.6897C1427.29 50.6897 1427.77 49.6144 1427.77 48.3002C1427.77 46.5079 1428.6 45.9105 1431.11 45.9105C1432.91 45.7911 1435.65 45.0742 1437.33 44.1184C1439 43.1626 1441.75 42.4457 1443.66 42.3262C1445.81 42.3262 1446.88 41.7288 1446.88 40.295C1446.88 39.2197 1447.72 37.3081 1448.92 36.1133C1451.19 33.6042 1453.69 29.542 1454.77 26.5551C1455.25 25.3602 1457.52 24.4044 1460.98 23.807C1469.7 22.6123 1474.6 20.7006 1478.55 17.1162C1480.58 15.3241 1483.56 12.4565 1485.48 10.7839C1487.27 9.11121 1488.7 7.43848 1488.7 6.96057C1488.7 6.48267 1489.54 5.16846 1490.61 3.97363C1493.72 0.508789 1492.05 -0.20813 1486.07 1.70349Z" fill="#C22033"/>
<path d="M808.033 14.9658C807.196 15.8021 803.732 16.8774 800.267 17.3553C796.802 17.9528 793.815 18.9086 793.576 19.6255C793.337 20.2228 790.589 20.8202 787.363 20.8202C783.42 20.8202 781.389 21.4176 780.911 22.6124C780.433 23.8071 778.522 24.4045 774.818 24.4045C770.875 24.4045 769.441 24.8824 769.441 26.1968C769.441 27.3916 768.246 27.9889 765.498 27.9889C763.228 27.9889 760.48 28.9447 758.927 30.3785C757.493 31.6927 755.582 32.7681 754.506 32.7681C753.431 32.7681 752.356 33.6044 751.997 34.5603C751.519 35.5161 750.325 36.3524 749.249 36.3524C748.174 36.3524 745.426 38.264 743.156 40.5342C740.886 42.8042 738.616 44.7159 738.138 44.7159C736.943 44.7159 734.434 46.6276 731.447 49.734C730.372 50.9288 727.743 51.8846 725.593 51.8846C723.561 51.8846 721.53 52.3625 721.172 52.96C720.813 53.4379 718.185 54.2742 715.198 54.6326C710.538 55.3495 701.816 59.1729 700.144 61.3234C699.785 61.6819 698.113 62.7572 696.32 63.713C694.528 64.6688 692.736 66.3416 692.258 67.6558C691.9 68.8506 690.824 69.8064 689.869 69.8064C688.913 69.8064 688.196 70.8817 688.196 72.1959C688.196 73.5103 687.359 74.5856 686.404 74.5856C685.448 74.5856 684.612 75.4219 684.612 76.3777C684.612 77.453 683.536 78.1699 681.625 78.1699C679.952 78.1699 678.279 79.0062 677.921 79.962C676.845 82.5906 662.15 82.4711 661.074 79.8425C660.357 77.8114 659.043 78.8867 653.069 87.1307C651.158 89.7593 648.051 93.3436 646.139 95.1359C644.347 96.928 642.794 98.9591 642.794 99.5565C642.794 100.273 641.36 100.871 639.449 100.871C637.656 100.871 634.192 101.946 631.683 103.26C629.293 104.575 625.35 105.65 623.08 105.65C620.332 105.65 618.898 106.247 618.898 107.323C618.898 108.278 618.062 109.234 617.106 109.712C616.15 110.071 615.314 111.385 615.314 112.699C615.314 116.283 610.176 121.182 606.473 121.182C604.561 121.182 603.366 121.78 603.366 122.974C603.366 124.169 602.171 124.766 599.901 124.766C597.99 124.766 596.197 125.483 595.72 126.559C595.361 127.515 594.047 128.351 592.852 128.351C591.657 128.351 589.387 129.426 587.834 130.74C586.281 132.055 584.011 133.13 582.816 133.13C581.621 133.13 580.307 133.966 579.948 134.922C579.47 135.997 577.678 136.714 575.767 136.714C573.855 136.714 572.302 137.192 572.302 137.909C572.302 138.506 570.987 139.104 569.434 139.104C567.881 139.104 565.969 139.94 565.133 140.896C564.297 141.852 562.982 142.688 562.266 142.688C561.549 142.688 558.084 145.317 554.619 148.662C551.154 151.888 547.809 154.636 547.092 154.636C546.494 154.636 546.017 155.234 546.017 155.831C546.017 156.548 544.583 157.743 542.791 158.579C537.892 160.729 535.502 163.478 534.069 168.854C533.352 171.602 532.276 173.753 531.679 173.753C530.962 173.753 530.484 175.664 530.484 177.934C530.484 181.519 530.126 182.116 527.497 182.116C524.749 182.116 518.536 187.015 518.536 189.285C518.536 190.002 516.983 190.48 514.952 190.48C512.563 190.48 511.368 191.077 511.368 192.272C511.368 193.467 510.054 194.064 507.186 194.064C504.319 194.064 503.004 194.661 503.004 195.856C503.004 196.931 501.929 197.648 500.137 197.648C498.584 197.648 496.552 198.485 495.716 199.56C494.88 200.635 493.088 201.95 491.654 202.547C487.831 204.22 484.605 206.49 483.529 208.043C483.051 208.879 481.618 209.596 480.423 209.596C479.348 209.596 475.524 212.225 472.059 215.57C468.595 218.796 465.01 221.544 464.054 221.544C463.098 221.544 462.382 222.022 462.382 222.619C462.382 223.217 461.306 223.934 459.992 224.292C458.558 224.65 457.602 225.965 457.602 227.279C457.602 228.593 456.766 229.907 455.81 230.385C454.854 230.744 454.018 232.178 454.018 233.492C454.018 234.806 453.54 235.881 453.062 235.881C452.465 235.881 451.27 237.315 450.314 239.107C447.686 244.125 443.862 247.829 441.114 247.829C439.8 247.829 438.486 248.666 438.008 249.621C437.65 250.577 436.574 251.414 435.499 251.414C434.543 251.414 433.707 252.13 433.707 253.086C433.707 254.042 432.512 254.998 431.078 255.476C429.525 255.834 426.538 257.746 424.387 259.777C422.237 261.689 419.967 263.361 419.25 263.361C418.653 263.361 418.175 264.198 418.175 265.154C418.175 266.109 417.338 266.946 416.382 266.946C415.427 266.946 414.59 267.663 414.59 268.38C414.59 269.216 412.679 271.247 410.409 272.92C408.138 274.592 406.227 276.624 406.227 277.34C406.227 278.177 405.39 278.894 404.435 278.894C403.359 278.894 402.642 279.969 402.642 281.761C402.642 283.314 401.806 285.226 400.85 286.062C399.894 286.899 399.058 288.332 399.058 289.169C399.058 290.125 398.58 290.841 397.863 290.841C397.266 290.841 396.668 291.439 396.668 292.156C396.668 295.023 381.375 312.348 378.866 312.348C378.269 312.348 377.432 313.184 377.074 314.14C376.716 315.215 374.804 316.649 372.773 317.246C370.861 317.963 369.188 319.038 369.188 319.636C369.188 320.233 368.233 320.711 367.038 320.711C364.051 320.711 357.241 328.716 357.241 332.181C357.241 333.854 356.524 335.407 355.568 335.765C354.612 336.124 353.417 337.916 353.059 339.828C352.7 341.739 351.506 343.531 350.55 343.89C349.594 344.248 348.877 345.324 348.877 346.399C348.877 347.355 348.041 348.191 347.085 348.191C346.129 348.191 345.293 349.027 345.293 349.983C345.293 350.939 344.456 351.776 343.501 351.776C342.425 351.776 341.708 352.851 341.708 354.762C341.708 356.435 342.545 358.108 343.501 358.466C344.576 358.944 345.293 360.736 345.293 363.245C345.293 366.113 344.695 367.308 343.501 367.308C342.545 367.308 341.708 367.786 341.708 368.383C341.708 370.056 335.496 379.256 334.301 379.256C333.823 379.256 333.345 379.733 333.345 380.45C333.345 382.123 329.044 386.305 325.818 387.619C322.711 389.053 318.649 391.442 317.813 392.518C317.454 392.996 316.021 393.593 314.587 394.071C313.034 394.549 311.839 395.505 311.839 396.102C311.839 396.699 310.883 397.177 309.808 397.177C308.613 397.177 306.343 398.253 304.67 399.567C302.997 400.881 300.727 401.956 299.652 401.956C297.262 401.956 291.527 411.156 291.527 414.741C291.527 416.055 290.691 417.847 289.735 418.683C288.779 419.52 287.943 421.192 287.943 422.387C287.943 423.702 287.465 424.657 286.748 424.657C284.478 424.657 275.995 433.857 275.995 436.486C275.995 437.919 275.159 439.353 274.203 439.712C273.128 440.19 272.411 441.982 272.411 444.491C272.411 447.358 271.814 448.553 270.619 448.553C269.663 448.553 268.827 449.27 268.827 449.987C268.827 450.823 266.915 452.854 264.645 454.407C262.375 455.961 260.463 457.992 260.463 458.828C260.463 459.784 259.627 460.501 258.671 460.501C257.476 460.501 256.879 461.696 256.879 464.324C256.759 470.657 252.936 480.095 248.754 484.158C246.604 486.189 244.931 488.1 244.931 488.459C244.931 488.698 243.019 490.968 240.749 493.477C238.479 495.866 236.567 498.615 236.567 499.331C236.567 500.168 232.505 505.066 227.606 510.084C220.079 517.731 218.646 519.762 218.646 523.108C218.646 528.843 215.181 535.653 208.729 543.06C205.622 546.525 203.113 550.588 203.113 552.021C203.113 553.455 202.277 555.247 201.321 556.084C200.246 556.92 199.529 559.548 199.529 562.177C199.529 565.403 199.051 566.837 197.856 566.837C196.901 566.837 195.825 568.629 195.467 570.899C194.989 573.169 193.914 575.32 192.958 575.678C192.002 576.036 191.166 577.709 191.166 579.382C191.166 581.294 190.449 582.369 189.373 582.369C188.418 582.369 187.581 583.205 187.581 584.161C187.581 585.117 186.984 585.953 186.147 585.953C185.431 585.953 182.802 587.984 180.413 590.493C177.187 593.839 175.872 596.228 175.275 600.291C174.917 603.158 173.961 605.787 173.363 606.026C172.527 606.265 172.049 610.685 172.049 617.018C172.049 626.815 171.81 627.89 169.062 630.758C167.389 632.43 165 633.745 163.924 633.745C159.384 633.864 148.153 650.352 148.153 656.923C148.153 658.357 147.317 661.583 146.361 664.212C145.405 666.84 144.688 671.261 144.569 674.009C144.569 676.876 144.091 679.146 143.374 679.146C142.777 679.146 142.179 681.297 142.179 683.806C142.179 686.435 141.463 689.302 140.626 690.138C139.909 690.975 137.878 694.918 136.325 698.86C134.652 702.803 132.741 706.507 131.785 706.985C130.948 707.463 130.232 708.897 130.232 709.972C130.232 711.167 129.276 712.959 128.2 714.034C123.66 718.216 122.943 720.008 122.227 727.774C121.749 732.673 120.912 736.257 119.956 736.854C119.001 737.332 118.284 739.364 118.284 741.156C118.284 743.067 117.447 745.218 116.492 746.054C115.536 746.891 114.699 749.4 114.699 751.55C114.699 754.418 114.102 755.613 112.907 755.613C111.832 755.613 110.757 757.166 110.279 759.316C109.92 761.348 108.845 763.259 108.009 763.618C106.814 764.096 106.336 766.605 106.336 772.459C106.336 778.791 105.858 780.942 104.544 781.42C103.588 781.898 102.752 783.451 102.752 785.004C102.752 786.796 102.035 787.872 100.959 787.872C100.004 787.872 99.1672 788.708 99.1672 789.664C99.1672 790.62 98.3308 791.456 97.375 791.456C96.4192 791.456 95.3439 792.77 94.866 794.443C94.5075 795.996 93.4322 797.908 92.4764 798.744C91.2816 799.7 90.8037 803.284 90.8037 812.484C90.8037 822.759 90.4453 824.91 89.0115 824.91C88.0557 824.91 87.2193 825.388 87.2193 826.105C87.2193 826.702 85.4272 828.017 83.1571 828.972C80.5285 830.048 78.8559 831.72 78.3779 833.751C78.0195 835.424 77.0637 836.858 76.4663 836.858C75.7494 836.858 75.2715 842.593 75.2715 850.837C75.152 861.351 74.7936 865.533 73.4793 867.205C72.5235 868.52 71.6871 871.029 71.6871 872.821C71.6871 875.927 66.1911 887.278 64.2795 887.995C63.8016 888.234 63.3237 889.189 63.3237 890.145C63.3237 891.101 62.8457 891.818 62.2483 891.818C61.5315 891.818 60.6951 894.327 60.3367 897.434C59.8588 900.659 59.1419 904.244 58.5445 905.558C57.9471 906.872 57.2303 911.651 56.9913 916.311C56.6329 920.851 55.7965 924.794 55.0796 925.033C53.2875 925.63 53.4069 933.277 55.1991 933.874C56.0355 934.233 56.8718 937.698 57.1108 942.357L57.5887 950.482L51.3758 956.336C45.4019 961.952 45.1629 962.43 46.9551 964.461C49.7031 967.448 49.8226 981.666 47.1941 984.294C46.1188 985.37 45.4019 988.237 45.4019 991.941C45.4019 996.123 44.924 998.154 43.6097 998.632C42.5344 998.99 41.8175 1000.78 41.8175 1002.93C41.8175 1005.2 41.2201 1006.52 40.1448 1006.52C38.3527 1006.52 37.0384 1012.49 37.0384 1020.97C37.0384 1023.96 36.202 1027.43 35.2462 1028.74C34.2904 1029.94 33.454 1032.44 33.454 1034.24C33.454 1036.39 32.8566 1037.58 31.6619 1037.58C30.4671 1037.58 29.8697 1038.78 29.8697 1041.17C29.8697 1043.32 29.1528 1045.11 28.0775 1045.47C26.8827 1045.95 26.2853 1047.86 26.2853 1050.72C26.2853 1053.47 25.449 1056.1 24.2542 1057.3C21.7452 1059.92 21.7452 1065.42 24.2542 1068.05C27.3606 1071.04 27.1217 1084.06 23.8958 1087.76C22.462 1089.44 21.5062 1092.18 21.5062 1094.93C21.5062 1097.8 20.9088 1099.71 19.714 1100.19C18.3998 1100.67 17.9218 1102.7 17.9218 1108.07C17.9218 1113.69 17.5634 1115.24 16.1297 1115.24C14.8154 1115.24 14.3375 1116.68 14.3375 1121.1C14.3375 1125.16 13.8596 1127.19 12.5453 1127.67C11.1116 1128.15 10.7531 1131.13 10.7531 1143.56C10.6337 1163.63 8.84148 1187.41 7.16879 1187.89C6.45192 1188.12 5.974 1192.55 5.974 1198.88C5.974 1207.12 5.61557 1209.51 4.18182 1210.11C2.86756 1210.59 2.38965 1212.74 2.38965 1219.07C2.38965 1226.12 2.74808 1227.31 4.65974 1227.91C8.24409 1228.75 9.19992 1227.43 9.79731 1220.62C10.1557 1217.16 11.2311 1213.45 12.4258 1212.26C13.5011 1211.06 14.3375 1208.56 14.3375 1206.88C14.3375 1204.85 14.9349 1203.66 16.1297 1203.66C17.205 1203.66 17.9218 1202.58 17.9218 1200.67C17.9218 1199 18.7582 1197.32 19.714 1196.97C20.6698 1196.49 21.5062 1194.93 21.5062 1193.5C21.5062 1191.95 22.462 1189.8 23.5373 1188.6C25.21 1186.93 25.8074 1183.94 26.0464 1175.34C26.4048 1166.86 26.8827 1164.23 28.197 1164.23C29.1528 1164.23 29.8697 1163.39 29.8697 1162.44C29.8697 1161.48 30.706 1160.64 31.6619 1160.64C32.6177 1160.64 33.454 1160.17 33.454 1159.57C33.454 1158.97 35.3657 1155.63 37.6358 1152.16C39.9059 1148.58 41.8175 1144.75 41.8175 1143.56C41.8175 1142.36 42.6539 1141.17 43.6097 1140.81C44.924 1140.33 45.4019 1138.3 45.4019 1134.12C45.4019 1130.89 45.9993 1127.19 46.5967 1125.88C47.3135 1124.68 48.1499 1120.02 48.6278 1115.48C49.3447 1106.76 54.8407 1094.45 60.3367 1089.44C62.0094 1087.88 63.3237 1085.61 63.3237 1084.3C63.3237 1082.98 64.0405 1081.19 64.9963 1080.24C68.4612 1076.77 70.1339 1070.56 69.5365 1063.51C68.9391 1055.98 70.4924 1051.44 74.6741 1048.33C82.5597 1042.6 83.635 1040.69 83.635 1031.13C83.635 1023.84 83.9934 1022.05 85.4272 1022.05C86.383 1022.05 87.2193 1021.21 87.2193 1020.26C87.2193 1019.3 88.0557 1018.47 89.0115 1018.47C89.9673 1018.47 90.8037 1017.87 90.8037 1017.15C90.8037 1016.43 92.7153 1014.04 95.1049 1011.89C99.4061 1007.83 99.4061 1007.83 97.4945 1004.01C95.3439 999.707 94.866 988.596 96.7776 988.596C97.4945 988.596 98.5698 987.281 99.1672 985.609C99.7646 983.936 100.84 982.622 101.557 982.622C102.154 982.622 102.752 981.785 102.752 980.829C102.752 979.874 103.588 979.037 104.544 979.037C105.5 979.037 106.336 978.081 106.336 976.887C106.336 975.811 108.248 972.824 110.518 970.315C112.788 967.806 114.699 964.939 114.699 963.983C114.699 963.027 115.536 961.952 116.492 961.593C117.567 961.116 118.284 959.323 118.284 957.292C118.284 955.381 119.12 952.991 120.076 952.035C121.032 950.96 121.868 948.809 121.868 947.256C121.868 945.583 122.585 943.074 123.541 941.641C124.497 940.207 125.572 936.503 126.05 933.277C126.408 930.171 127.603 926.228 128.559 924.316C129.395 922.524 130.232 918.581 130.232 915.355C130.232 912.249 130.59 909.74 131.187 909.74C131.665 909.74 133.338 907.111 134.772 904.005C137.281 898.628 140.029 894.805 145.764 888.712C147.078 887.278 148.153 885.486 148.153 884.769C148.153 884.052 148.99 883.096 149.946 882.738C150.901 882.26 151.738 880.587 151.738 879.034C151.738 877.361 152.813 874.255 154.008 872.224C155.203 870.192 156.636 866.728 157.114 864.577C157.473 862.546 158.428 860.754 159.026 860.754C159.623 860.754 160.101 859.2 160.101 857.289C160.101 855.377 160.818 853.585 161.893 853.107C162.849 852.749 163.686 851.673 163.686 850.598C163.686 849.642 164.522 848.806 165.478 848.806C166.434 848.806 167.27 848.089 167.27 847.253C167.27 846.297 168.345 844.624 169.659 843.429C170.974 842.234 172.049 840.323 172.049 839.009C172.049 837.814 172.885 836.858 173.841 836.858C175.036 836.858 175.633 835.663 175.633 833.393C175.633 831.481 176.35 829.689 177.426 829.211C178.62 828.733 179.218 826.822 179.218 822.879C179.337 819.773 180.174 814.993 181.129 812.365C182.205 809.736 183.28 806.391 183.638 804.838C183.997 803.284 185.072 801.731 185.909 801.373C186.864 801.014 187.581 800.059 187.581 799.103C187.581 798.147 188.059 797.43 188.657 797.43C189.134 797.43 194.033 793.129 199.29 787.872C206.578 780.703 209.207 777.238 209.804 774.132C210.163 771.742 211.238 769.114 212.074 768.397C212.911 767.56 213.747 762.184 214.105 755.971L214.703 745.099L227.248 732.673L239.793 720.247L240.51 710.211C241.108 702.086 241.824 699.816 243.975 697.785C246.962 695.037 250.427 692.767 253.533 691.572C256.162 690.616 256.879 687.51 256.879 676.398C256.879 667.915 257.118 667.199 259.388 667.199C260.702 667.199 263.57 665.287 265.72 663.017C267.99 660.747 270.26 658.835 271.097 658.835C271.814 658.835 272.411 658.118 272.411 657.162C272.411 656.207 273.247 655.251 274.203 654.773C275.278 654.414 275.995 652.622 275.995 650.472C275.995 648.56 276.473 646.887 277.071 646.887C277.668 646.887 278.624 645.692 279.102 644.259C279.46 642.825 281.73 639.121 283.881 635.895C286.151 632.789 287.943 629.682 287.943 628.965C287.943 628.368 288.54 627.771 289.138 627.771C289.855 627.771 290.333 627.054 290.333 626.098C290.333 625.142 291.05 623.589 291.886 622.753C292.722 621.916 294.753 617.973 296.307 614.031C297.979 610.088 299.652 606.623 300.13 606.265C300.488 605.906 301.325 604.114 301.803 602.202C302.639 598.618 306.223 594.317 308.254 594.317C308.971 594.317 309.449 593.6 309.449 592.763C309.449 591.927 311.839 589.896 314.826 588.343C317.813 586.67 321.517 583.803 322.95 581.891C324.384 579.86 326.535 577.351 327.729 576.156C328.805 574.961 329.761 573.527 329.761 572.93C329.761 572.333 330.597 571.257 331.553 570.421C332.509 569.585 333.345 567.195 333.345 564.925C333.345 562.774 334.181 560.265 335.137 559.19C336.093 558.234 336.929 556.562 336.929 555.367C336.929 554.172 337.766 552.499 338.721 551.424C339.677 550.349 341.469 548.318 342.903 546.764C344.217 545.331 345.293 543.06 345.293 541.746C345.293 540.432 345.771 539.357 346.368 539.357C346.965 539.357 347.921 538.162 348.28 536.609C350.072 530.515 353.178 525.019 355.209 524.422C356.285 523.944 357.241 523.108 357.241 522.51C357.241 521.913 358.077 521.435 359.033 521.435C359.989 521.435 360.825 520.599 360.825 519.643C360.825 518.687 361.661 517.851 362.498 517.851C364.29 517.851 372.773 506.142 372.773 503.752C372.773 502.916 376.835 498.256 381.734 493.357C386.632 488.339 390.695 483.799 390.695 483.321C390.695 482.724 391.531 482.007 392.487 481.529C393.443 481.171 394.279 480.095 394.279 479.02C394.279 477.228 396.907 473.524 400.611 470.179C401.687 469.223 402.642 467.431 402.642 466.355C402.642 465.28 403.479 464.085 404.435 463.607C405.39 463.249 406.227 461.815 406.227 460.501C406.227 459.187 406.705 458.111 407.422 458.111C408.019 458.111 409.094 456.08 409.692 453.571C410.409 451.062 411.723 448.075 412.679 446.761C413.754 445.447 414.59 443.535 414.59 442.46C414.59 441.384 415.307 440.19 416.143 439.831C416.86 439.473 418.653 437.203 419.967 434.694C422.834 429.078 426.658 424.657 428.689 424.657C429.406 424.657 430.122 423.94 430.122 422.985C430.122 422.029 430.959 421.073 431.915 420.595C432.87 420.237 433.707 419.4 433.707 418.564C433.707 416.891 438.605 412.829 440.637 412.709C441.353 412.709 442.07 411.993 442.07 411.037C442.07 410.2 443.146 409.125 444.46 408.767C447.088 408.05 449.239 403.51 449.239 398.372C449.239 396.46 449.836 394.549 450.434 394.19C451.151 393.832 451.629 392.279 451.629 390.845C451.629 387.977 457.961 381.645 460.709 381.645C463.457 381.645 475.524 371.131 475.524 368.622C475.524 367.905 476.002 367.308 476.6 367.308C478.153 367.308 482.454 358.108 483.29 352.731C483.649 350.342 484.724 348.072 485.68 347.713C486.636 347.355 487.472 346.279 487.472 345.204C487.472 344.248 488.308 343.412 489.264 343.412C490.22 343.412 491.056 342.695 491.056 341.739C491.056 339.35 498.703 331.464 501.093 331.464C502.168 331.464 503.004 330.628 503.004 329.672C503.004 328.477 504.199 327.88 506.589 327.88C508.978 327.88 510.173 327.282 510.173 326.088C510.173 325.132 511.248 324.295 512.563 324.295C514.116 324.295 514.952 323.459 514.952 321.906C514.952 320.592 515.788 319.516 516.744 319.516C517.7 319.516 518.536 318.68 518.536 317.724C518.536 316.768 519.134 315.932 519.97 315.932C522.718 315.932 526.9 309.719 526.9 305.537C526.9 303.267 527.736 300.639 528.692 299.683C529.648 298.608 530.484 296.815 530.484 295.501C530.484 294.067 531.321 293.231 532.874 293.231C534.308 293.231 536.458 292.156 537.892 290.841C539.326 289.527 541.357 288.452 542.313 288.452C544.463 288.452 548.406 282.239 548.406 278.774C548.406 276.385 557.009 266.946 559.159 266.946C559.876 266.946 560.354 266.109 560.354 265.154C560.354 264.078 561.429 263.361 563.341 263.361C565.014 263.361 566.806 262.406 567.523 260.972C568.24 259.658 569.554 258.582 570.51 258.582C571.465 258.582 572.302 257.746 572.302 256.79C572.302 255.834 573.138 254.998 574.094 254.998C575.05 254.998 575.886 254.281 575.886 253.325C575.886 252.369 576.722 251.414 577.678 250.936C578.634 250.577 579.47 249.502 579.47 248.666C579.47 247.71 580.546 246.037 581.86 244.842C583.533 243.289 584.25 241.138 584.25 237.554C584.25 233.014 584.728 232.297 588.551 230.027C590.821 228.593 593.688 227.518 594.883 227.518C596.078 227.518 597.751 226.682 598.587 225.726C599.423 224.77 600.857 223.934 601.693 223.934C602.649 223.934 603.366 222.739 603.366 221.066C603.366 219.513 604.203 217.96 605.158 217.482C606.353 217.123 606.951 215.212 606.951 212.105C606.951 208.162 607.667 206.848 611.371 203.742C613.88 201.711 616.27 200.038 616.748 200.038C617.226 200.038 619.257 198.604 621.168 196.693C626.664 191.674 628.218 190.48 629.412 190.48C630.966 190.48 636.82 184.864 636.82 183.311C636.82 182.714 637.537 182.116 638.373 182.116C639.807 182.116 641.838 179.488 644.945 173.394C645.781 171.602 647.095 170.168 647.693 170.168C648.29 170.168 648.768 169.332 648.768 168.376C648.768 167.42 649.485 166.584 650.441 166.584C651.396 166.584 652.472 164.911 652.95 162.88C653.428 160.849 654.503 158.937 655.459 158.579C656.415 158.22 657.131 157.265 657.131 156.309C657.131 155.234 658.446 154.636 660.716 154.636C662.866 154.636 664.3 154.039 664.3 153.083C664.3 152.246 666.212 150.813 668.482 149.976C671.708 148.901 672.664 147.826 672.664 145.556C672.664 143.764 673.381 142.688 674.456 142.688C675.531 142.688 676.248 141.613 676.248 139.94C676.248 137.073 683.536 129.546 686.404 129.546C687.359 129.546 688.196 128.948 688.196 128.351C688.196 127.634 689.51 127.156 691.183 127.156C693.214 127.156 696.081 125.125 700.622 120.226C708.746 111.743 712.092 107.442 712.092 105.769C712.092 105.052 712.569 104.455 713.286 104.455C713.884 104.455 714.72 103.141 715.198 101.468C715.795 99.1981 716.99 98.1228 719.499 97.6449C721.411 97.2864 723.323 96.2111 723.681 95.3748C724.039 94.4189 725.832 93.702 727.743 93.702C730.013 93.702 732.522 92.3878 735.509 89.5204C737.779 87.2502 740.288 85.3386 740.886 85.3386C741.483 85.3386 741.961 84.5022 741.961 83.5464C741.961 82.5906 742.797 81.7543 743.753 81.7543C744.709 81.7543 745.546 80.9178 745.546 79.962C745.546 79.0062 745.904 78.1699 746.501 78.1699C746.979 78.1699 749.249 76.3777 751.519 74.2271C753.79 72.1959 756.657 69.8064 758.091 69.209C759.405 68.4921 760.719 66.5804 760.839 65.0272C761.078 63.3545 762.034 61.204 762.87 60.2482C763.706 59.2922 764.662 57.0222 765.14 55.23C765.498 53.4379 767.41 51.0482 769.441 49.8535C771.472 48.7782 773.026 47.3445 773.026 46.8666C773.026 46.3887 774.34 45.9106 775.893 45.9106C777.446 45.9106 779.358 45.0743 780.194 44.1185C781.031 43.1627 782.464 42.3263 783.301 42.3263C784.257 42.3263 784.973 41.49 784.973 40.5342C784.973 38.3835 789.992 30.1395 793.217 26.9136C794.532 25.5994 796.563 24.2852 797.997 23.8071C799.43 23.4487 800.506 22.4929 800.506 21.8955C800.506 21.2981 801.461 20.8202 802.656 20.8202C803.851 20.8202 806.002 19.7449 807.435 18.4307C808.869 17.1165 810.542 16.0411 811.139 16.0411C811.737 16.0411 812.692 15.4437 813.051 14.8463C814.126 13.1736 809.705 13.2931 808.033 14.9658Z" fill="#C22033"/>
<path d="M1677.48 447.358C1676.52 447.956 1674.73 448.553 1673.65 448.553C1672.46 448.553 1670.55 449.509 1669.23 450.584C1658.12 461.098 1659.55 460.501 1647.25 460.501C1638.65 460.501 1635.54 460.979 1634.46 462.293C1633.63 463.249 1631.96 464.085 1630.76 464.085C1629.45 464.085 1628.49 464.563 1628.49 465.161C1628.49 467.192 1621.08 468.864 1612.36 468.864C1606.15 468.864 1603.28 469.342 1602.21 470.656C1601.37 471.612 1600.05 472.449 1599.22 472.449C1598.38 472.449 1597.43 473.285 1596.95 474.241C1596.59 475.316 1594.8 476.033 1592.77 476.033C1590.85 476.033 1587.75 476.869 1585.96 477.825C1584.04 478.781 1581.3 479.617 1579.86 479.617C1576.04 479.617 1571.02 482.126 1567.08 485.95C1562.42 490.609 1559.31 491.565 1549.87 491.565C1543.18 491.565 1541.39 492.043 1538.88 494.313C1537.21 495.867 1534.1 497.898 1532.07 498.853C1529.92 499.69 1528.13 500.885 1528.13 501.362C1528.13 501.96 1526.34 502.318 1524.19 502.318C1519.41 502.318 1507.46 506.381 1506.86 508.173C1506.62 508.89 1505.07 509.487 1503.52 509.487C1501.48 509.487 1498.62 511.399 1494.79 515.461C1491.69 518.687 1488.46 521.435 1487.63 521.435C1486.91 521.435 1486.31 522.152 1486.31 523.108C1486.31 524.422 1483.8 524.9 1475.68 525.258C1465.52 525.617 1465.04 525.736 1461.7 529.44C1459.79 531.591 1457.64 533.383 1456.8 533.383C1455.96 533.383 1455.25 534.219 1455.25 535.175C1455.25 536.609 1453.45 536.967 1446.64 536.967C1438.04 536.967 1426.21 540.432 1422.63 544.016C1421.91 544.733 1420.48 545.331 1419.52 545.331C1418.21 545.331 1418.33 545.808 1420 547.72C1423.35 551.424 1420.84 555.725 1414.98 556.681C1412.47 557.039 1408.89 558.115 1407.1 559.071C1405.19 560.026 1401.96 560.863 1399.93 560.863C1397.78 560.863 1395.03 561.699 1393.83 562.655C1392.52 563.611 1390.25 564.447 1388.7 564.447C1387.14 564.447 1385.95 564.925 1385.95 565.642C1385.95 566.239 1385.23 566.837 1384.4 566.837C1383.56 566.837 1381.05 568.151 1378.9 569.824C1375.32 572.333 1374.12 572.572 1367.43 571.974C1359.07 571.257 1351.3 572.213 1351.3 574.125C1351.3 576.036 1342.58 587.029 1341.03 587.148C1340.19 587.148 1339.35 587.984 1338.87 588.94C1338.52 589.896 1337.08 590.732 1335.77 590.732C1334.45 590.732 1333.38 591.33 1333.38 591.927C1333.38 592.644 1332.06 593.719 1330.39 594.317C1328.72 594.914 1327.4 595.989 1327.4 596.706C1327.4 597.304 1326.69 597.901 1325.85 597.901C1324.9 597.901 1322.98 598.976 1321.43 600.291C1319.88 601.605 1318.2 602.68 1317.61 602.68C1317.13 602.68 1316.65 603.517 1316.65 604.472C1316.65 605.428 1315.82 606.265 1314.86 606.265C1313.9 606.265 1313.07 605.548 1313.07 604.711C1313.07 602.8 1307.81 597.901 1305.66 597.901C1304.7 597.901 1302.91 598.976 1301.72 600.291C1300.52 601.605 1298.25 602.68 1296.7 602.68C1295.03 602.68 1293.95 603.397 1293.95 604.472C1293.95 605.428 1293.35 606.265 1292.52 606.265C1291.8 606.265 1288.81 608.774 1285.95 611.88C1281.17 617.018 1278.42 619.049 1273.64 621.319C1272.68 621.797 1270.06 623.947 1267.9 626.217C1264.8 629.324 1263.01 630.16 1259.3 630.16C1255.84 630.16 1254.52 630.638 1254.52 631.952C1254.52 633.386 1252.97 633.745 1247.71 633.745C1239.71 633.745 1231.46 637.209 1228.48 641.989C1225.49 646.768 1217.84 653.698 1213.54 655.37C1211.39 656.207 1209 657.64 1208.17 658.477C1207.21 659.313 1203.74 660.03 1200.04 660.03C1195.38 660.03 1193.35 660.508 1192.87 661.822C1192.39 662.778 1191.2 663.614 1190.12 663.614C1188.33 663.614 1181.64 670.066 1181.64 671.858C1181.64 672.217 1180.09 674.009 1178.18 675.921C1175.67 678.191 1173.4 679.146 1170.41 679.146C1167.42 679.146 1166.11 679.624 1166.11 680.939C1166.11 682.253 1164.79 682.731 1161.57 682.731C1158.58 682.731 1156.43 683.567 1155 685.12C1153.56 686.793 1151.53 687.51 1148.19 687.51C1144.72 687.51 1143.41 687.988 1143.41 689.302C1143.41 690.258 1142.69 691.094 1141.74 691.094C1140.9 691.094 1139.82 692.05 1139.35 693.125C1138.99 694.32 1137.67 696.829 1136.48 698.86C1134.57 701.847 1133.37 702.445 1128.83 702.803C1125.73 703.042 1122.62 703.998 1121.9 704.954C1121.07 705.91 1118.44 706.626 1115.81 706.626C1113.42 706.626 1110.55 707.463 1109.48 708.419C1108.52 709.374 1107.33 710.211 1106.73 710.211C1106.13 710.211 1104.82 711.286 1103.62 712.6C1102.55 713.915 1100.63 714.99 1099.32 714.99C1098.13 714.99 1096.81 715.826 1096.33 716.782C1095.98 717.857 1094.18 718.574 1092.03 718.574C1090.12 718.574 1088.45 719.052 1088.45 719.65C1088.45 720.247 1087.13 721.083 1085.58 721.442C1083.91 721.8 1082.24 723.473 1081.52 725.385C1079.73 730.283 1072.8 736.854 1066.82 739.364C1063.95 740.558 1059.77 742.231 1057.62 743.187C1055.47 744.143 1052.37 744.86 1050.69 744.86C1049.14 744.86 1047.47 745.696 1047.11 746.652C1046.63 747.608 1045.67 748.444 1044.72 748.444C1043.52 748.444 1043.05 750.117 1043.05 754.418C1043.05 758.958 1042.57 760.392 1041.25 760.392C1040.3 760.392 1039.46 761.228 1039.46 762.184C1039.46 763.379 1038.27 763.976 1035.88 763.976C1033.73 763.976 1031.93 764.693 1031.58 765.768C1031.1 766.724 1029.55 767.56 1027.99 767.56C1026.44 767.56 1024.65 768.636 1023.93 769.95C1023.21 771.264 1021.9 772.34 1020.94 772.34C1019.99 772.34 1019.15 773.176 1019.15 774.132C1019.15 775.566 1017.48 775.924 1011.38 775.924C1005.29 775.924 1003.62 776.282 1003.62 777.716C1003.62 778.791 1002.54 779.508 1000.87 779.508C999.078 779.508 996.808 781.062 994.538 783.929C988.564 791.576 984.502 795.041 981.515 795.041C979.842 795.041 978.528 795.518 978.528 796.116C978.528 796.713 976.736 797.908 974.704 798.744C972.554 799.581 970.045 801.014 969.208 801.851C968.372 802.687 966.819 803.404 965.863 803.404C964.788 803.404 963.235 804.121 962.398 804.838C958.575 808.303 957.022 809.378 956.066 809.378C955.588 809.378 953.198 810.812 950.928 812.484C948.658 814.157 945.074 816.308 943.043 817.144C940.892 818.1 939.1 819.295 939.1 819.773C939.1 820.37 937.308 821.445 935.038 822.282C932.887 823.118 926.077 828.614 919.983 834.468C913.89 840.442 908.394 845.221 907.916 845.221C907.319 845.221 906.841 846.058 906.841 847.014C906.841 848.089 905.765 848.806 903.854 848.806C901.942 848.806 900.867 849.523 900.867 850.598C900.867 851.554 900.03 852.39 899.075 852.39C898.119 852.39 897.282 852.988 897.282 853.704C897.282 854.302 895.371 855.736 893.101 856.691C890.831 857.647 888.919 858.961 888.919 859.559C888.919 860.276 888.083 860.754 887.127 860.754C886.171 860.754 885.335 861.59 885.335 862.546C885.335 863.502 884.498 864.338 883.542 864.338C882.587 864.338 881.75 865.174 881.75 866.13C881.75 867.086 881.272 867.922 880.675 867.922C880.078 867.922 877.569 869.834 875.059 872.104C872.55 874.374 869.563 876.286 868.369 876.286C867.174 876.286 866.218 877.122 866.218 878.078C866.218 879.034 865.621 879.87 864.904 879.87C863.231 879.87 857.855 885.486 857.855 887.158C857.855 887.756 857.018 888.234 856.062 888.234C855.107 888.234 854.27 889.309 854.27 890.504C854.27 892.774 845.787 897.792 838.738 899.584C835.512 900.421 831.091 903.646 830.255 905.678C829.538 907.709 824.281 914.28 819.144 919.657C813.05 926.108 807.076 930.051 803.611 930.051C802.058 930.051 800.146 930.888 799.31 931.843C798.474 932.799 796.801 933.635 795.606 933.635C794.292 933.635 793.336 934.472 793.336 935.428C793.336 936.384 792.739 937.22 792.022 937.22C791.425 937.22 789.991 939.132 789.035 941.402C788.079 943.672 786.765 945.583 786.168 945.583C785.451 945.583 784.973 946.42 784.973 947.376C784.973 948.331 784.136 949.168 783.181 949.168C782.225 949.168 781.388 950.004 781.388 950.96C781.388 951.916 780.672 952.752 779.716 952.752C778.76 952.752 777.565 953.827 777.207 955.142C776.848 956.456 775.653 957.531 774.698 957.531C773.742 957.531 773.025 958.368 773.025 959.323C773.025 960.757 771.233 961.116 764.303 961.116C756.656 961.116 755.223 961.474 752.953 963.864C751.519 965.417 750.324 967.448 750.324 968.404C750.324 969.36 749.249 971.869 747.934 974.019C746.62 976.17 745.545 978.559 745.545 979.515C745.545 980.352 743.514 982.024 741.124 983.339C738.615 984.533 734.553 986.803 732.163 988.237C729.654 989.79 726.906 990.985 725.95 990.985C724.995 990.985 724.039 991.822 723.561 992.777C723.202 993.733 722.008 994.57 720.813 994.57C718.901 994.689 712.091 999.588 712.091 1001.02C712.091 1001.26 710.179 1003.53 707.909 1006.04C705.639 1008.43 703.727 1011.18 703.727 1012.13C703.727 1012.97 702.891 1014.04 701.935 1014.4C700.979 1014.88 700.143 1015.84 700.143 1016.79C700.143 1017.75 699.307 1018.47 698.351 1018.47C697.276 1018.47 696.559 1019.66 696.559 1021.57C696.559 1023.84 695.603 1024.92 692.377 1026.35C690.107 1027.31 688.195 1028.62 688.195 1029.22C688.195 1029.94 687.239 1030.41 685.925 1030.41C684.73 1030.41 683.058 1031.25 682.221 1032.21C681.385 1033.16 679.951 1034 678.995 1034C678.159 1034 677.084 1034.83 676.725 1035.79C676.247 1036.75 675.292 1037.58 674.336 1037.58C673.38 1037.58 672.663 1038.3 672.663 1039.25C672.663 1040.21 671.588 1041.41 670.273 1041.76C668.959 1042.12 667.884 1042.84 667.884 1043.32C667.884 1043.79 666.57 1045.59 664.897 1047.38C663.224 1049.17 661.312 1051.92 660.715 1053.35C658.684 1058.01 656.772 1060.52 649.962 1067.09C646.378 1070.56 642.554 1073.43 641.36 1073.43C640.165 1073.43 639.209 1073.9 639.209 1074.62C639.209 1075.22 636.58 1075.81 633.355 1075.81C627.859 1075.81 627.142 1076.17 619.495 1083.58C615.074 1087.88 610.773 1091.35 609.817 1091.35C608.861 1091.35 608.145 1092.18 608.145 1093.14C608.145 1094.1 607.547 1094.93 606.83 1094.93C605.158 1094.93 599.781 1100.55 599.781 1102.22C599.781 1102.82 598.945 1103.29 597.989 1103.29C597.033 1103.29 596.197 1104.13 596.197 1105.09C596.197 1106.04 595.599 1106.88 594.883 1106.88C593.21 1106.88 587.833 1112.49 587.833 1114.17C587.833 1114.76 586.997 1115.24 586.041 1115.24C585.085 1115.24 584.249 1116.08 584.249 1117.03C584.249 1117.99 583.771 1118.83 583.174 1118.83C582.218 1118.83 572.301 1128.15 572.301 1128.98C572.301 1129.22 567.402 1134.24 561.429 1140.09C555.455 1146.07 549.481 1152.88 548.166 1155.51C545.538 1160.41 542.073 1164.23 540.042 1164.23C539.444 1164.23 538.847 1164.95 538.847 1165.9C538.847 1166.86 536.935 1168.29 534.665 1169.01C532.395 1169.72 530.484 1170.92 530.484 1171.52C530.484 1172.11 529.647 1172.59 528.691 1172.59C527.377 1172.59 526.899 1174.03 526.899 1178.45C526.899 1182.15 526.302 1184.78 525.107 1185.74C524.151 1186.57 523.315 1188.36 523.315 1189.8C523.315 1193.38 522.001 1194.82 518.297 1195.77C516.385 1196.13 514.951 1197.32 514.951 1198.28C514.951 1199.24 514.115 1200.07 513.159 1200.07C512.203 1200.07 511.367 1200.91 511.367 1201.86C511.367 1202.82 510.889 1203.66 510.172 1203.66C508.739 1203.66 503.004 1209.39 503.004 1210.83C503.004 1211.54 502.167 1212.02 501.211 1212.02C500.256 1212.02 499.419 1212.86 499.419 1213.81C499.419 1215.01 498.224 1215.6 495.835 1215.6C493.923 1215.6 492.251 1216.08 492.251 1216.68C492.251 1217.28 489.98 1218.95 487.352 1220.38C481.975 1223.13 478.511 1226.72 477.196 1230.54C476.718 1231.85 475.524 1233.88 474.448 1234.96C470.266 1239.38 469.55 1240.81 469.55 1244.88C469.55 1247.74 469.072 1249.06 467.757 1249.06C466.563 1249.06 465.965 1250.25 465.965 1252.64C465.965 1255.75 465.368 1256.35 462.261 1257.06C460.23 1257.42 458.319 1258.5 457.96 1259.33C457.602 1260.29 455.81 1261.01 454.017 1261.01C452.106 1261.01 450.433 1261.84 449.955 1262.8C449.597 1263.75 448.521 1264.59 447.446 1264.59C446.49 1264.59 445.654 1265.07 445.654 1265.67C445.654 1267.34 440.277 1272.95 438.605 1272.95C437.888 1272.95 437.29 1273.79 437.29 1274.75C437.29 1275.7 436.454 1276.54 435.498 1276.54C434.542 1276.54 433.706 1277.38 433.706 1278.33C433.706 1279.41 432.87 1280.48 431.914 1280.84C430.839 1281.32 430.122 1283.11 430.122 1285.02C430.122 1286.93 429.524 1288.49 428.688 1288.49C427.852 1288.49 425.821 1291.23 424.267 1294.46C422.595 1297.81 420.563 1300.43 419.727 1300.43C418.891 1300.43 418.174 1301.15 418.174 1301.99C418.174 1303.9 413.873 1307.6 411.842 1307.6C411.005 1307.6 409.094 1308.68 407.66 1309.99C406.226 1311.31 404.075 1312.38 402.642 1312.38C401.208 1312.38 400.252 1313.22 400.252 1314.53C400.252 1315.61 399.057 1317.88 397.504 1319.55C394.039 1323.37 388.304 1335.2 388.304 1338.55C388.304 1339.98 387.468 1341.42 386.512 1341.77C385.556 1342.25 384.72 1343.21 384.72 1344.16C384.72 1345.12 383.884 1345.84 382.928 1345.84C381.972 1345.84 381.136 1346.67 381.136 1347.63C381.136 1348.58 380.299 1349.42 379.343 1349.42C378.388 1349.42 377.551 1350.26 377.551 1351.21C377.551 1352.17 376.476 1353.48 375.162 1354.2C373.728 1354.92 372.772 1356.71 372.772 1358.38C372.772 1360.29 372.055 1361.37 370.98 1361.37C370.024 1361.37 369.188 1361.85 369.188 1362.56C369.188 1364.71 359.629 1373.32 357.24 1373.32C355.926 1373.32 354.492 1374.15 354.133 1375.11C353.656 1376.06 352.819 1376.9 352.222 1376.9C350.071 1376.9 345.292 1382.87 345.292 1385.38C345.292 1386.7 344.456 1388.01 343.5 1388.37C342.544 1388.85 341.708 1389.68 341.708 1390.52C341.708 1391.24 338.96 1394.7 335.734 1398.29C332.388 1401.87 329.76 1404.98 329.76 1405.22C329.76 1405.81 323.666 1412.62 319.365 1416.93C317.215 1419.08 314.347 1423.02 313.033 1425.77C311.599 1428.4 309.926 1430.67 309.329 1430.67C308.732 1430.67 308.254 1431.5 308.254 1432.46C308.254 1433.41 307.776 1434.25 307.298 1434.25C306.701 1434.25 305.625 1436.16 304.669 1438.43C303.714 1440.7 302.28 1442.61 301.443 1442.61C300.607 1442.61 299.89 1443.33 299.89 1444.29C299.89 1446.56 291.168 1458.15 289.496 1458.15C288.659 1458.15 287.942 1459.22 287.942 1460.54C287.942 1461.85 287.106 1463.28 286.15 1463.64C285.194 1464.12 284.358 1465.67 284.358 1467.23C284.358 1468.78 283.88 1470.09 283.163 1470.09C282.566 1470.09 281.61 1471.53 281.252 1473.32C280.774 1475.23 279.459 1477.98 278.145 1479.53C276.95 1481.09 275.995 1483.12 275.995 1483.95C275.995 1484.91 275.158 1485.63 274.202 1485.63C273.127 1485.63 272.41 1486.7 272.41 1488.61C272.41 1490.29 271.574 1491.96 270.618 1492.32C269.662 1492.79 268.826 1493.51 268.826 1493.99C268.826 1496.02 263.449 1503.43 262.016 1503.55C260.104 1503.55 259.984 1507.13 261.777 1507.13C262.493 1507.13 263.808 1506.42 264.644 1505.58C268.228 1502.47 269.901 1501.16 270.499 1501.16C272.171 1501.16 275.995 1496.86 275.995 1494.83C275.995 1493.75 276.831 1492.44 277.787 1492.08C278.743 1491.6 279.579 1490.64 279.579 1489.69C279.579 1487.18 284.716 1479.65 286.509 1479.65C287.226 1479.65 287.942 1478.82 287.942 1477.86C287.942 1476.9 288.898 1476.07 290.093 1476.07C291.168 1476.07 297.023 1472.48 302.877 1468.06C308.851 1463.64 314.706 1459.46 316.02 1458.74C320.56 1456.35 332.747 1447.99 333.105 1447.03C333.344 1446.56 334.3 1446.2 335.256 1446.2C336.212 1446.2 336.929 1445.72 336.929 1445C336.929 1443.57 342.664 1437.83 344.097 1437.83C344.814 1437.83 345.292 1437 345.292 1436.04C345.292 1435.09 346.128 1434.25 347.084 1434.25C348.04 1434.25 348.876 1433.65 348.876 1433.06C348.876 1431.5 358.076 1422.3 359.629 1422.3C360.346 1422.3 360.824 1421.82 360.824 1421.11C360.824 1419.55 373.608 1406.77 375.162 1406.77C375.879 1406.77 376.356 1406.29 376.356 1405.69C376.356 1405.1 377.79 1404.02 379.582 1403.31C385.317 1400.92 389.858 1397.93 393.083 1394.34C401.327 1384.91 408.018 1379.29 411.125 1379.29C413.156 1379.29 421.758 1371.29 421.758 1369.25C421.878 1367.46 427.374 1361.37 428.927 1361.37C429.524 1361.37 430.122 1360.89 430.122 1360.17C430.122 1358.5 439.083 1349.42 440.636 1349.42C441.472 1349.42 442.07 1348.58 442.07 1347.63C442.07 1346.67 442.906 1345.84 443.862 1345.84C444.818 1345.84 445.654 1345.24 445.654 1344.4C445.654 1342.85 454.734 1333.89 456.407 1333.89C457.124 1333.89 457.602 1333.41 457.602 1332.69C457.602 1330.66 462.739 1325.52 464.89 1325.52C465.965 1325.52 467.518 1324.69 468.355 1323.73C469.191 1322.78 471.103 1321.94 472.537 1321.94C474.09 1321.94 475.524 1321.1 476.001 1320.15C476.36 1319.19 477.674 1318.36 478.869 1318.36C480.064 1318.36 487.352 1312.14 494.999 1304.62C505.274 1294.46 509.694 1290.88 511.964 1290.88C513.637 1290.88 514.951 1290.28 514.951 1289.68C514.951 1288.96 515.668 1288.49 516.505 1288.49C517.938 1288.49 522.359 1285.14 528.333 1279.53C530.125 1277.85 532.395 1276.54 533.471 1276.54C534.426 1276.54 535.621 1275.82 535.98 1274.87C536.338 1273.91 538.13 1272.95 540.042 1272.48C543.626 1271.88 548.405 1267.94 548.405 1265.79C548.405 1265.07 549.122 1264.59 550.078 1264.59C551.034 1264.59 552.468 1263.04 553.423 1261.01C554.26 1259.09 555.335 1257.42 555.694 1257.42C556.171 1257.42 556.769 1256.35 557.127 1255.03C557.486 1253.48 558.8 1252.64 560.712 1252.64C562.384 1252.64 563.938 1251.81 564.415 1250.85C564.774 1249.89 566.447 1249.06 568.239 1249.06C571.345 1249.06 578.036 1245.12 579.828 1242.25C580.306 1241.41 581.62 1240.7 582.457 1240.7C583.413 1240.7 584.249 1239.86 584.249 1238.9C584.249 1237.95 585.085 1237.11 586.041 1237.11C586.997 1237.11 587.833 1236.27 587.833 1235.32C587.833 1234.36 588.67 1233.53 589.625 1233.53C590.581 1233.53 591.418 1233.05 591.418 1232.33C591.418 1230.9 597.153 1225.16 598.586 1225.16C599.303 1225.16 599.781 1224.45 599.781 1223.61C599.781 1222.89 602.051 1221.1 604.68 1219.79C607.428 1218.47 610.295 1216.56 611.012 1215.37C611.729 1214.17 612.924 1213.22 613.76 1213.22C614.596 1213.22 615.313 1212.38 615.313 1211.42C615.313 1210.47 615.911 1209.63 616.508 1209.63C617.225 1209.63 618.3 1208.32 618.898 1206.64C619.495 1204.97 620.57 1203.66 621.287 1203.66C621.885 1203.66 622.482 1203.06 622.482 1202.22C622.482 1200.67 635.147 1188.12 636.819 1188.12C637.417 1188.12 639.806 1186.21 642.076 1183.94C644.466 1181.67 646.856 1179.76 647.572 1179.76C648.17 1179.76 648.767 1179.04 648.767 1178.09C648.767 1177.01 650.679 1176.3 654.263 1175.82C657.37 1175.58 660.118 1174.74 660.596 1174.03C660.954 1173.31 662.746 1172.47 664.538 1172C666.211 1171.52 669.198 1169.61 671.11 1167.69C672.902 1165.9 675.411 1164.23 676.486 1164.23C677.681 1164.23 680.549 1162.32 682.938 1160.05C685.208 1157.78 688.195 1155.87 689.509 1155.87C690.704 1155.87 691.78 1155.39 691.78 1154.79C691.78 1154.19 694.169 1152.4 697.156 1150.97C700.143 1149.53 702.533 1147.86 702.533 1147.26C702.533 1146.79 704.564 1145.35 706.953 1144.04C709.462 1142.72 715.197 1138.18 719.737 1133.88C724.278 1129.58 728.459 1126 728.937 1126C730.729 1126 738.376 1118.59 738.376 1116.92C738.376 1115.96 738.974 1115.24 739.571 1115.24C740.288 1115.24 741.244 1114.29 741.602 1113.21C743.036 1109.39 746.74 1106.88 750.802 1106.88C753.072 1106.88 755.701 1106.04 756.776 1105.09C757.732 1104.13 759.404 1103.29 760.599 1103.29C762.75 1103.29 773.025 1092.9 773.025 1090.63C773.025 1089.32 781.986 1082.98 783.897 1082.98C784.495 1082.98 784.973 1082.15 784.973 1081.19C784.973 1080.24 785.929 1079.4 787.004 1079.4C788.079 1079.4 791.664 1076.65 794.77 1073.43C797.876 1070.08 800.983 1067.45 801.7 1067.45C802.297 1067.45 802.894 1066.62 802.894 1065.66C802.894 1064.7 803.731 1063.87 804.687 1063.87C805.643 1063.87 809.107 1062.07 812.214 1059.92C821.414 1053.71 822.489 1053.11 824.759 1052.4C825.834 1051.92 826.79 1051.2 826.79 1050.49C826.79 1049.89 829.897 1047.98 833.72 1046.18C841.247 1042.6 852.478 1035.19 858.333 1030.05C860.364 1028.14 863.709 1025.99 865.621 1025.16C869.205 1023.6 874.94 1018.7 875.896 1016.55C877.688 1012.49 882.706 1006.52 884.498 1006.52C885.693 1006.52 886.888 1005.68 887.246 1004.73C887.724 1003.77 889.158 1002.93 890.592 1002.93C893.34 1002.93 899.672 998.034 899.672 995.884C899.672 995.167 900.508 994.57 901.464 994.57C902.42 994.57 903.256 993.733 903.256 992.777C903.256 991.822 903.734 990.985 904.451 990.985C905.049 990.985 906.482 989.074 907.558 986.803C908.633 984.533 909.947 982.622 910.545 982.622C911.142 982.622 911.62 981.785 911.62 980.83C911.62 979.874 912.456 979.037 913.412 979.037C914.368 979.037 915.204 978.201 915.204 977.245C915.204 976.17 915.921 975.095 916.877 974.736C917.833 974.378 918.789 973.063 919.147 971.749C919.864 969.24 923.568 968.643 923.568 971.032C923.568 973.422 928.705 979.037 930.856 979.037C931.812 979.037 933.484 978.081 934.56 976.887C935.635 975.811 937.905 973.78 939.578 972.466C947.702 966.253 954.513 960.399 954.513 959.562C954.632 958.965 955.349 957.77 956.185 956.934C959.65 952.991 960.606 951.557 960.606 950.362C960.606 949.765 961.442 949.168 962.398 949.168C963.354 949.168 964.19 948.331 964.19 947.376C964.19 946.42 964.549 945.583 965.146 945.583C965.624 945.583 967.058 943.672 968.253 941.402C969.567 939.132 971.001 937.22 971.598 937.22C972.076 937.22 972.554 936.384 972.554 935.428C972.554 934.472 973.032 933.635 973.629 933.635C974.227 933.635 975.182 932.202 975.899 930.29C977.453 925.75 985.338 917.745 987.489 918.581C988.445 918.94 989.52 920.612 989.998 922.285C990.834 925.63 994.896 926.467 995.972 923.48C996.45 922.524 997.405 921.688 998.361 921.688C999.317 921.688 1000.03 920.851 1000.03 919.896C1000.03 918.94 1000.87 918.103 1001.83 918.103C1002.78 918.103 1003.62 917.625 1003.62 916.909C1003.62 916.311 1004.93 914.399 1006.61 912.727C1009.23 910.218 1010.79 909.74 1016.28 909.74C1023.45 909.74 1027.16 907.948 1032.65 901.615C1034.56 899.584 1036.83 897.792 1037.79 897.792C1038.74 897.792 1039.46 897.314 1039.46 896.717C1039.46 896.119 1040.54 895.163 1041.85 894.805C1043.17 894.327 1045.79 892.654 1047.59 890.982C1049.38 889.309 1052.48 887.158 1054.64 886.322C1056.67 885.366 1058.7 884.171 1059.18 883.455C1059.53 882.857 1060.97 882.26 1062.28 882.26C1063.48 882.26 1064.55 881.543 1064.55 880.707C1064.55 879.153 1067.06 875.45 1070.88 871.387C1071.96 870.073 1072.92 868.042 1072.92 866.728C1072.92 865.294 1073.75 864.338 1074.83 864.338C1076.02 864.338 1079.13 862.426 1082 860.156C1084.74 857.886 1088.09 855.975 1089.4 855.975C1090.72 855.975 1092.39 855.138 1093.23 854.182C1094.06 853.107 1096.69 852.39 1099.68 852.39C1104.46 852.39 1108.76 849.523 1108.76 846.416C1108.76 845.699 1109.6 844.863 1110.55 844.505C1111.51 844.027 1112.34 843.071 1112.34 842.115C1112.34 841.159 1113.18 840.442 1114.14 840.442C1115.09 840.442 1115.93 839.606 1115.93 838.65C1115.93 837.455 1117.12 836.858 1119.51 836.858C1121.66 836.858 1123.46 836.141 1123.81 835.066C1124.29 834.11 1125.25 833.274 1126.2 833.274C1129.07 833.274 1133.85 830.526 1133.85 828.853C1133.85 828.017 1134.93 826.344 1136.24 825.269C1137.55 824.074 1138.63 822.521 1138.63 821.684C1138.63 820.967 1140.42 818.578 1142.57 816.666C1145.56 813.679 1147.47 812.962 1151.53 812.962C1155 812.962 1156.91 812.365 1157.27 811.17C1157.75 810.214 1159.42 809.378 1161.33 809.378C1163.12 809.378 1164.91 808.661 1165.27 807.705C1165.63 806.869 1167.54 805.794 1169.57 805.435C1171.72 804.957 1173.28 803.882 1173.28 802.807C1173.28 801.851 1173.88 801.014 1174.47 801.014C1176.26 801.014 1181.64 795.041 1181.64 793.129C1181.64 792.173 1182.48 791.456 1183.43 791.456C1184.39 791.456 1185.23 790.739 1185.23 789.783C1185.23 788.828 1188.69 785.721 1192.99 782.973C1197.29 780.225 1200.76 777.597 1200.76 776.999C1200.76 776.521 1203.03 775.805 1205.9 775.327C1211.99 774.251 1218.32 770.667 1219.28 767.56C1220.23 764.574 1232.78 752.028 1234.81 752.028C1235.76 752.028 1238.03 750.595 1239.83 748.922C1241.62 747.13 1244.96 744.979 1247.12 744.143C1249.15 743.187 1250.94 741.873 1250.94 741.275C1250.94 740.558 1253.09 740.08 1255.72 740.08C1258.94 740.08 1260.86 739.483 1261.21 738.288C1261.69 736.974 1263.72 736.496 1267.79 736.496C1271.97 736.496 1273.64 736.018 1273.64 734.823C1273.64 733.987 1275.31 732.553 1277.34 731.717C1281.64 729.925 1289.17 722.876 1289.17 720.725C1289.17 718.455 1303.27 704.117 1309.48 700.055C1312.47 698.143 1316.05 695.276 1317.49 693.842C1318.92 692.289 1320.71 691.094 1321.43 691.094C1322.03 691.094 1323.7 690.019 1325.02 688.705C1326.33 687.39 1328.48 686.315 1329.91 686.315C1331.23 686.315 1334.69 685.24 1337.68 683.926C1341.86 682.014 1342.94 680.819 1342.94 678.549C1342.94 676.637 1343.65 675.562 1344.73 675.562C1345.69 675.562 1346.52 674.487 1346.52 673.172C1346.52 671.858 1347.36 670.783 1348.31 670.783C1349.39 670.783 1350.46 669.947 1350.82 668.991C1351.42 667.677 1353.57 667.199 1360.14 667.199C1369.22 667.199 1369.7 666.96 1374.36 659.671C1377.59 654.653 1380.33 651.666 1381.77 651.666C1382.36 651.666 1385.11 649.755 1387.74 647.485C1390.37 645.215 1393.48 643.303 1394.67 643.303C1395.87 643.303 1397.06 642.467 1397.42 641.511C1397.9 640.316 1399.81 639.719 1403.39 639.719C1407.81 639.719 1409.25 639.002 1413.67 634.581C1416.54 631.833 1420.96 626.934 1423.58 623.589C1428.13 617.973 1434.82 611.044 1438.88 607.698C1439.95 606.981 1442.22 606.265 1443.9 606.265C1445.57 606.265 1447.24 605.548 1447.6 604.592C1447.96 603.636 1449.75 602.441 1451.66 602.083C1453.57 601.724 1455.72 600.53 1456.56 599.574C1457.28 598.618 1459.19 597.901 1460.86 597.901C1462.42 597.901 1463.97 597.065 1464.33 596.109C1464.81 595.034 1466.6 594.317 1468.99 594.317C1471.14 594.317 1473.53 593.6 1474.24 592.644C1474.96 591.808 1477.11 590.732 1479.02 590.374C1480.93 590.016 1483.32 588.821 1484.28 587.745C1485.36 586.79 1486.67 585.953 1487.39 585.953C1488.1 585.953 1488.7 585.117 1488.7 584.161C1488.7 583.205 1489.78 582.369 1490.97 582.369C1492.17 582.369 1493.48 581.533 1493.96 580.577C1494.32 579.621 1495.15 578.785 1495.87 578.785C1497.54 578.785 1511.52 568.151 1519.53 560.743C1522.99 557.517 1526.69 554.889 1527.77 554.889C1530.28 554.889 1540.08 546.884 1540.08 544.733C1540.08 543.897 1540.91 542.941 1541.87 542.463C1542.82 542.105 1543.66 540.91 1543.66 539.715C1543.78 537.326 1547.13 534.578 1553.22 532.188C1558.24 530.157 1569.23 523.705 1569.71 522.391C1569.95 521.913 1570.9 521.435 1571.86 521.435C1572.81 521.435 1573.53 520.718 1573.53 519.762C1573.53 518.806 1575.08 517.731 1577 517.253C1578.91 516.895 1581.18 515.7 1582.01 514.744C1582.73 513.788 1584.64 513.071 1586.2 513.071C1587.75 513.071 1589.66 512.235 1590.5 511.16C1591.33 510.084 1593.24 508.053 1594.8 506.5C1596.23 505.066 1597.43 503.274 1597.43 502.438C1597.43 501.721 1597.9 501.124 1598.62 501.124C1599.22 501.124 1600.53 499.451 1601.61 497.539C1602.68 495.389 1604.36 493.955 1605.79 493.955C1606.98 493.955 1608.54 493.238 1609.02 492.402C1610.57 489.773 1617.38 485.591 1619.89 485.591C1621.2 485.591 1623.11 484.755 1624.19 483.799C1625.15 482.843 1627.53 482.007 1629.45 482.007C1631.48 482.007 1633.27 481.649 1633.51 481.051C1633.87 480.334 1637.33 478.184 1645.58 474.002C1647.37 473.046 1648.8 471.732 1648.8 471.134C1648.8 470.537 1650.12 470.059 1651.67 470.059C1653.22 470.059 1655.13 469.223 1655.97 468.267C1656.81 467.311 1658.48 466.475 1659.55 466.475C1660.75 466.475 1661.94 466.116 1662.18 465.519C1662.42 465.041 1665.53 462.293 1669.11 459.306C1676.04 453.691 1682.26 447.717 1682.26 446.761C1682.26 445.805 1679.39 446.163 1677.48 447.358Z" fill="#C22033"/>
<path d="M1483.33 997.437C1479.26 999.946 1477.11 1000.3 1469.94 1000.18C1464.45 1000.07 1460.86 1000.42 1459.91 1001.38C1458.12 1003.17 1453.1 1003.41 1450.71 1001.86C1449.15 1000.9 1441.39 1002.93 1437.09 1005.32C1435.89 1006.04 1432.31 1006.52 1429.08 1006.52C1424.9 1006.52 1422.75 1007.11 1422.03 1008.43C1421.32 1009.74 1418.21 1010.58 1412.36 1011.3C1407.58 1011.77 1403.04 1012.85 1402.32 1013.57C1401.6 1014.28 1399.21 1014.88 1397.06 1014.88C1394.79 1014.88 1391.09 1015.72 1388.7 1016.67C1386.43 1017.63 1383.2 1018.47 1381.77 1018.47C1380.22 1018.47 1378.78 1019.3 1378.3 1020.26C1377.95 1021.21 1376.63 1022.05 1375.2 1022.05C1373.88 1022.05 1372.21 1023.12 1371.37 1024.44C1370.18 1026.35 1368.51 1026.83 1362.89 1026.83C1358.23 1026.83 1355.24 1027.43 1354.17 1028.62C1353.09 1029.58 1351.3 1030.41 1350.11 1030.41C1348.79 1030.41 1347.36 1031.37 1346.64 1032.44C1345.57 1034.48 1345.33 1034.48 1341.98 1032.44C1337.08 1029.7 1336.96 1029.82 1336.96 1034.95C1336.96 1041.64 1335.53 1042.36 1323.1 1042.36C1314.86 1042.36 1311.63 1042.84 1310.2 1044.15C1309.25 1045.11 1306.86 1045.95 1304.82 1045.95C1302.79 1045.95 1301.12 1046.42 1301.12 1047.14C1301.12 1049.41 1295.27 1049.89 1292.16 1047.86C1288.46 1045.47 1285.59 1045.35 1285.59 1047.74C1285.59 1048.69 1284.75 1049.53 1283.8 1049.53C1282.84 1049.53 1282 1050.25 1282 1051.2C1282 1052.04 1281.05 1053.11 1279.97 1053.47C1277.46 1054.31 1270.89 1058.13 1270.06 1059.33C1269.7 1059.69 1267.91 1060.52 1266.11 1060.88C1264.32 1061.36 1262.53 1062.19 1262.17 1062.79C1260.86 1065.06 1258.11 1063.75 1258.11 1060.88C1258.11 1058.97 1257.39 1057.89 1256.32 1057.89C1255.36 1057.89 1254.52 1058.37 1254.52 1058.85C1254.52 1059.45 1251.66 1061.12 1248.19 1062.55C1244.73 1063.99 1240.07 1066.85 1237.92 1068.77C1235.65 1070.68 1232.54 1072.59 1230.99 1072.95C1229.55 1073.43 1228.24 1074.14 1228.24 1074.74C1228.24 1075.34 1224.18 1075.81 1219.28 1075.81C1209.96 1075.81 1204.34 1077.85 1204.34 1081.31C1204.34 1082.27 1203.51 1082.98 1202.55 1082.98C1201.6 1082.98 1200.76 1083.46 1200.76 1084.18C1200.76 1084.78 1199.92 1085.37 1198.97 1085.37C1198.01 1085.37 1197.17 1085.85 1197.17 1086.45C1197.17 1086.93 1194.67 1087.76 1191.56 1088.12C1188.45 1088.48 1185.7 1089.32 1185.47 1090.03C1185.23 1090.75 1183.2 1091.35 1180.93 1091.35C1178.06 1091.35 1176.86 1091.94 1176.86 1093.14C1176.86 1094.09 1176.03 1094.93 1175.07 1094.93C1174.12 1094.93 1173.28 1095.65 1173.28 1096.6C1173.28 1098.4 1169.69 1099.71 1164.56 1099.71C1162.65 1099.71 1160.38 1100.55 1159.42 1101.5C1158.34 1102.46 1155.48 1103.29 1152.85 1103.29C1149.5 1103.29 1148.19 1103.77 1148.19 1105.09C1148.19 1106.04 1147.11 1106.88 1145.8 1106.88C1144.48 1106.88 1143.41 1107.6 1143.41 1108.55C1143.41 1110.1 1137.67 1111.66 1131.7 1111.66C1130.15 1111.66 1128.12 1112.49 1127.16 1113.45C1126.08 1114.41 1123.81 1115.24 1122.02 1115.24C1120.11 1115.24 1117.96 1115.96 1117.12 1116.92C1116.41 1117.87 1114.61 1118.83 1113.18 1119.07C1111.75 1119.3 1109.96 1120.86 1109.12 1122.53C1108.28 1124.32 1106.01 1126.35 1103.98 1127.19C1102.07 1128.03 1100.4 1129.1 1100.4 1129.7C1100.4 1130.18 1097.05 1130.77 1092.99 1131.01L1085.46 1131.37L1085.1 1135.67C1084.75 1140.21 1081.64 1142.72 1076.38 1142.72C1075.07 1142.72 1073.75 1143.56 1073.39 1144.51C1072.92 1145.71 1071.01 1146.31 1067.54 1146.31C1064.67 1146.31 1061.93 1146.78 1061.57 1147.5C1061.21 1148.1 1059.54 1148.7 1057.86 1148.7C1056.07 1148.7 1055 1149.41 1055 1150.49C1055 1151.44 1054.52 1152.28 1053.8 1152.28C1053.2 1152.28 1051.53 1153.36 1050.22 1154.67C1048.9 1155.98 1046.27 1157.06 1044.12 1157.06C1042.09 1157.06 1039.7 1157.9 1038.75 1158.85C1037.67 1159.81 1035.88 1160.64 1034.56 1160.64C1033.25 1160.64 1031.94 1161.48 1031.58 1162.44C1031.1 1163.51 1029.31 1164.23 1027.4 1164.23C1025.48 1164.23 1023.93 1164.83 1023.93 1165.42C1023.93 1166.14 1022.98 1166.98 1021.9 1167.45C1016.52 1169.13 1008.88 1173.19 1008.04 1174.62C1007.56 1175.46 1006.01 1176.18 1004.81 1176.18C1003.5 1176.18 1002.42 1176.77 1002.42 1177.37C1002.42 1178.09 1001.47 1179.04 1000.39 1179.4C999.199 1179.88 996.57 1181.91 994.42 1184.18C992.03 1186.69 989.521 1188.12 987.609 1188.12C985.698 1188.12 984.503 1188.84 984.503 1189.92C984.503 1190.87 983.428 1191.71 982.113 1191.71C980.68 1191.71 977.812 1193.62 975.423 1195.89C973.153 1198.16 970.166 1200.07 968.971 1200.07C967.657 1200.07 966.581 1200.91 966.581 1201.86C966.581 1202.82 965.745 1203.66 964.789 1203.66C963.714 1203.66 962.638 1204.49 962.28 1205.45C961.802 1206.4 960.846 1207.24 959.89 1207.24C958.935 1207.24 958.218 1208.08 958.218 1209.03C958.218 1210.35 956.903 1210.83 953.558 1210.83C949.018 1210.83 942.686 1215.01 942.686 1217.99C942.686 1218.59 942.088 1219.19 941.491 1219.19C940.774 1219.19 938.623 1220.86 936.592 1222.89C934.561 1224.92 931.335 1226.84 928.945 1227.19C926.675 1227.55 924.166 1228.63 923.449 1229.46C922.733 1230.42 921.657 1231.14 921.06 1231.14C918.67 1231.14 915.205 1235.44 915.205 1238.54V1241.89H906.484H897.642L892.744 1247.39C889.996 1250.37 887.725 1253.48 887.725 1254.43C887.725 1256.23 885.097 1257.42 881.154 1257.42C879.72 1257.42 878.167 1258.26 877.689 1259.21C877.331 1260.29 875.539 1261.01 873.388 1261.01C870.998 1261.01 869.804 1261.6 869.804 1262.8C869.804 1263.75 869.326 1264.59 868.609 1264.59C866.936 1264.59 857.856 1273.55 857.856 1275.1C857.856 1275.94 857.019 1276.54 856.064 1276.54C855.108 1276.54 854.271 1277.37 854.271 1278.33C854.271 1279.41 853.196 1280.12 851.404 1280.12C849.731 1280.12 847.7 1280.96 846.744 1281.91C845.788 1282.75 843.638 1283.95 841.846 1284.42C840.173 1284.78 838.739 1285.86 838.739 1286.81C838.739 1287.77 837.664 1288.49 836.35 1288.49C835.035 1288.49 833.96 1289.2 833.96 1290.16C833.96 1291.11 833.124 1292.07 832.168 1292.55C831.212 1292.91 830.376 1293.74 830.376 1294.34C830.376 1296.13 822.132 1304.02 820.22 1304.02C819.384 1304.02 818.428 1304.62 818.189 1305.33C817.95 1306.05 815.083 1306.89 811.857 1307.24C807.316 1307.84 804.807 1308.92 801.342 1311.9C798.953 1314.17 796.324 1315.97 795.727 1315.97C794.293 1315.97 792.621 1317.28 787.005 1322.66C784.854 1324.69 781.031 1327.56 778.403 1329.11C775.774 1330.66 771.353 1334.25 768.605 1337.11C765.857 1339.98 763.348 1342.25 762.99 1342.25C761.676 1342.25 753.91 1350.02 753.91 1351.33C753.91 1352.17 752.834 1353.12 751.639 1353.6C750.325 1353.96 749.011 1355.04 748.652 1355.99C748.294 1356.95 746.621 1357.78 744.949 1357.78C743.037 1357.78 741.962 1358.5 741.962 1359.58C741.962 1360.53 741.484 1361.37 740.767 1361.37C740.17 1361.37 739.572 1363.04 739.572 1364.95C739.572 1367.1 738.855 1368.9 737.78 1369.25C736.824 1369.73 735.988 1370.69 735.988 1371.64C735.988 1372.6 734.912 1373.32 733.718 1373.32C732.523 1373.32 731.209 1374.15 730.731 1375.11C730.372 1376.06 729.297 1376.9 728.222 1376.9C727.266 1376.9 724.518 1378.81 722.128 1381.08C719.619 1383.47 716.632 1385.26 714.96 1385.26C713.167 1385.26 712.092 1385.98 712.092 1387.06C712.092 1388.01 711.375 1388.85 710.539 1388.85C708.388 1388.85 700.144 1397.81 700.144 1400.08C700.144 1402.47 695.007 1407.96 692.737 1407.96C690.466 1407.96 684.612 1410.71 684.612 1411.79C684.612 1412.39 684.015 1412.74 683.298 1412.74C681.625 1412.74 672.664 1421.59 672.664 1423.26C672.664 1423.97 672.186 1424.69 671.708 1424.93C671.23 1425.05 669.558 1427.32 668.005 1429.71C665.854 1433.29 664.54 1434.25 661.792 1434.25C659.88 1434.25 657.968 1434.97 657.61 1435.92C657.251 1436.88 655.698 1437.95 654.026 1438.31C652.472 1438.79 651.158 1439.87 651.158 1440.82C651.158 1441.78 650.561 1442.61 649.844 1442.61C649.246 1442.61 647.813 1444.53 646.857 1446.8C645.901 1449.07 644.706 1450.98 644.109 1450.98C643.511 1450.98 642.795 1452.53 642.436 1454.56C641.958 1456.47 641.122 1458.15 640.525 1458.15C639.21 1458.15 630.847 1465.43 626.307 1470.45C624.634 1472.24 622.364 1473.68 621.169 1473.68C618.421 1473.68 611.73 1479.65 611.73 1482.16C611.73 1483.24 609.819 1485.39 607.548 1486.94C605.278 1488.49 603.367 1490.17 603.367 1490.64C603.367 1491.24 602.769 1491.6 602.052 1491.6C600.619 1491.6 587.835 1504.14 587.835 1505.58C587.835 1506.18 586.52 1507.97 584.848 1509.76C583.175 1511.55 581.861 1513.58 581.861 1514.3C581.861 1514.9 581.024 1515.5 580.068 1515.5C579.113 1515.5 578.276 1516.33 578.276 1517.29C578.276 1518.24 577.798 1519.08 577.081 1519.08C574.811 1519.08 569.913 1525.29 569.913 1528.04C569.913 1529.95 569.196 1531.03 568.121 1531.03C567.165 1531.03 566.328 1531.74 566.328 1532.7C566.328 1533.66 565.492 1534.61 564.536 1535.09C563.58 1535.45 562.027 1537.24 561.31 1539.03C560.474 1540.82 559.279 1542.74 558.562 1543.21C557.726 1543.81 557.726 1544.17 558.682 1544.17C559.877 1544.17 562.505 1542.02 567.165 1536.88C571.227 1532.34 573.258 1531.03 575.887 1531.03C577.201 1531.03 578.635 1530.19 578.993 1529.24C579.352 1528.28 581.502 1526.97 583.772 1526.25C586.042 1525.53 587.835 1524.34 587.835 1523.74C587.835 1523.14 589.149 1522.66 590.821 1522.66C592.494 1522.66 594.167 1521.83 594.525 1520.87C595.003 1519.92 596.198 1519.08 597.393 1519.08C598.588 1519.08 599.782 1518.24 600.26 1517.29C600.619 1516.33 601.575 1515.5 602.411 1515.5C603.247 1515.5 605.995 1513.58 608.504 1511.31C611.013 1509.04 613.522 1507.13 614.239 1507.13C614.837 1507.13 615.315 1506.3 615.315 1505.34C615.315 1504.38 616.151 1503.55 617.107 1503.55C618.063 1503.55 618.899 1503.19 618.899 1502.59C618.899 1502.11 620.811 1500.68 623.081 1499.49C625.351 1498.17 627.262 1496.74 627.262 1496.14C627.262 1495.66 627.979 1495.18 628.935 1495.18C629.771 1495.18 631.205 1494.35 632.042 1493.39C632.878 1492.44 634.551 1491.6 635.745 1491.6C636.94 1491.6 639.688 1489.69 641.958 1487.42C644.228 1485.15 646.618 1483.24 647.215 1483.24C647.932 1483.24 649.127 1482.4 649.963 1481.44C650.8 1480.49 652.711 1479.65 654.265 1479.65C656.057 1479.65 657.132 1478.93 657.132 1477.86C657.132 1476.9 657.968 1476.07 658.924 1476.07C659.88 1476.07 660.716 1475.23 660.716 1474.28C660.716 1473.32 661.194 1472.48 661.672 1472.48C662.15 1472.48 664.42 1470.69 666.69 1468.54C668.96 1466.27 673.262 1463.04 676.129 1461.25C678.997 1459.46 683.178 1456.11 685.448 1453.84C687.718 1451.45 690.705 1449.78 692.378 1449.78C696.918 1449.78 703.609 1445.84 711.256 1438.67C713.765 1436.28 717.23 1434.25 718.663 1434.25C720.217 1434.25 721.65 1433.41 722.128 1432.46C722.487 1431.5 723.801 1430.67 725.115 1430.67C726.43 1430.67 727.863 1430.07 728.222 1429.47C729.894 1426.84 738.497 1422.3 741.962 1422.3C743.873 1422.3 745.546 1421.82 745.546 1421.23C745.546 1420.51 746.98 1418.48 748.652 1416.69C750.445 1414.89 752.356 1411.91 752.954 1410.12C753.671 1408.2 754.865 1406.77 755.821 1406.77C756.777 1406.77 757.494 1405.93 757.494 1405.1C757.494 1403.78 759.167 1403.19 763.229 1402.95C768.605 1402.59 768.844 1402.47 769.203 1398.65C769.561 1395.06 769.8 1394.82 774.46 1394.82C781.151 1394.82 790.35 1390.28 797.519 1383.23C803.254 1377.74 808.989 1374.27 814.246 1372.96C817.472 1372.12 829.659 1366.86 830.376 1366.03C830.734 1365.55 832.168 1364.95 833.721 1364.47C835.155 1364 836.35 1363.04 836.35 1362.44C836.35 1361.85 837.903 1361.37 839.815 1361.37C841.726 1361.37 843.518 1360.89 843.757 1360.41C843.996 1359.81 847.222 1357.66 851.046 1355.51C854.749 1353.36 857.856 1351.09 857.856 1350.5C857.856 1349.9 858.573 1349.42 859.529 1349.42C860.484 1349.42 861.44 1348.58 861.918 1347.63C862.277 1346.67 863.591 1345.84 865.025 1345.84C866.339 1345.84 868.011 1344.76 868.848 1343.45C869.684 1342.13 870.998 1341.06 871.835 1341.06C872.671 1341.06 873.388 1340.22 873.388 1339.26C873.388 1338.31 874.105 1337.47 875.061 1337.47C876.017 1337.47 876.972 1336.64 877.45 1335.68C877.809 1334.49 879.72 1333.89 882.827 1333.89C886.411 1333.89 888.442 1333.05 891.788 1329.95C899.315 1323.14 900.868 1321.94 902.541 1321.94C903.497 1321.94 905.767 1320.63 907.559 1318.95C909.471 1317.28 912.696 1315.01 914.847 1313.94C916.998 1312.98 918.79 1311.67 918.79 1311.07C918.79 1310.47 920.104 1309.99 921.657 1309.99C923.33 1309.99 924.883 1309.51 925.242 1308.92C926.317 1307.24 935.397 1302.82 937.906 1302.82C939.101 1302.82 940.893 1302.11 941.73 1301.27C943.402 1299.48 949.137 1296.13 952.602 1294.94C953.678 1294.58 954.633 1293.74 954.633 1293.15C954.633 1292.55 955.35 1292.07 956.306 1292.07C957.262 1292.07 960.368 1289.92 963.116 1287.29C965.984 1284.66 970.524 1281.68 973.391 1280.6C976.259 1279.53 978.529 1278.09 978.529 1277.61C978.529 1277.02 979.365 1276.54 980.321 1276.54C981.277 1276.54 982.113 1275.7 982.113 1274.75C982.113 1273.79 982.711 1272.95 983.308 1272.95C984.025 1272.95 984.503 1272.24 984.503 1271.28C984.503 1270.33 985.339 1269.37 986.295 1268.89C987.251 1268.53 988.087 1267.46 988.087 1266.38C988.087 1265.07 989.402 1264.59 992.866 1264.59C996.331 1264.59 997.646 1265.07 997.646 1266.38C997.646 1268.77 1002.31 1268.77 1003.14 1266.38C1003.62 1265.43 1004.93 1264.59 1006.13 1264.59C1007.44 1264.59 1008.76 1263.75 1009.12 1262.8C1009.59 1261.84 1010.55 1261.01 1011.39 1261.01C1013.18 1261.01 1019.15 1255.63 1019.15 1253.84C1019.15 1253.24 1019.75 1252.64 1020.47 1252.64C1022.86 1252.64 1027.52 1247.39 1027.52 1244.76C1027.52 1243.32 1028.35 1241.89 1029.31 1241.41C1030.26 1241.05 1031.1 1239.98 1031.1 1238.9C1031.1 1237.59 1032.29 1237.11 1035.28 1237.11C1038.15 1237.11 1039.46 1237.71 1039.46 1238.9C1039.46 1239.86 1040.06 1240.69 1040.66 1240.69C1041.37 1240.69 1042.21 1239.86 1042.57 1238.9C1043.05 1237.95 1043.76 1237.11 1044.48 1237.11C1045.08 1237.11 1046.39 1236.27 1047.35 1235.32C1048.54 1234.24 1051.41 1233.53 1055.11 1233.53C1058.34 1233.53 1060.97 1232.93 1060.97 1232.21C1060.97 1231.61 1062.76 1230.3 1064.91 1229.34C1067.18 1228.39 1070.29 1226.36 1071.84 1224.68C1073.51 1222.89 1076.02 1221.58 1078.05 1221.58C1079.85 1221.58 1081.28 1221.1 1081.28 1220.5C1081.28 1219.91 1082.95 1219.07 1084.86 1218.59C1086.9 1218.11 1088.45 1217.16 1088.45 1216.32C1088.45 1215.48 1090.72 1212.98 1093.35 1210.71C1096.1 1208.44 1098.96 1206.05 1099.68 1205.33C1100.4 1204.61 1103.98 1203.66 1107.57 1203.18C1112.7 1202.46 1114.85 1201.51 1117.36 1198.76C1119.16 1196.85 1121.43 1195.29 1122.38 1195.29C1125.13 1195.29 1133.85 1191.35 1133.85 1190.04C1133.85 1187.41 1140.06 1183.35 1144.13 1183.35C1146.75 1183.35 1148.55 1182.63 1148.91 1181.55C1149.38 1180.48 1151.18 1179.76 1153.68 1179.76C1156.55 1179.76 1157.75 1179.16 1157.75 1177.97C1157.75 1177.01 1158.34 1176.18 1159.06 1176.18C1159.78 1176.18 1162.05 1174.26 1164.08 1171.99C1166.23 1169.49 1168.86 1167.81 1170.53 1167.81C1172.2 1167.81 1173.28 1167.1 1173.28 1166.02C1173.28 1164.71 1174.59 1164.23 1177.82 1164.23C1181.76 1164.23 1183.43 1163.27 1188.69 1158.25C1192.16 1154.91 1195.98 1152.28 1197.29 1152.28C1198.61 1152.28 1199.92 1151.44 1200.28 1150.49C1200.76 1149.53 1201.95 1148.7 1203.03 1148.7C1204.22 1148.7 1206.14 1147.74 1207.45 1146.43C1209 1144.99 1212.35 1144.04 1216.89 1143.68C1220.71 1143.32 1224.18 1142.48 1224.42 1141.77C1224.65 1140.93 1225.85 1140.33 1227.04 1140.33C1228.36 1140.33 1232.9 1136.87 1237.2 1132.57C1241.5 1128.27 1245.56 1124.8 1246.4 1124.8C1247.12 1124.8 1249.51 1123.49 1251.54 1121.81C1253.69 1120.26 1258.71 1117.99 1262.77 1116.92C1267.19 1115.6 1270.06 1114.17 1270.06 1113.21C1270.06 1112.38 1270.89 1111.3 1271.85 1110.94C1272.8 1110.46 1273.64 1109.51 1273.64 1108.55C1273.64 1107.36 1275.43 1106.88 1280.57 1106.88C1286.9 1106.88 1287.74 1106.52 1291.2 1102.7C1293.35 1100.43 1295.86 1098.52 1296.94 1098.52C1298.01 1098.52 1299.09 1097.68 1299.45 1096.72C1299.93 1095.53 1301.72 1094.93 1304.59 1094.93C1307.09 1094.93 1310.08 1094.09 1311.4 1093.14C1312.59 1092.18 1314.38 1091.35 1315.22 1091.35C1316.06 1091.35 1319.4 1088.6 1322.75 1085.37C1325.97 1082.03 1329.2 1079.4 1329.8 1079.4C1330.51 1079.4 1330.99 1078.56 1330.99 1077.61C1330.99 1076.53 1332.07 1075.81 1333.86 1075.81C1335.41 1075.81 1338.76 1074.74 1341.39 1073.54C1343.89 1072.23 1347.96 1070.92 1350.47 1070.44C1352.86 1070.08 1354.89 1069.24 1354.89 1068.65C1354.89 1067.93 1356.56 1067.45 1358.59 1067.45C1360.62 1067.45 1363.01 1066.61 1363.97 1065.66C1365.04 1064.7 1366.83 1063.87 1368.15 1063.87C1369.34 1063.87 1370.42 1063.39 1370.42 1062.91C1370.42 1062.43 1372.21 1061 1374.36 1059.69C1376.39 1058.49 1378.42 1057.18 1378.78 1056.82C1379.62 1055.86 1387.86 1051.2 1393.96 1048.22C1396.7 1046.9 1400.17 1044.03 1401.6 1041.76C1403.63 1038.9 1405.55 1037.58 1408.65 1037.1C1411.04 1036.75 1415.1 1034.95 1417.73 1033.28C1420.24 1031.49 1424.9 1029.34 1428.01 1028.38C1431.23 1027.55 1434.46 1025.63 1435.3 1024.44C1436.01 1023.12 1437.33 1022.05 1438.16 1022.05C1439 1022.05 1439.72 1021.21 1439.72 1020.26C1439.72 1019.3 1440.43 1018.47 1441.27 1018.47C1441.99 1018.47 1444.02 1017.39 1445.69 1016.08C1447.36 1014.76 1449.99 1013.69 1451.66 1013.69C1453.34 1013.69 1456.2 1012.85 1458.12 1011.89C1459.91 1010.94 1462.78 1010.1 1464.21 1010.1C1465.76 1010.1 1467.2 1009.27 1467.67 1008.31C1468.03 1007.23 1469.82 1006.52 1472.33 1006.52C1474.6 1006.52 1477.11 1005.68 1477.95 1004.72C1478.79 1003.77 1480.1 1002.93 1480.82 1002.93C1482.73 1002.81 1488.94 997.078 1488.46 995.764C1488.22 995.167 1485.95 995.884 1483.33 997.437Z" fill="#C22033"/>
<path d="M257.475 1509.52C257.117 1510.12 257.595 1510.72 258.551 1510.72C259.626 1510.72 260.462 1510.12 260.462 1509.52C260.462 1508.8 259.984 1508.33 259.387 1508.33C258.67 1508.33 257.834 1508.8 257.475 1509.52Z" fill="#C22033"/>
<path d="M3.94279 1611.08C3.10644 1612.39 2.38957 1614.78 2.38957 1616.45C2.38957 1618.13 1.91165 1619.44 1.19478 1619.44C0.597392 1619.44 0 1621.59 0 1624.22C0 1626.85 0.597392 1629 1.19478 1629C1.91165 1629 2.38957 1627.69 2.38957 1626.01C2.38957 1624.46 3.22592 1622.67 4.30122 1622.07C5.61549 1621.35 5.97392 1619.56 5.73496 1614.78C5.37653 1609.29 5.25705 1608.93 3.94279 1611.08Z" fill="#C22033"/>
</svg>
