<svg width="1253" height="1291" viewBox="0 0 1253 1291" fill="none" xmlns="http://www.w3.org/2000/svg">
<path d="M854.328 198.47C806.972 241.132 740.574 251.873 659.32 229.318C579.243 207.091 524.348 162.682 516.947 116.236C508.368 69.4628 492.54 85.3626 498.11 133.837C509.379 225.748 414.614 370.669 322.837 399.732C283.653 412.954 265.009 411.584 225.427 394.255C170.013 369.995 160.529 381.314 201.816 424.483C244.281 467.979 262.356 571.926 241.436 647.292C225.746 703.817 219.925 711.08 163.409 741.052C100.875 774.427 89.1032 793.99 137.707 783.383C179.443 774.674 250.296 798.146 296.424 837.585C369.573 898.477 403.678 1013.22 370.001 1088.85C350.515 1131.63 359.085 1132.74 411.674 1094.07C467.273 1053.7 581.098 1032.02 644.688 1049.67C715.344 1069.29 750.479 1098.06 779.995 1160.8C810.361 1225.03 823.311 1205.8 796.607 1137.5C759.825 1046.12 819.467 940.915 937.734 884.96C986.925 863.101 1009.56 859.237 1047.24 869.697C1097.88 883.753 1099.58 863.93 1049.72 842.482C1026.82 833.589 1019.3 815.012 1012.16 758.491C1005.67 699.616 1009.13 668.868 1035.02 584.735C1066.01 486.797 1068.5 482.413 1118.47 453.162C1180.48 417.104 1179.82 396.628 1117.09 426.144C1092.5 437.073 1059.46 441.855 1040.62 436.625C989.132 421.065 926.581 363.116 897.916 301.889C874.225 254.726 873.111 240.465 889.329 209.454C912.805 161.432 898.674 157.509 854.328 198.47ZM797.237 308.188C757.933 372.109 735.039 386.048 675.572 380.956C603.675 374.951 560.557 333.811 545.562 259.89L532.139 194.016L559.488 214.291C603.717 246.861 714.868 271.372 773.22 262.203C802.723 256.441 828.039 252.053 829.217 252.38C830.721 251.529 815.811 277.83 797.237 308.188ZM972.91 429.245L1027.41 465.935L967.491 489.89C903.058 516.396 874.469 509.729 830.106 459.365C787.444 412.01 783.643 375.441 817.127 318.782L846.294 268.535L882.351 330.545C904.797 368.484 939.673 407.336 972.91 429.245ZM529.214 295.939C542.243 354.094 528.447 394.656 479.328 448.244C437.207 494.895 398.807 500.725 346.531 469.726L301.845 443.37L365.884 409.144C415.205 382.248 438.032 359.412 470.535 306.286C492.247 269.19 513.176 239.486 514.353 239.813C516.709 240.466 523.778 265.259 529.214 295.939ZM712.35 449.509C661.667 540.712 604.883 535.096 585.173 437.037L572.077 369.985L614.014 387.968C646.857 402.157 710.38 410.912 735.173 403.842C736.677 402.991 725.756 424.058 712.35 449.509ZM850.134 510.584C884.284 520.063 874.8 531.383 816.386 554.486C760.653 577.066 731.934 575.436 715.77 546.851C703.009 524.284 708.566 504.265 741.069 451.139L765.266 409.659L796.676 456.427C813.494 482.657 838.358 507.315 850.134 510.584ZM1011.47 578.197C984.401 662.004 981.007 701.648 992.8 796.242C996.14 816.194 991.954 817.568 975.597 807.955C964.802 801.153 940.529 788.074 923.845 779.638C874.122 753.153 873.707 631.277 922.952 549.822C932.239 534.643 1026.37 483.402 1039.32 486.998C1040.5 487.325 1027.88 528.214 1011.47 578.197ZM558.353 442.276C568.96 490.88 557.846 530.918 529.982 553.624C510.294 569.721 503.228 567.759 467.963 544.019L429.492 518.12L468.738 490.964C490.781 475.521 517.271 448.629 525.707 431.946C534.469 414.085 543.429 400.083 545.784 400.737C548.14 401.391 553.311 419.315 558.353 442.276ZM869.52 632.652C861.613 674.849 856.06 717.699 857.828 729.605C859.991 749.23 854.954 749.1 809.287 726.278C741.049 693.385 737.646 687.367 749.74 643.796C757.912 614.356 773.087 600.811 814.232 580.524C844.845 566.191 872.973 556.242 876.833 556.045C881.543 557.353 878.279 591.96 869.52 632.652ZM642.834 581.144L621.122 618.241L612.741 575.328C604.032 533.592 604.359 532.414 631.247 536.073C668.209 539.991 667.032 539.664 642.834 581.144ZM691.38 607.303C653.898 623.534 650.168 618.693 670.703 581.27C683.455 558.175 688.819 557.127 704.392 574.133C721.993 592.97 721.666 594.148 691.38 607.303ZM315.197 477.516C364.137 511.394 381.478 540.306 384.563 593.164C387.061 657.274 357.566 708.699 313.149 717.931C293.197 721.271 272.918 725.789 268.731 727.164C263.694 727.034 268.463 691.576 277.024 647.024C289.378 593.378 291.201 545.687 282.69 507.811C276.077 476.804 272.866 451.815 275.222 452.468C277.577 453.122 294.784 464.24 315.197 477.516ZM591.682 610.069C588.346 612.948 574.542 607.848 562.569 600.719C541.829 588.621 541.959 583.584 560.926 560.945L581.725 536.278L589.712 571.472C593.052 591.424 594.691 608.368 591.682 610.069ZM463.977 572.084C503.366 608.385 499.318 650.384 455.688 675.055C409.05 701.428 392.563 696.852 403.023 659.168C407.599 642.682 408.182 608.599 406.149 583.936C400.123 541.677 402.281 538.471 419.945 543.374C430.544 546.316 450.957 559.592 463.977 572.084ZM721.939 652.567C717.036 670.231 707.158 673.831 683.606 667.293C654.166 659.121 652.989 658.795 680.723 641.126C696.095 631.441 713.168 624.766 719.056 626.4C723.766 627.707 725.535 639.613 721.939 652.567ZM561.463 632.121C572.128 643.96 569.643 648.343 547.86 653.712C518.357 659.474 507.038 649.99 514.229 624.083C519.132 606.419 540.982 609.948 561.463 632.121ZM574.953 706.892C560.696 730.838 556.51 732.213 540.086 713.702C520.783 691.856 520.783 691.856 552.247 679.028C590.58 664.301 595.488 669.469 574.953 706.892ZM633.439 715.516C641.951 753.392 641.624 754.57 610.549 752.286C587.194 749.608 581.96 745.619 590.266 733.973C596.414 725.532 604.85 708.849 608.445 695.895C617.271 664.1 624.534 669.921 633.439 715.516ZM694.146 707.001C688.262 728.197 666.085 725.846 656.857 704.26C649.33 685.682 651.162 683.654 672.358 689.538C685.312 693.133 695.781 701.113 694.146 707.001ZM828.724 765.918C831.603 769.254 814.924 783.649 792.357 796.41C770.967 809.498 745.458 832.857 737.022 849.54C727.082 867.074 716.094 879.244 711.383 877.937C707.85 876.956 697.901 848.828 689.26 815.989C675.38 756.33 675.707 755.152 704.946 736.633C729.344 721.844 742.101 721.58 780.178 739.759C805.105 750.483 827.022 762.909 828.724 765.918ZM951.722 825.426C954.275 829.94 942.239 836.745 925.493 842.244C880.291 858.869 826.264 907.289 787.089 966.173L751.904 1019.82L736.587 969.911C724.345 927.195 725.259 914.765 748.475 876.818C763.386 850.517 793.409 824.605 825.853 808.244C869.68 787.433 883.941 786.318 913.775 802.21C932.814 811.299 950.021 822.417 951.722 825.426ZM528.121 752.236C533.163 775.197 530.158 799.73 516.098 827.535L495.761 868.819L470.696 817.469C458.065 789.865 434.835 759.319 420.507 751.537C386.617 731.983 390.082 724.066 437.312 709.273C486.897 695.133 517.385 708.669 528.121 752.236ZM650.659 795.128C660.998 808.144 684.692 878.138 681.75 888.737C680.77 892.269 663.63 890.048 644.788 884.818C624.769 879.261 587.153 877.698 562.163 880.909L514.867 886.805L537.165 838.456C566.069 775.453 619.97 754.901 650.659 795.128ZM432.749 794.253C467.624 833.105 476.861 900.354 453.057 949.553C432.917 994.696 416.171 1000.19 414.201 961.598C413.212 919.468 352.094 828.94 300.275 791.726L249.307 756.017L293.725 746.785C342.983 733.822 397.349 752.718 432.749 794.253ZM695.563 939.499C703.874 950.684 714.803 975.28 719.648 994.381L730.317 1029.05L656.979 1009.96C602.81 994.926 566.371 993.69 512.73 1004.17C452.219 1016.54 442.472 1015.11 453.263 999.075C459.738 989.458 472.163 967.54 480.599 950.857C510.747 897.077 658.592 889.918 695.563 939.499Z" fill="#C22033"/>
</svg>
