<svg width="150" height="150" viewBox="0 0 150 150" fill="none" xmlns="http://www.w3.org/2000/svg">
<path d="M105.5 71.1699C108.833 73.0944 108.833 77.9056 105.5 79.8301L64.25 103.646C60.9167 105.57 56.75 103.165 56.75 99.3157V51.6843C56.75 47.8353 60.9167 45.4297 64.25 47.3542L105.5 71.1699Z" fill="#C22033"/>
<path fill-rule="evenodd" clip-rule="evenodd" d="M75 150C116.421 150 150 116.421 150 75C150 33.5786 116.421 0 75 0C33.5786 0 0 33.5786 0 75C0 116.421 33.5786 150 75 150ZM75 145C113.66 145 145 113.66 145 75C145 36.3401 113.66 5 75 5C36.3401 5 5 36.3401 5 75C5 113.66 36.3401 145 75 145Z" fill="#C22033"/>
</svg>
